<svg width="20" height="20" viewBox="0 0 20 20" fill="none" xmlns="http://www.w3.org/2000/svg">
<path d="M18.3346 9.99992V14.1666C18.3346 16.6666 16.668 18.3333 14.168 18.3333H5.83464C3.33464 18.3333 1.66797 16.6666 1.66797 14.1666V9.99992C1.66797 7.73325 3.03464 6.14992 5.15964 5.88325C5.3763 5.84992 5.6013 5.83325 5.83464 5.83325H14.168C14.3846 5.83325 14.593 5.84158 14.793 5.87491C16.943 6.12491 18.3346 7.71659 18.3346 9.99992Z" stroke="#858A97" stroke-width="1.5" stroke-linecap="round" stroke-linejoin="round"/>
<path d="M14.7935 5.87508C14.5935 5.84175 14.3852 5.83342 14.1685 5.83342H5.83516C5.60182 5.83342 5.37682 5.85009 5.16016 5.88342C5.27682 5.65009 5.44349 5.43342 5.64349 5.23342L8.35182 2.51675C9.49349 1.38341 11.3435 1.38341 12.4852 2.51675L13.9435 3.99176C14.4768 4.51676 14.7602 5.18341 14.7935 5.87508Z" stroke="#858A97" stroke-width="1.5" stroke-linecap="round" stroke-linejoin="round"/>
<path d="M18.3346 10.4167H15.8346C14.918 10.4167 14.168 11.1667 14.168 12.0834C14.168 13.0001 14.918 13.7501 15.8346 13.7501H18.3346" stroke="#858A97" stroke-width="1.5" stroke-linecap="round" stroke-linejoin="round"/>
</svg>
