<svg width="24" height="25" viewBox="0 0 24 25" fill="none" xmlns="http://www.w3.org/2000/svg">
<path d="M8.59301 3.62598H22.743C23.1522 3.62598 23.4844 3.95818 23.4844 4.3673V23.2434C23.4844 23.6526 23.1522 23.9848 22.743 23.9848H8.59301C8.18384 23.9848 7.85168 23.6526 7.85168 23.2434V4.3673C7.85168 3.95813 8.18389 3.62598 8.59301 3.62598Z" fill="#8A96BF"/>
<path fill-rule="evenodd" clip-rule="evenodd" d="M7.85168 23.2434V8.22057C7.85168 7.90159 7.9654 7.62709 8.19097 7.40157L11.6274 3.96521C11.8529 3.73965 12.1274 3.62598 12.4464 3.62598H22.743C23.0012 3.62598 23.2118 3.83654 23.2118 4.09473V23.1496C23.2118 23.4594 22.9591 23.7121 22.6493 23.7121H8.32043C8.06234 23.7121 7.85168 23.5016 7.85168 23.2434Z" fill="#A8B4DB"/>
<path fill-rule="evenodd" clip-rule="evenodd" d="M5.24175 20.6331V5.61027C5.24175 5.29128 5.35546 5.01678 5.58098 4.79127L9.01739 1.35486C9.2429 1.1293 9.51745 1.01562 9.83639 1.01562H20.133C20.5414 1.01562 20.8744 1.34867 20.8744 1.75695V20.6331C20.8744 21.0414 20.5414 21.3744 20.133 21.3744H5.98307C5.57475 21.3744 5.24175 21.0414 5.24175 20.6331Z" fill="#8A96BF"/>
<path fill-rule="evenodd" clip-rule="evenodd" d="M5.2417 20.6331V5.61027C5.2417 5.29128 5.35542 5.01678 5.58093 4.79127L9.01734 1.35486C9.2429 1.12934 9.5174 1.01562 9.83634 1.01562H20.133C20.3912 1.01562 20.6017 1.22619 20.6017 1.48438V20.5393C20.6017 20.8491 20.349 21.1018 20.0392 21.1018H5.71045C5.45236 21.1018 5.2417 20.8913 5.2417 20.6331Z" fill="#D2DBFA"/>
<path fill-rule="evenodd" clip-rule="evenodd" d="M9.01739 1.35486C9.2429 1.1293 9.51745 1.01562 9.83639 1.01562H10.1304C9.70903 1.18948 9.41043 1.60527 9.41043 2.08752V4.44317C9.41043 4.85141 9.07748 5.18441 8.66925 5.18441H6.31359C5.83143 5.18441 5.41556 5.48295 5.2417 5.90436V5.61036C5.2417 5.29138 5.35542 5.01688 5.58093 4.79136L9.01739 1.35486Z" fill="#8A96BF"/>
<path fill-rule="evenodd" clip-rule="evenodd" d="M9.01739 1.35486C9.2429 1.1293 9.51745 1.01562 9.83639 1.01562H10.1304C9.77198 1.082 9.1574 1.42494 9.1574 2.08752V4.44317C9.1574 4.71177 8.93779 4.93138 8.66925 4.93138H6.31359C5.99451 4.93138 5.43684 5.06197 5.2417 5.90436V5.61036C5.2417 5.29138 5.35542 5.01688 5.58093 4.79136L9.01739 1.35486Z" fill="#A8B4DB"/>
<path d="M1.25695 11.3613H17.5231C17.9323 11.3613 18.2645 11.6935 18.2645 12.1027V18.023C18.2645 18.4322 17.9323 18.7643 17.5231 18.7643H1.257C0.847828 18.7643 0.515625 18.4321 0.515625 18.023V12.1027C0.515625 11.6935 0.847828 11.3613 1.25695 11.3613Z" fill="#3254D1"/>
<path fill-rule="evenodd" clip-rule="evenodd" d="M0.537422 18.2013C0.523219 18.1441 0.515625 18.0844 0.515625 18.023V12.1027C0.515625 11.6944 0.848625 11.3613 1.25695 11.3613H17.2327C17.4908 11.3613 17.7014 11.5719 17.7014 11.8301V17.6388C17.7014 17.9485 17.4487 18.2013 17.1389 18.2013H0.537422Z" fill="#4370FF"/>
<path fill-rule="evenodd" clip-rule="evenodd" d="M12.5406 15.0636C12.5406 15.7803 13.1239 16.3634 13.8404 16.3634C14.1878 16.3634 14.5141 16.2281 14.7596 15.9825C14.906 15.8362 15.1436 15.8362 15.29 15.9825C15.4366 16.1291 15.4366 16.3664 15.29 16.5129C14.9028 16.8999 14.388 17.1132 13.8404 17.1132C12.7104 17.1132 11.7907 16.1938 11.7907 15.0636C11.7907 13.9334 12.7104 13.0137 13.8404 13.0137C14.388 13.0137 14.9027 13.227 15.29 13.6142C15.4366 13.7606 15.4366 13.998 15.29 14.1443C15.1437 14.2909 14.906 14.2909 14.7596 14.1443C14.5141 13.8989 14.1878 13.7638 13.8404 13.7638C13.1239 13.7638 12.5406 14.3468 12.5406 15.0636ZM9.38283 16.3634C8.66606 16.3634 8.0828 15.7803 8.0828 15.0633C8.0828 14.3463 8.66606 13.7638 9.38283 13.7638C10.0996 13.7638 10.6826 14.3468 10.6826 15.0633C10.6826 15.7799 10.0994 16.3634 9.38283 16.3634ZM9.38283 13.0137C8.25216 13.0137 7.33294 13.9331 7.33294 15.0633C7.33294 16.1935 8.25216 17.1132 9.38283 17.1132C10.5135 17.1132 11.4325 16.1938 11.4325 15.0633C11.4325 13.9329 10.5128 13.0137 9.38283 13.0137ZM4.92455 16.3634H4.13095V13.7638H4.92455C5.64131 13.7638 6.22434 14.3468 6.22434 15.0633C6.22434 15.7799 5.64131 16.3634 4.92455 16.3634ZM4.92455 13.0137H3.75591C3.54881 13.0137 3.38086 13.1817 3.38086 13.3887V16.7384C3.38086 16.9455 3.54881 17.1132 3.75591 17.1132H4.92455C6.05475 17.1132 6.9742 16.1938 6.9742 15.0633C6.9742 13.9329 6.05475 13.0137 4.92455 13.0137Z" fill="#EDEFF3"/>
</svg>
