<svg width="24" height="24" viewBox="0 0 24 24" fill="none" xmlns="http://www.w3.org/2000/svg">
<g clip-path="url(#clip0_1_16921)">
<path d="M8.59289 3.12598H22.7429C23.1521 3.12598 23.4842 3.45818 23.4842 3.8673V22.7434C23.4842 23.1526 23.152 23.4848 22.7429 23.4848H8.59289C8.18372 23.4848 7.85156 23.1526 7.85156 22.7434V3.8673C7.85156 3.45813 8.18377 3.12598 8.59289 3.12598Z" fill="#8A96BF"/>
<path fill-rule="evenodd" clip-rule="evenodd" d="M7.85156 22.7434V7.72057C7.85156 7.40159 7.96528 7.12709 8.19084 6.90157L11.6272 3.46521C11.8528 3.23965 12.1273 3.12598 12.4462 3.12598H22.7429C23.0011 3.12598 23.2117 3.33654 23.2117 3.59473V22.6496C23.2117 22.9594 22.959 23.2121 22.6492 23.2121H8.32031C8.06222 23.2121 7.85156 23.0016 7.85156 22.7434Z" fill="#A8B4DB"/>
<path fill-rule="evenodd" clip-rule="evenodd" d="M5.24223 20.1331V5.11027C5.24223 4.79128 5.35595 4.51678 5.58147 4.29127L9.01788 0.854859C9.24339 0.629297 9.51794 0.515625 9.83687 0.515625H20.1335C20.5419 0.515625 20.8749 0.848672 20.8749 1.25695V20.1331C20.8749 20.5414 20.5419 20.8744 20.1335 20.8744H5.98356C5.57523 20.8744 5.24223 20.5414 5.24223 20.1331Z" fill="#8A96BF"/>
<path fill-rule="evenodd" clip-rule="evenodd" d="M5.24219 20.1331V5.11027C5.24219 4.79128 5.35591 4.51678 5.58142 4.29127L9.01783 0.854859C9.24339 0.629344 9.51789 0.515625 9.83683 0.515625H20.1335C20.3917 0.515625 20.6022 0.726187 20.6022 0.984375V20.0393C20.6022 20.3491 20.3495 20.6018 20.0397 20.6018H5.71094C5.45284 20.6018 5.24219 20.3913 5.24219 20.1331Z" fill="#D2DBFA"/>
<path fill-rule="evenodd" clip-rule="evenodd" d="M9.01788 0.854859C9.24339 0.629297 9.51794 0.515625 9.83688 0.515625H10.1309C9.70952 0.689484 9.41092 1.10527 9.41092 1.58752V3.94317C9.41092 4.35141 9.07797 4.68441 8.66973 4.68441H6.31408C5.83192 4.68441 5.41605 4.98295 5.24219 5.40436V5.11036C5.24219 4.79138 5.35591 4.51688 5.58142 4.29136L9.01788 0.854859Z" fill="#8A96BF"/>
<path fill-rule="evenodd" clip-rule="evenodd" d="M9.01788 0.854859C9.24339 0.629297 9.51794 0.515625 9.83688 0.515625H10.1309C9.77247 0.582 9.15789 0.924938 9.15789 1.58752V3.94317C9.15789 4.21177 8.93828 4.43138 8.66973 4.43138H6.31408C5.995 4.43138 5.43733 4.56197 5.24219 5.40436V5.11036C5.24219 4.79138 5.35591 4.51688 5.58142 4.29136L9.01788 0.854859Z" fill="#A8B4DB"/>
<path d="M1.25695 10.8613H17.5231C17.9323 10.8613 18.2645 11.1935 18.2645 11.6027V17.523C18.2645 17.9322 17.9323 18.2643 17.5231 18.2643H1.257C0.847828 18.2643 0.515625 17.9321 0.515625 17.523V11.6027C0.515625 11.1935 0.847828 10.8613 1.25695 10.8613Z" fill="#3254D1"/>
<path fill-rule="evenodd" clip-rule="evenodd" d="M0.537422 17.7013C0.523219 17.6441 0.515625 17.5844 0.515625 17.523V11.6027C0.515625 11.1944 0.848625 10.8613 1.25695 10.8613H17.2327C17.4908 10.8613 17.7014 11.0719 17.7014 11.3301V17.1388C17.7014 17.4485 17.4487 17.7013 17.1389 17.7013H0.537422Z" fill="#4370FF"/>
<path d="M2.144 16.26C2.104 16.26 2.07 16.246 2.042 16.218C2.014 16.19 2 16.156 2 16.116V12.21C2 12.166 2.014 12.13 2.042 12.102C2.07 12.074 2.104 12.06 2.144 12.06H3.608C4.012 12.06 4.344 12.122 4.604 12.246C4.868 12.37 5.066 12.554 5.198 12.798C5.334 13.042 5.404 13.34 5.408 13.692C5.416 13.868 5.42 14.024 5.42 14.16C5.42 14.296 5.416 14.45 5.408 14.622C5.4 14.994 5.332 15.302 5.204 15.546C5.076 15.786 4.882 15.966 4.622 16.086C4.366 16.202 4.038 16.26 3.638 16.26H2.144ZM2.834 15.57H3.608C3.832 15.57 4.014 15.538 4.154 15.474C4.294 15.41 4.396 15.308 4.46 15.168C4.528 15.024 4.564 14.836 4.568 14.604C4.572 14.484 4.574 14.38 4.574 14.292C4.578 14.2 4.578 14.11 4.574 14.022C4.574 13.93 4.572 13.826 4.568 13.71C4.56 13.382 4.478 13.14 4.322 12.984C4.166 12.828 3.918 12.75 3.578 12.75H2.834V15.57Z" fill="#EDEFF3"/>
<path d="M7.83275 16.32C7.47675 16.32 7.17075 16.262 6.91475 16.146C6.65875 16.026 6.45875 15.844 6.31475 15.6C6.17075 15.352 6.09275 15.044 6.08075 14.676C6.07675 14.504 6.07475 14.334 6.07475 14.166C6.07475 13.998 6.07675 13.826 6.08075 13.65C6.09275 13.286 6.17275 12.982 6.32075 12.738C6.46875 12.494 6.67075 12.31 6.92675 12.186C7.18675 12.062 7.48875 12 7.83275 12C8.17675 12 8.47875 12.062 8.73875 12.186C8.99875 12.31 9.20275 12.494 9.35075 12.738C9.49875 12.982 9.57875 13.286 9.59075 13.65C9.59875 13.826 9.60275 13.998 9.60275 14.166C9.60275 14.334 9.59875 14.504 9.59075 14.676C9.57875 15.044 9.50075 15.352 9.35675 15.6C9.21275 15.844 9.01075 16.026 8.75075 16.146C8.49475 16.262 8.18875 16.32 7.83275 16.32ZM7.83275 15.63C8.09275 15.63 8.30475 15.554 8.46875 15.402C8.63275 15.246 8.72075 14.994 8.73275 14.646C8.74075 14.47 8.74475 14.308 8.74475 14.16C8.74475 14.008 8.74075 13.846 8.73275 13.674C8.72475 13.442 8.68075 13.254 8.60075 13.11C8.52475 12.962 8.42075 12.856 8.28875 12.792C8.15675 12.724 8.00475 12.69 7.83275 12.69C7.66475 12.69 7.51475 12.724 7.38275 12.792C7.25075 12.856 7.14475 12.962 7.06475 13.11C6.98875 13.254 6.94675 13.442 6.93875 13.674C6.93475 13.846 6.93275 14.008 6.93275 14.16C6.93275 14.308 6.93475 14.47 6.93875 14.646C6.95075 14.994 7.03875 15.246 7.20275 15.402C7.36675 15.554 7.57675 15.63 7.83275 15.63Z" fill="#EDEFF3"/>
<path d="M12.0106 16.32C11.6386 16.32 11.3226 16.256 11.0626 16.128C10.8066 15.996 10.6106 15.81 10.4746 15.57C10.3386 15.326 10.2626 15.034 10.2466 14.694C10.2426 14.53 10.2406 14.354 10.2406 14.166C10.2406 13.978 10.2426 13.798 10.2466 13.626C10.2626 13.29 10.3386 13 10.4746 12.756C10.6146 12.512 10.8126 12.326 11.0686 12.198C11.3286 12.066 11.6426 12 12.0106 12C12.2826 12 12.5266 12.036 12.7426 12.108C12.9586 12.18 13.1426 12.28 13.2946 12.408C13.4466 12.532 13.5646 12.678 13.6486 12.846C13.7326 13.014 13.7766 13.196 13.7806 13.392C13.7846 13.428 13.7726 13.458 13.7446 13.482C13.7206 13.506 13.6906 13.518 13.6546 13.518H13.0846C13.0406 13.518 13.0046 13.508 12.9766 13.488C12.9486 13.464 12.9286 13.426 12.9166 13.374C12.8526 13.11 12.7426 12.93 12.5866 12.834C12.4306 12.738 12.2366 12.69 12.0046 12.69C11.7366 12.69 11.5226 12.766 11.3626 12.918C11.2026 13.066 11.1166 13.312 11.1046 13.656C11.0926 13.984 11.0926 14.32 11.1046 14.664C11.1166 15.008 11.2026 15.256 11.3626 15.408C11.5226 15.556 11.7366 15.63 12.0046 15.63C12.2366 15.63 12.4306 15.582 12.5866 15.486C12.7426 15.386 12.8526 15.206 12.9166 14.946C12.9286 14.89 12.9486 14.852 12.9766 14.832C13.0046 14.812 13.0406 14.802 13.0846 14.802H13.6546C13.6906 14.802 13.7206 14.814 13.7446 14.838C13.7726 14.862 13.7846 14.892 13.7806 14.928C13.7766 15.124 13.7326 15.306 13.6486 15.474C13.5646 15.642 13.4466 15.79 13.2946 15.918C13.1426 16.042 12.9586 16.14 12.7426 16.212C12.5266 16.284 12.2826 16.32 12.0106 16.32Z" fill="#EDEFF3"/>
<path d="M14.1644 16.26C14.1284 16.26 14.0984 16.248 14.0744 16.224C14.0504 16.2 14.0384 16.17 14.0384 16.134C14.0384 16.122 14.0404 16.11 14.0444 16.098C14.0484 16.086 14.0524 16.074 14.0564 16.062L15.4004 14.118L14.1404 12.258C14.1284 12.234 14.1224 12.21 14.1224 12.186C14.1224 12.15 14.1344 12.12 14.1584 12.096C14.1824 12.072 14.2104 12.06 14.2424 12.06H14.8604C14.9084 12.06 14.9464 12.072 14.9744 12.096C15.0024 12.12 15.0264 12.146 15.0464 12.174L15.9284 13.47L16.8164 12.174C16.8324 12.146 16.8544 12.12 16.8824 12.096C16.9144 12.072 16.9544 12.06 17.0024 12.06H17.5844C17.6204 12.06 17.6504 12.072 17.6744 12.096C17.6984 12.12 17.7104 12.15 17.7104 12.186C17.7104 12.21 17.7024 12.234 17.6864 12.258L16.4324 14.118L17.7764 16.062C17.7844 16.074 17.7904 16.086 17.7944 16.098C17.7984 16.11 17.8004 16.122 17.8004 16.134C17.8004 16.17 17.7864 16.2 17.7584 16.224C17.7344 16.248 17.7064 16.26 17.6744 16.26H17.0384C16.9904 16.26 16.9524 16.248 16.9244 16.224C16.8964 16.2 16.8744 16.176 16.8584 16.152L15.8984 14.796L14.9564 16.152C14.9404 16.176 14.9184 16.2 14.8904 16.224C14.8624 16.248 14.8224 16.26 14.7704 16.26H14.1644Z" fill="#EDEFF3"/>
</g>
<defs>
<clipPath id="clip0_1_16921">
<rect width="24" height="24" fill="white"/>
</clipPath>
</defs>
</svg>
