<svg width="24" height="24" viewBox="0 0 24 24" fill="none" xmlns="http://www.w3.org/2000/svg">
<g clip-path="url(#clip0_1_16888)">
<path d="M8.59289 3.12598H22.7429C23.1521 3.12598 23.4842 3.45818 23.4842 3.8673V22.7434C23.4842 23.1526 23.152 23.4848 22.7429 23.4848H8.59289C8.18372 23.4848 7.85156 23.1526 7.85156 22.7434V3.8673C7.85156 3.45813 8.18377 3.12598 8.59289 3.12598Z" fill="#8A96BF"/>
<path fill-rule="evenodd" clip-rule="evenodd" d="M7.85156 22.7434V7.72057C7.85156 7.40159 7.96528 7.12709 8.1908 6.90157L11.6272 3.46521C11.8528 3.23965 12.1273 3.12598 12.4462 3.12598H22.7429C23.001 3.12598 23.2116 3.33654 23.2116 3.59473V22.6496C23.2116 22.9594 22.9589 23.2121 22.6491 23.2121H8.32031C8.06222 23.2121 7.85156 23.0016 7.85156 22.7434Z" fill="#A8B4DB"/>
<path fill-rule="evenodd" clip-rule="evenodd" d="M5.24223 20.1331V5.11027C5.24223 4.79128 5.35595 4.51678 5.58147 4.29127L9.01788 0.854859C9.24344 0.629297 9.51794 0.515625 9.83692 0.515625H20.1336C20.5419 0.515625 20.875 0.848672 20.875 1.25695V20.1331C20.875 20.5414 20.5419 20.8744 20.1336 20.8744H5.98356C5.57523 20.8744 5.24223 20.5414 5.24223 20.1331Z" fill="#8A96BF"/>
<path fill-rule="evenodd" clip-rule="evenodd" d="M5.24219 20.1331V5.11027C5.24219 4.79128 5.35591 4.51678 5.58142 4.29127L9.01783 0.854859C9.24339 0.629344 9.51789 0.515625 9.83687 0.515625H20.1335C20.3917 0.515625 20.6023 0.726187 20.6023 0.984375V20.0393C20.6023 20.3491 20.3496 20.6018 20.0398 20.6018H5.71094C5.45284 20.6018 5.24219 20.3913 5.24219 20.1331Z" fill="#D2DBFA"/>
<path fill-rule="evenodd" clip-rule="evenodd" d="M9.01783 0.854859C9.24339 0.629297 9.51789 0.515625 9.83687 0.515625H10.1309C9.70952 0.689484 9.41092 1.10527 9.41092 1.58752V3.94317C9.41092 4.35141 9.07797 4.68441 8.66973 4.68441H6.31408C5.83192 4.68441 5.41605 4.98295 5.24219 5.40436V5.11036C5.24219 4.79138 5.35591 4.51688 5.58142 4.29136L9.01783 0.854859Z" fill="#8A96BF"/>
<path fill-rule="evenodd" clip-rule="evenodd" d="M9.01783 0.854859C9.24339 0.629297 9.51789 0.515625 9.83687 0.515625H10.1309C9.77247 0.582 9.15789 0.924938 9.15789 1.58752V3.94317C9.15789 4.21177 8.93828 4.43138 8.66973 4.43138H6.31408C5.995 4.43138 5.43733 4.56197 5.24219 5.40436V5.11036C5.24219 4.79138 5.35591 4.51688 5.58142 4.29136L9.01783 0.854859Z" fill="#A8B4DB"/>
<path d="M1.25695 10.8613H17.5231C17.9323 10.8613 18.2645 11.1935 18.2645 11.6027V17.523C18.2645 17.9322 17.9323 18.2643 17.5231 18.2643H1.257C0.847828 18.2643 0.515625 17.9321 0.515625 17.523V11.6027C0.515625 11.1935 0.847828 10.8613 1.25695 10.8613Z" fill="#1B8DF2"/>
<path fill-rule="evenodd" clip-rule="evenodd" d="M0.537422 17.7013C0.523219 17.6441 0.515625 17.5844 0.515625 17.523V11.6027C0.515625 11.1944 0.848625 10.8613 1.25695 10.8613H17.2327C17.4908 10.8613 17.7014 11.0719 17.7014 11.3301V17.1388C17.7014 17.4485 17.4487 17.7013 17.1389 17.7013H0.537422Z" fill="#43A7FF"/>
<path fill-rule="evenodd" clip-rule="evenodd" d="M6.87552 12.8887V15.2476C6.87552 16.0005 6.26277 16.6132 5.51014 16.6132C4.75752 16.6132 4.14453 16.0005 4.14453 15.2476C4.14453 15.0405 4.31248 14.8726 4.51958 14.8726C4.72667 14.8726 4.89462 15.0405 4.89462 15.2476C4.89462 15.5872 5.17072 15.8633 5.51014 15.8633C5.84956 15.8633 6.12542 15.5872 6.12542 15.2476V13.2638H5.31134C5.10402 13.2638 4.9363 13.0958 4.9363 12.8887C4.9363 12.6816 5.10402 12.5137 5.31134 12.5137H6.50047C6.7078 12.5137 6.87552 12.6817 6.87552 12.8887ZM14.6324 14.5636V15.9218C14.6324 16.0539 14.5629 16.1763 14.45 16.2437C13.9405 16.5479 13.5388 16.6107 13.0556 16.6132C11.9235 16.6132 11.0038 15.6938 11.0038 14.5633C11.0038 13.4329 11.9235 12.5137 13.0537 12.5137C13.505 12.5137 13.9438 12.6023 14.3216 12.77C14.5109 12.854 14.5963 13.0756 14.5123 13.2649C14.4285 13.454 14.2072 13.5396 14.0178 13.4556C13.7348 13.33 13.4009 13.2637 13.0537 13.2637C12.337 13.2637 11.7537 13.8468 11.7537 14.5633C11.7537 15.2798 12.337 15.8633 13.0537 15.8633C13.3692 15.8617 13.6025 15.8329 13.8825 15.6988V14.9384H12.9942C12.7871 14.9384 12.6191 14.7707 12.6191 14.5636C12.6191 14.3565 12.7871 14.1885 12.9942 14.1885H14.2573C14.4647 14.1885 14.6324 14.3562 14.6324 14.5636ZM9.23417 14.4842H8.18516V13.2638H9.23417C9.57078 13.2638 9.84463 13.5374 9.84463 13.874C9.84463 14.2106 9.57083 14.4842 9.23417 14.4842ZM9.23417 12.5137H7.81011C7.60302 12.5137 7.4353 12.6817 7.4353 12.8887V16.2384C7.4353 16.4455 7.60306 16.6132 7.81011 16.6132C8.01716 16.6132 8.18516 16.4455 8.18516 16.2384V15.2343H9.23417C9.98427 15.2343 10.5945 14.6241 10.5945 13.874C10.5945 13.1239 9.98427 12.5137 9.23417 12.5137Z" fill="#EDEFF3"/>
</g>
<defs>
<clipPath id="clip0_1_16888">
<rect width="24" height="24" fill="white"/>
</clipPath>
</defs>
</svg>
