<svg width="24" height="24" viewBox="0 0 24 24" fill="none" xmlns="http://www.w3.org/2000/svg">
<g clip-path="url(#clip0_1_16967)">
<path d="M8.59294 3.12598H22.7429C23.1521 3.12598 23.4842 3.45818 23.4842 3.8673V22.7434C23.4842 23.1526 23.152 23.4848 22.7429 23.4848H8.59289C8.18372 23.4848 7.85156 23.1526 7.85156 22.7434V3.86735C7.85156 3.45818 8.18377 3.12598 8.59294 3.12598Z" fill="#8A96BF"/>
<path fill-rule="evenodd" clip-rule="evenodd" d="M7.85156 22.7434V7.72057C7.85156 7.40159 7.96528 7.12709 8.1908 6.90157L11.6272 3.46521C11.8528 3.23965 12.1273 3.12598 12.4462 3.12598H22.7429C23.001 3.12598 23.2116 3.33654 23.2116 3.59473V22.6496C23.2116 22.9594 22.9589 23.2121 22.6491 23.2121H8.32031C8.06222 23.2121 7.85156 23.0016 7.85156 22.7434Z" fill="#A8B4DB"/>
<path fill-rule="evenodd" clip-rule="evenodd" d="M5.24223 20.1331V5.11027C5.24223 4.79128 5.35595 4.51678 5.58147 4.29127L9.01788 0.854859C9.24339 0.629297 9.51794 0.515625 9.83687 0.515625H20.1335C20.5419 0.515625 20.8749 0.848672 20.8749 1.25695V20.1331C20.8749 20.5414 20.5419 20.8744 20.1335 20.8744H5.98356C5.57523 20.8744 5.24223 20.5414 5.24223 20.1331Z" fill="#8A96BF"/>
<path fill-rule="evenodd" clip-rule="evenodd" d="M5.24219 20.1331V5.11027C5.24219 4.79128 5.35591 4.51678 5.58142 4.29127L9.01783 0.854859C9.24339 0.629344 9.51789 0.515625 9.83683 0.515625H20.1335C20.3917 0.515625 20.6022 0.726187 20.6022 0.984375V20.0393C20.6022 20.3491 20.3495 20.6018 20.0397 20.6018H5.71094C5.45284 20.6018 5.24219 20.3913 5.24219 20.1331Z" fill="#D2DBFA"/>
<path fill-rule="evenodd" clip-rule="evenodd" d="M9.01788 0.854859C9.24339 0.629297 9.51794 0.515625 9.83688 0.515625H10.1309C9.70947 0.689484 9.41092 1.10527 9.41092 1.58752V3.94317C9.41092 4.35141 9.07797 4.68441 8.66973 4.68441H6.31408C5.83192 4.68441 5.41605 4.98295 5.24219 5.40436V5.11036C5.24219 4.79138 5.35591 4.51688 5.58142 4.29136L9.01788 0.854859Z" fill="#8A96BF"/>
<path fill-rule="evenodd" clip-rule="evenodd" d="M9.01788 0.854859C9.24339 0.629297 9.51794 0.515625 9.83688 0.515625H10.1309C9.77247 0.582 9.15789 0.924938 9.15789 1.58752V3.94317C9.15789 4.21177 8.93833 4.43138 8.66973 4.43138H6.31408C5.995 4.43138 5.43733 4.56197 5.24219 5.40436V5.11036C5.24219 4.79138 5.35591 4.51688 5.58142 4.29136L9.01788 0.854859Z" fill="#A8B4DB"/>
<path d="M1.25695 10.8613H17.5231C17.9323 10.8613 18.2645 11.1935 18.2645 11.6027V17.523C18.2645 17.9321 17.9323 18.2643 17.5231 18.2643H1.25695C0.847781 18.2643 0.515625 17.9322 0.515625 17.523V11.6027C0.515625 11.1935 0.847828 10.8614 1.25695 10.8614V10.8613Z" fill="#BA0404"/>
<path fill-rule="evenodd" clip-rule="evenodd" d="M0.537422 17.7013C0.523219 17.6441 0.515625 17.5844 0.515625 17.523V11.6027C0.515625 11.1944 0.848625 10.8613 1.25695 10.8613H17.2327C17.4908 10.8613 17.7014 11.0719 17.7014 11.3301V17.1388C17.7014 17.4485 17.4487 17.7013 17.1389 17.7013H0.537422Z" fill="#ED2F2F"/>
<path fill-rule="evenodd" clip-rule="evenodd" d="M14.6579 12.8878C14.6579 13.0949 14.49 13.2628 14.2829 13.2628H12.5884V14.2168H14.0497C14.2568 14.2168 14.4246 14.3847 14.4246 14.5918C14.4246 14.7989 14.2568 14.9669 14.0497 14.9669H12.5884V16.2374C12.5884 16.4445 12.4205 16.6122 12.2134 16.6122C12.0063 16.6122 11.8384 16.4445 11.8384 16.2374V12.8877C11.8384 12.6806 12.0063 12.5127 12.2134 12.5127H14.2829C14.49 12.5127 14.6579 12.6807 14.6579 12.8877V12.8878ZM9.28494 15.8624H8.49111V13.2628H9.28494C10.0017 13.2628 10.5848 13.8459 10.5848 14.5626C10.5848 15.2794 10.0017 15.8624 9.28494 15.8624ZM9.28494 12.5127H8.11616C7.90897 12.5127 7.74111 12.6807 7.74111 12.8878V16.2375C7.74111 16.4446 7.90902 16.6123 8.11616 16.6123H9.28494C10.4153 16.6123 11.3347 15.6928 11.3347 14.5626C11.3347 13.4324 10.4152 12.5127 9.28494 12.5127ZM5.9202 14.4833H4.87109V13.2629H5.9202C6.25662 13.2629 6.53037 13.5364 6.53037 13.8731C6.53037 14.2097 6.25658 14.4833 5.9202 14.4833ZM5.9202 12.5127H4.49614C4.289 12.5127 4.12109 12.6807 4.12109 12.8878V16.2375C4.12109 16.4446 4.289 16.6123 4.49614 16.6123C4.70328 16.6123 4.87114 16.4446 4.87114 16.2375V15.2334H5.92025C6.6702 15.2334 7.28042 14.6231 7.28042 13.8731C7.28042 13.123 6.6702 12.5127 5.9202 12.5127Z" fill="#EDEFF3"/>
</g>
<defs>
<clipPath id="clip0_1_16967">
<rect width="24" height="24" fill="white"/>
</clipPath>
</defs>
</svg>
