<svg width="24" height="24" viewBox="0 0 24 24" fill="none" xmlns="http://www.w3.org/2000/svg">
<g clip-path="url(#clip0_1_16899)">
<path d="M8.59289 3.12598H22.7429C23.1521 3.12598 23.4842 3.45818 23.4842 3.8673V22.7434C23.4842 23.1526 23.152 23.4848 22.7429 23.4848H8.59289C8.18372 23.4848 7.85156 23.1526 7.85156 22.7434V3.8673C7.85156 3.45813 8.18377 3.12598 8.59289 3.12598Z" fill="#8A96BF"/>
<path fill-rule="evenodd" clip-rule="evenodd" d="M7.85156 22.7434V7.72057C7.85156 7.40159 7.96528 7.12709 8.1908 6.90157L11.6272 3.46521C11.8528 3.23965 12.1273 3.12598 12.4462 3.12598H22.7429C23.001 3.12598 23.2116 3.33654 23.2116 3.59473V22.6496C23.2116 22.9594 22.9589 23.2121 22.6491 23.2121H8.32031C8.06222 23.2121 7.85156 23.0016 7.85156 22.7434Z" fill="#A8B4DB"/>
<path fill-rule="evenodd" clip-rule="evenodd" d="M5.24223 20.1331V5.11027C5.24223 4.79128 5.35595 4.51678 5.58147 4.29127L9.01788 0.854859C9.24344 0.629297 9.51794 0.515625 9.83687 0.515625H20.1335C20.5419 0.515625 20.8749 0.848672 20.8749 1.25695V20.1331C20.8749 20.5414 20.5419 20.8744 20.1335 20.8744H5.98356C5.57523 20.8744 5.24223 20.5414 5.24223 20.1331Z" fill="#8A96BF"/>
<path fill-rule="evenodd" clip-rule="evenodd" d="M5.24219 20.1331V5.11027C5.24219 4.79128 5.35591 4.51678 5.58142 4.29127L9.01783 0.854859C9.24339 0.629344 9.51789 0.515625 9.83683 0.515625H20.1335C20.3917 0.515625 20.6022 0.726187 20.6022 0.984375V20.0393C20.6022 20.3491 20.3495 20.6018 20.0397 20.6018H5.71094C5.45284 20.6018 5.24219 20.3913 5.24219 20.1331Z" fill="#D2DBFA"/>
<path fill-rule="evenodd" clip-rule="evenodd" d="M9.01788 0.854859C9.24344 0.629297 9.51794 0.515625 9.83688 0.515625H10.1309C9.70952 0.689484 9.41092 1.10527 9.41092 1.58752V3.94317C9.41092 4.35141 9.07797 4.68441 8.66973 4.68441H6.31408C5.83192 4.68441 5.41605 4.98295 5.24219 5.40436V5.11036C5.24219 4.79138 5.35591 4.51688 5.58142 4.29136L9.01788 0.854859Z" fill="#8A96BF"/>
<path fill-rule="evenodd" clip-rule="evenodd" d="M9.01788 0.854859C9.24344 0.629297 9.51794 0.515625 9.83688 0.515625H10.1309C9.77247 0.582 9.15789 0.924938 9.15789 1.58752V3.94317C9.15789 4.21177 8.93828 4.43138 8.66973 4.43138H6.31408C5.995 4.43138 5.43733 4.56197 5.24219 5.40436V5.11036C5.24219 4.79138 5.35591 4.51688 5.58142 4.29136L9.01788 0.854859Z" fill="#A8B4DB"/>
<path d="M1.25695 10.8613H17.5231C17.9323 10.8613 18.2645 11.1935 18.2645 11.6027V17.523C18.2645 17.9322 17.9323 18.2643 17.5231 18.2643H1.257C0.847828 18.2643 0.515625 17.9321 0.515625 17.523V11.6027C0.515625 11.1935 0.847828 10.8613 1.25695 10.8613Z" fill="#3B2ABD"/>
<path fill-rule="evenodd" clip-rule="evenodd" d="M0.537422 17.7013C0.523219 17.6441 0.515625 17.5844 0.515625 17.523V11.6027C0.515625 11.1944 0.848625 10.8613 1.25695 10.8613H17.2327C17.4908 10.8613 17.7014 11.0719 17.7014 11.3301V17.1388C17.7014 17.4485 17.4487 17.7013 17.1389 17.7013H0.537422Z" fill="#5D4BDD"/>
<path fill-rule="evenodd" clip-rule="evenodd" d="M14.9875 14.5626V15.9209C14.9875 16.053 14.9182 16.1754 14.8048 16.2428C14.2951 16.5469 13.8934 16.6098 13.4106 16.6123C12.2781 16.6123 11.3587 15.6928 11.3587 14.5624C11.3587 13.432 12.2781 12.5127 13.4083 12.5127C13.8598 12.5127 14.2983 12.6013 14.6768 12.7691C14.8662 12.8531 14.9513 13.0746 14.8676 13.264C14.7831 13.4531 14.5618 13.5387 14.3724 13.4547C14.0894 13.3291 13.756 13.2628 13.4083 13.2628C12.6915 13.2628 12.1085 13.8458 12.1085 14.5624C12.1085 15.2789 12.6915 15.8624 13.4083 15.8624C13.7238 15.8608 13.9578 15.832 14.2376 15.6979V14.9374H13.3487C13.1416 14.9374 12.9737 14.7697 12.9737 14.5626C12.9737 14.3555 13.1417 14.1876 13.3487 14.1876H14.6126C14.8197 14.1876 14.9875 14.3553 14.9875 14.5626ZM10.8799 12.8878V16.2375C10.8799 16.396 10.7798 16.5378 10.63 16.5909C10.589 16.6054 10.5467 16.6123 10.5048 16.6123C10.3939 16.6123 10.286 16.5631 10.2135 16.4735L8.16317 13.9453V16.2375C8.16317 16.4446 7.99522 16.6123 7.78789 16.6123C7.58056 16.6123 7.41308 16.4446 7.41308 16.2375V12.8878C7.41308 12.729 7.51316 12.5873 7.66273 12.5344C7.81231 12.4812 7.97933 12.5282 8.07922 12.6514L10.1298 15.1797V12.8877C10.1298 12.6806 10.2975 12.5127 10.5049 12.5127C10.7122 12.5127 10.8799 12.6807 10.8799 12.8877L10.8799 12.8878ZM5.59208 14.4832H4.54306V13.2628H5.59208C5.9285 13.2628 6.2023 13.5364 6.2023 13.873C6.2023 14.2096 5.9285 14.4832 5.59208 14.4832ZM5.59208 12.5127H4.16802C3.96092 12.5127 3.79297 12.6807 3.79297 12.8877V16.2374C3.79297 16.4445 3.96092 16.6122 4.16802 16.6122C4.37511 16.6122 4.54306 16.4445 4.54306 16.2374V15.2333H5.59208C6.34194 15.2333 6.95239 14.6231 6.95239 13.873C6.95239 13.1229 6.34194 12.5127 5.59208 12.5127Z" fill="#EDEFF3"/>
</g>
<defs>
<clipPath id="clip0_1_16899">
<rect width="24" height="24" fill="white"/>
</clipPath>
</defs>
</svg>
