<svg width="24" height="24" viewBox="0 0 24 24" fill="none" xmlns="http://www.w3.org/2000/svg">
<g clip-path="url(#clip0_1_16933)">
<path d="M8.59289 3.12598H22.7429C23.1521 3.12598 23.4842 3.45818 23.4842 3.8673V22.7434C23.4842 23.1526 23.152 23.4848 22.7429 23.4848H8.59289C8.18372 23.4848 7.85156 23.1526 7.85156 22.7434V3.8673C7.85156 3.45813 8.18377 3.12598 8.59289 3.12598Z" fill="#8A96BF"/>
<path fill-rule="evenodd" clip-rule="evenodd" d="M7.85156 22.7434V7.72057C7.85156 7.40159 7.96528 7.12709 8.1908 6.90157L11.6272 3.46521C11.8528 3.23965 12.1273 3.12598 12.4462 3.12598H22.7429C23.001 3.12598 23.2116 3.33654 23.2116 3.59473V22.6496C23.2116 22.9594 22.9589 23.2121 22.6491 23.2121H8.32031C8.06222 23.2121 7.85156 23.0016 7.85156 22.7434Z" fill="#A8B4DB"/>
<path fill-rule="evenodd" clip-rule="evenodd" d="M5.24223 20.1331V5.11027C5.24223 4.79128 5.35595 4.51678 5.58147 4.29127L9.01788 0.854859C9.24339 0.629297 9.51794 0.515625 9.83687 0.515625H20.1335C20.5419 0.515625 20.8749 0.848672 20.8749 1.25695V20.1331C20.8749 20.5414 20.5419 20.8744 20.1335 20.8744H5.98356C5.57523 20.8744 5.24223 20.5414 5.24223 20.1331Z" fill="#8A96BF"/>
<path fill-rule="evenodd" clip-rule="evenodd" d="M5.24219 20.1331V5.11027C5.24219 4.79128 5.35591 4.51678 5.58142 4.29127L9.01783 0.854859C9.24339 0.629344 9.51789 0.515625 9.83683 0.515625H20.1335C20.3917 0.515625 20.6022 0.726187 20.6022 0.984375V20.0393C20.6022 20.3491 20.3495 20.6018 20.0397 20.6018H5.71094C5.45284 20.6018 5.24219 20.3913 5.24219 20.1331Z" fill="#D2DBFA"/>
<path fill-rule="evenodd" clip-rule="evenodd" d="M9.01783 0.854859C9.24334 0.629297 9.51789 0.515625 9.83683 0.515625H10.1308C9.70947 0.689484 9.41087 1.10527 9.41087 1.58752V3.94317C9.41087 4.35141 9.07792 4.68441 8.66969 4.68441H6.31403C5.83188 4.68441 5.416 4.98295 5.24219 5.40436V5.11036C5.24219 4.79138 5.35591 4.51688 5.58142 4.29136L9.01783 0.854859Z" fill="#8A96BF"/>
<path fill-rule="evenodd" clip-rule="evenodd" d="M9.01783 0.854859C9.24334 0.629297 9.51789 0.515625 9.83683 0.515625H10.1308C9.77242 0.582 9.15784 0.924938 9.15784 1.58752V3.94317C9.15784 4.21177 8.93828 4.43138 8.66969 4.43138H6.31403C5.99495 4.43138 5.43728 4.56197 5.24219 5.40436V5.11036C5.24219 4.79138 5.35591 4.51688 5.58142 4.29136L9.01783 0.854859Z" fill="#A8B4DB"/>
<path d="M1.25695 10.8613H17.5231C17.9323 10.8613 18.2645 11.1935 18.2645 11.6027V17.523C18.2645 17.9322 17.9323 18.2643 17.5231 18.2643H1.257C0.847828 18.2643 0.515625 17.9321 0.515625 17.523V11.6027C0.515625 11.1935 0.847828 10.8613 1.25695 10.8613Z" fill="#E34222"/>
<path fill-rule="evenodd" clip-rule="evenodd" d="M0.537422 17.7013C0.523219 17.6441 0.515625 17.5844 0.515625 17.523V11.6027C0.515625 11.1944 0.848625 10.8613 1.25695 10.8613H17.2327C17.4908 10.8613 17.7014 11.0719 17.7014 11.3301V17.1388C17.7014 17.4485 17.4487 17.7013 17.1389 17.7013H0.537422Z" fill="#F66446"/>
<path fill-rule="evenodd" clip-rule="evenodd" d="M14.5386 12.8878C14.5386 13.0949 14.3709 13.2628 14.1636 13.2628H13.2379V16.2375C13.2379 16.4446 13.0699 16.6123 12.8628 16.6123C12.6557 16.6123 12.4878 16.4446 12.4878 16.2375V13.2628H11.5621C11.355 13.2628 11.1871 13.0949 11.1871 12.8878C11.1871 12.6807 11.355 12.5127 11.5621 12.5127H14.1636C14.3709 12.5127 14.5386 12.6807 14.5386 12.8878ZM9.63375 14.4832H8.58455V13.2628H9.63375C9.97036 13.2628 10.244 13.5364 10.244 13.873C10.244 14.2096 9.97041 14.4832 9.63375 14.4832ZM9.63375 12.5127H8.20969C8.00283 12.5127 7.83464 12.6807 7.83464 12.8877V16.2374C7.83464 16.4445 8.00283 16.6122 8.20969 16.6122C8.41655 16.6122 8.5845 16.4445 8.5845 16.2374V15.2333H9.6337C10.3836 15.2333 10.994 14.6231 10.994 13.873C10.994 13.1229 10.3836 12.5127 9.6337 12.5127H9.63375ZM6.04106 14.4832H4.99205V13.2628H6.04106C6.37767 13.2628 6.65152 13.5364 6.65152 13.873C6.65152 14.2096 6.37772 14.4832 6.04106 14.4832ZM6.04106 12.5127H4.617C4.40991 12.5127 4.24219 12.6807 4.24219 12.8877V16.2374C4.24219 16.4445 4.40991 16.6122 4.617 16.6122C4.82409 16.6122 4.99205 16.4445 4.99205 16.2374V15.2333H6.04106C6.79116 15.2333 7.40137 14.6231 7.40137 13.873C7.40137 13.1229 6.79116 12.5127 6.04106 12.5127Z" fill="#EDEFF3"/>
</g>
<defs>
<clipPath id="clip0_1_16933">
<rect width="24" height="24" fill="white"/>
</clipPath>
</defs>
</svg>
