<svg width="24" height="24" viewBox="0 0 24 24" fill="none" xmlns="http://www.w3.org/2000/svg">
<g clip-path="url(#clip0_1_16944)">
<path d="M8.59289 3.12598H22.7429C23.1521 3.12598 23.4842 3.45818 23.4842 3.8673V22.7434C23.4842 23.1526 23.152 23.4848 22.7429 23.4848H8.59289C8.18372 23.4848 7.85156 23.1526 7.85156 22.7434V3.8673C7.85156 3.45813 8.18377 3.12598 8.59289 3.12598Z" fill="#8A96BF"/>
<path fill-rule="evenodd" clip-rule="evenodd" d="M7.85156 22.7434V7.72057C7.85156 7.40159 7.96528 7.12709 8.1908 6.90157L11.6272 3.46521C11.8528 3.23965 12.1273 3.12598 12.4462 3.12598H22.7429C23.001 3.12598 23.2116 3.33654 23.2116 3.59473V22.6496C23.2116 22.9594 22.9589 23.2121 22.6491 23.2121H8.32031C8.06222 23.2121 7.85156 23.0016 7.85156 22.7434Z" fill="#A8B4DB"/>
<path fill-rule="evenodd" clip-rule="evenodd" d="M5.24223 20.1331V5.11027C5.24223 4.79128 5.35595 4.51678 5.58147 4.29127L9.01788 0.854859C9.24339 0.629297 9.51794 0.515625 9.83687 0.515625H20.1335C20.5419 0.515625 20.8749 0.848672 20.8749 1.25695V20.1331C20.8749 20.5414 20.5419 20.8744 20.1335 20.8744H5.98356C5.57523 20.8744 5.24223 20.5414 5.24223 20.1331Z" fill="#8A96BF"/>
<path fill-rule="evenodd" clip-rule="evenodd" d="M5.24219 20.1331V5.11027C5.24219 4.79128 5.35591 4.51678 5.58142 4.29127L9.01783 0.854859C9.24339 0.629344 9.51789 0.515625 9.83683 0.515625H20.1335C20.3917 0.515625 20.6022 0.726187 20.6022 0.984375V20.0393C20.6022 20.3491 20.3495 20.6018 20.0397 20.6018H5.71094C5.45284 20.6018 5.24219 20.3913 5.24219 20.1331Z" fill="#D2DBFA"/>
<path fill-rule="evenodd" clip-rule="evenodd" d="M9.01783 0.854859C9.24334 0.629297 9.51789 0.515625 9.83683 0.515625H10.1308C9.70947 0.689484 9.41087 1.10527 9.41087 1.58752V3.94317C9.41087 4.35141 9.07792 4.68441 8.66969 4.68441H6.31403C5.83188 4.68441 5.416 4.98295 5.24219 5.40436V5.11036C5.24219 4.79138 5.35591 4.51688 5.58142 4.29136L9.01783 0.854859Z" fill="#8A96BF"/>
<path fill-rule="evenodd" clip-rule="evenodd" d="M9.01783 0.854859C9.24334 0.629297 9.51789 0.515625 9.83683 0.515625H10.1308C9.77242 0.582 9.15784 0.924938 9.15784 1.58752V3.94317C9.15784 4.21177 8.93828 4.43138 8.66969 4.43138H6.31403C5.99495 4.43138 5.43728 4.56197 5.24219 5.40436V5.11036C5.24219 4.79138 5.35591 4.51688 5.58142 4.29136L9.01783 0.854859Z" fill="#A8B4DB"/>
<path d="M1.25695 10.8613H17.5231C17.9323 10.8613 18.2645 11.1935 18.2645 11.6027V17.523C18.2645 17.9322 17.9323 18.2643 17.5231 18.2643H1.257C0.847828 18.2643 0.515625 17.9321 0.515625 17.523V11.6027C0.515625 11.1935 0.847828 10.8613 1.25695 10.8613Z" fill="#E34222"/>
<path fill-rule="evenodd" clip-rule="evenodd" d="M0.537422 17.7013C0.523219 17.6441 0.515625 17.5844 0.515625 17.523V11.6027C0.515625 11.1944 0.848625 10.8613 1.25695 10.8613H17.2327C17.4908 10.8613 17.7014 11.0719 17.7014 11.3301V17.1388C17.7014 17.4485 17.4487 17.7013 17.1389 17.7013H0.537422Z" fill="#F66446"/>
<path d="M2.144 16.2C2.104 16.2 2.07 16.186 2.042 16.158C2.014 16.13 2 16.096 2 16.056V12.15C2 12.106 2.014 12.07 2.042 12.042C2.07 12.014 2.104 12 2.144 12H3.752C4.064 12 4.336 12.05 4.568 12.15C4.8 12.246 4.98 12.394 5.108 12.594C5.236 12.79 5.3 13.036 5.3 13.332C5.3 13.632 5.236 13.88 5.108 14.076C4.98 14.268 4.8 14.412 4.568 14.508C4.336 14.604 4.064 14.652 3.752 14.652H2.858V16.056C2.858 16.096 2.844 16.13 2.816 16.158C2.792 16.186 2.758 16.2 2.714 16.2H2.144ZM2.846 13.986H3.722C3.954 13.986 4.132 13.932 4.256 13.824C4.38 13.712 4.442 13.548 4.442 13.332C4.442 13.132 4.384 12.972 4.268 12.852C4.152 12.728 3.97 12.666 3.722 12.666H2.846V13.986Z" fill="#EDEFF3"/>
<path d="M6.09908 16.2C6.05908 16.2 6.02508 16.186 5.99708 16.158C5.96908 16.13 5.95508 16.096 5.95508 16.056V12.15C5.95508 12.106 5.96908 12.07 5.99708 12.042C6.02508 12.014 6.05908 12 6.09908 12H7.70708C8.01908 12 8.29108 12.05 8.52308 12.15C8.75508 12.246 8.93508 12.394 9.06308 12.594C9.19108 12.79 9.25508 13.036 9.25508 13.332C9.25508 13.632 9.19108 13.88 9.06308 14.076C8.93508 14.268 8.75508 14.412 8.52308 14.508C8.29108 14.604 8.01908 14.652 7.70708 14.652H6.81308V16.056C6.81308 16.096 6.79908 16.13 6.77108 16.158C6.74708 16.186 6.71308 16.2 6.66908 16.2H6.09908ZM6.80108 13.986H7.67708C7.90908 13.986 8.08708 13.932 8.21108 13.824C8.33508 13.712 8.39708 13.548 8.39708 13.332C8.39708 13.132 8.33908 12.972 8.22308 12.852C8.10708 12.728 7.92508 12.666 7.67708 12.666H6.80108V13.986Z" fill="#EDEFF3"/>
<path d="M10.9782 16.2C10.9382 16.2 10.9042 16.186 10.8762 16.158C10.8482 16.13 10.8342 16.096 10.8342 16.056V12.738H9.72416C9.68416 12.738 9.65016 12.724 9.62216 12.696C9.59416 12.668 9.58016 12.634 9.58016 12.594V12.15C9.58016 12.106 9.59416 12.07 9.62216 12.042C9.65016 12.014 9.68416 12 9.72416 12H12.7842C12.8282 12 12.8642 12.014 12.8922 12.042C12.9202 12.07 12.9342 12.106 12.9342 12.15V12.594C12.9342 12.634 12.9202 12.668 12.8922 12.696C12.8642 12.724 12.8282 12.738 12.7842 12.738H11.6802V16.056C11.6802 16.096 11.6662 16.13 11.6382 16.158C11.6102 16.186 11.5742 16.2 11.5302 16.2H10.9782Z" fill="#EDEFF3"/>
<path d="M13.309 16.2C13.273 16.2 13.243 16.188 13.219 16.164C13.195 16.14 13.183 16.11 13.183 16.074C13.183 16.062 13.185 16.05 13.189 16.038C13.193 16.026 13.197 16.014 13.201 16.002L14.545 14.058L13.285 12.198C13.273 12.174 13.267 12.15 13.267 12.126C13.267 12.09 13.279 12.06 13.303 12.036C13.327 12.012 13.355 12 13.387 12H14.005C14.053 12 14.091 12.012 14.119 12.036C14.147 12.06 14.171 12.086 14.191 12.114L15.073 13.41L15.961 12.114C15.977 12.086 15.999 12.06 16.027 12.036C16.059 12.012 16.099 12 16.147 12H16.729C16.765 12 16.795 12.012 16.819 12.036C16.843 12.06 16.855 12.09 16.855 12.126C16.855 12.15 16.847 12.174 16.831 12.198L15.577 14.058L16.921 16.002C16.929 16.014 16.935 16.026 16.939 16.038C16.943 16.05 16.945 16.062 16.945 16.074C16.945 16.11 16.931 16.14 16.903 16.164C16.879 16.188 16.851 16.2 16.819 16.2H16.183C16.135 16.2 16.097 16.188 16.069 16.164C16.041 16.14 16.019 16.116 16.003 16.092L15.043 14.736L14.101 16.092C14.085 16.116 14.063 16.14 14.035 16.164C14.007 16.188 13.967 16.2 13.915 16.2H13.309Z" fill="#EDEFF3"/>
</g>
<defs>
<clipPath id="clip0_1_16944">
<rect width="24" height="24" fill="white"/>
</clipPath>
</defs>
</svg>
