<svg width="24" height="24" viewBox="0 0 24 24" fill="none" xmlns="http://www.w3.org/2000/svg">
<g clip-path="url(#clip0_1_16876)">
<path d="M8.59289 3.12598H22.7429C23.1521 3.12598 23.4842 3.45818 23.4842 3.8673V22.7434C23.4842 23.1526 23.152 23.4848 22.7429 23.4848H8.59289C8.18372 23.4848 7.85156 23.1526 7.85156 22.7434V3.8673C7.85156 3.45813 8.18377 3.12598 8.59289 3.12598Z" fill="#8A96BF"/>
<path fill-rule="evenodd" clip-rule="evenodd" d="M7.85156 22.7434V7.72057C7.85156 7.40159 7.96528 7.12709 8.1908 6.90157L11.6272 3.46521C11.8528 3.23965 12.1273 3.12598 12.4462 3.12598H22.7429C23.001 3.12598 23.2116 3.33654 23.2116 3.59473V22.6496C23.2116 22.9594 22.9589 23.2121 22.6491 23.2121H8.32031C8.06222 23.2121 7.85156 23.0016 7.85156 22.7434Z" fill="#A8B4DB"/>
<path fill-rule="evenodd" clip-rule="evenodd" d="M5.24219 20.1331V5.11027C5.24219 4.79128 5.35591 4.51678 5.58142 4.29127L9.01783 0.854859C9.24339 0.629297 9.51789 0.515625 9.83683 0.515625H20.1335C20.5418 0.515625 20.8749 0.848672 20.8749 1.25695V20.1331C20.8749 20.5414 20.5418 20.8744 20.1335 20.8744H5.98356C5.57523 20.8744 5.24219 20.5414 5.24219 20.1331Z" fill="#8A96BF"/>
<path fill-rule="evenodd" clip-rule="evenodd" d="M5.24219 20.1331V5.11027C5.24219 4.79128 5.35591 4.51678 5.58142 4.29127L9.01783 0.854859C9.24339 0.629344 9.51789 0.515625 9.83683 0.515625H20.1335C20.3917 0.515625 20.6022 0.726187 20.6022 0.984375V20.0393C20.6022 20.3491 20.3495 20.6018 20.0397 20.6018H5.71094C5.45284 20.6018 5.24219 20.3913 5.24219 20.1331Z" fill="#D2DBFA"/>
<path fill-rule="evenodd" clip-rule="evenodd" d="M9.01788 0.854859C9.24344 0.629297 9.51794 0.515625 9.83688 0.515625H10.1309C9.70947 0.689484 9.41092 1.10527 9.41092 1.58752V3.94317C9.41092 4.35141 9.07797 4.68441 8.66973 4.68441H6.31408C5.83192 4.68441 5.41605 4.98295 5.24219 5.40436V5.11036C5.24219 4.79138 5.35591 4.51688 5.58142 4.29136L9.01788 0.854859Z" fill="#8A96BF"/>
<path fill-rule="evenodd" clip-rule="evenodd" d="M9.01788 0.854859C9.24344 0.629297 9.51794 0.515625 9.83688 0.515625H10.1309C9.77247 0.582 9.15789 0.924938 9.15789 1.58752V3.94317C9.15789 4.21177 8.93833 4.43138 8.66973 4.43138H6.31408C5.995 4.43138 5.43733 4.56197 5.24219 5.40436V5.11036C5.24219 4.79138 5.35591 4.51688 5.58142 4.29136L9.01788 0.854859Z" fill="#A8B4DB"/>
<path d="M1.25695 10.8613H17.5231C17.9323 10.8613 18.2645 11.1935 18.2645 11.6027V17.523C18.2645 17.9322 17.9323 18.2643 17.5231 18.2643H1.257C0.847828 18.2643 0.515625 17.9321 0.515625 17.523V11.6027C0.515625 11.1935 0.847828 10.8613 1.25695 10.8613Z" fill="#16AAB3"/>
<path fill-rule="evenodd" clip-rule="evenodd" d="M0.537422 17.7013C0.523219 17.6441 0.515625 17.5844 0.515625 17.523V11.6027C0.515625 11.1944 0.848625 10.8613 1.25695 10.8613H17.2327C17.4908 10.8613 17.7014 11.0719 17.7014 11.3301V17.1388C17.7014 17.4485 17.4487 17.7013 17.1389 17.7013H0.537422Z" fill="#2AD4CA"/>
<path d="M4.144 16.2C4.104 16.2 4.07 16.186 4.042 16.158C4.014 16.13 4 16.096 4 16.056V12.15C4 12.106 4.014 12.07 4.042 12.042C4.07 12.014 4.104 12 4.144 12H5.698C6.182 12 6.564 12.112 6.844 12.336C7.124 12.56 7.264 12.886 7.264 13.314C7.264 13.61 7.19 13.856 7.042 14.052C6.898 14.248 6.704 14.39 6.46 14.478L7.336 16.008C7.348 16.032 7.354 16.054 7.354 16.074C7.354 16.11 7.34 16.14 7.312 16.164C7.288 16.188 7.26 16.2 7.228 16.2H6.682C6.614 16.2 6.562 16.182 6.526 16.146C6.49 16.11 6.462 16.074 6.442 16.038L5.668 14.616H4.834V16.056C4.834 16.096 4.82 16.13 4.792 16.158C4.768 16.186 4.734 16.2 4.69 16.2H4.144ZM4.834 13.938H5.68C5.924 13.938 6.106 13.884 6.226 13.776C6.346 13.664 6.406 13.508 6.406 13.308C6.406 13.108 6.346 12.952 6.226 12.84C6.11 12.724 5.928 12.666 5.68 12.666H4.834V13.938Z" fill="#EDEFF3"/>
<path d="M7.77911 16.2C7.74711 16.2 7.71711 16.188 7.68911 16.164C7.66511 16.14 7.65311 16.11 7.65311 16.074C7.65311 16.058 7.65711 16.04 7.66511 16.02L9.11111 12.15C9.12311 12.11 9.14511 12.076 9.17711 12.048C9.21311 12.016 9.26111 12 9.32111 12H9.97511C10.0351 12 10.0811 12.016 10.1131 12.048C10.1451 12.076 10.1691 12.11 10.1851 12.15L11.6311 16.02C11.6351 16.04 11.6371 16.058 11.6371 16.074C11.6371 16.11 11.6251 16.14 11.6011 16.164C11.5771 16.188 11.5491 16.2 11.5171 16.2H10.9951C10.9391 16.2 10.8971 16.188 10.8691 16.164C10.8451 16.136 10.8291 16.11 10.8211 16.086L10.5391 15.354H8.75711L8.47511 16.086C8.46711 16.11 8.44911 16.136 8.42111 16.164C8.39711 16.188 8.35711 16.2 8.30111 16.2H7.77911ZM8.96711 14.664H10.3291L9.64511 12.81L8.96711 14.664Z" fill="#EDEFF3"/>
<path d="M12.3413 16.2C12.3013 16.2 12.2673 16.186 12.2393 16.158C12.2113 16.13 12.1973 16.096 12.1973 16.056V12.15C12.1973 12.106 12.2113 12.07 12.2393 12.042C12.2673 12.014 12.3013 12 12.3413 12H13.8953C14.3793 12 14.7613 12.112 15.0413 12.336C15.3213 12.56 15.4613 12.886 15.4613 13.314C15.4613 13.61 15.3873 13.856 15.2393 14.052C15.0953 14.248 14.9013 14.39 14.6573 14.478L15.5333 16.008C15.5453 16.032 15.5513 16.054 15.5513 16.074C15.5513 16.11 15.5373 16.14 15.5093 16.164C15.4853 16.188 15.4573 16.2 15.4253 16.2H14.8793C14.8113 16.2 14.7593 16.182 14.7233 16.146C14.6873 16.11 14.6593 16.074 14.6393 16.038L13.8653 14.616H13.0313V16.056C13.0313 16.096 13.0173 16.13 12.9893 16.158C12.9653 16.186 12.9313 16.2 12.8873 16.2H12.3413ZM13.0313 13.938H13.8773C14.1213 13.938 14.3033 13.884 14.4233 13.776C14.5433 13.664 14.6033 13.508 14.6033 13.308C14.6033 13.108 14.5433 12.952 14.4233 12.84C14.3073 12.724 14.1253 12.666 13.8773 12.666H13.0313V13.938Z" fill="#EDEFF3"/>
</g>
<defs>
<clipPath id="clip0_1_16876">
<rect width="24" height="24" fill="white"/>
</clipPath>
</defs>
</svg>
