<svg width="24" height="24" viewBox="0 0 24 24" fill="none" xmlns="http://www.w3.org/2000/svg">
<g clip-path="url(#clip0_1_16956)">
<path d="M22.7429 3.12598H8.59289C8.18347 3.12598 7.85156 3.45788 7.85156 3.8673V22.7434C7.85156 23.1529 8.18347 23.4848 8.59289 23.4848H22.7429C23.1523 23.4848 23.4842 23.1529 23.4842 22.7434V3.8673C23.4842 3.45788 23.1523 3.12598 22.7429 3.12598Z" fill="#8A96BF"/>
<path fill-rule="evenodd" clip-rule="evenodd" d="M7.85156 22.7434V7.72057C7.85156 7.40159 7.96528 7.12709 8.1908 6.90157L11.6272 3.46521C11.8528 3.2397 12.1273 3.12598 12.4462 3.12598H22.7429C23.001 3.12598 23.2116 3.33654 23.2116 3.59473V22.6496C23.2116 22.9594 22.9589 23.2121 22.6491 23.2121H8.32031C8.06222 23.2121 7.85156 23.0015 7.85156 22.7434V22.7434Z" fill="#A8B4DB"/>
<path fill-rule="evenodd" clip-rule="evenodd" d="M5.24223 20.133V5.11022C5.24223 4.79123 5.35595 4.51673 5.58147 4.29122L9.01788 0.854859C9.24339 0.629297 9.51794 0.515625 9.83687 0.515625H20.1335C20.5419 0.515625 20.8749 0.848625 20.8749 1.25695V20.133C20.8749 20.5414 20.5419 20.8744 20.1335 20.8744H5.98356C5.57523 20.8744 5.24223 20.5414 5.24223 20.133Z" fill="#8A96BF"/>
<path fill-rule="evenodd" clip-rule="evenodd" d="M5.24219 20.133V5.11022C5.24219 4.79123 5.35591 4.51673 5.58142 4.29122L9.01783 0.854859C9.24339 0.629297 9.51789 0.515625 9.83683 0.515625H20.1335C20.3917 0.515625 20.6022 0.726187 20.6022 0.984375V20.0393C20.6022 20.3491 20.3495 20.6018 20.0397 20.6018H5.71094C5.45284 20.6018 5.24219 20.3912 5.24219 20.133Z" fill="#D2DBFA"/>
<path fill-rule="evenodd" clip-rule="evenodd" d="M9.01788 0.854859C9.24339 0.629297 9.51794 0.515625 9.83688 0.515625H10.1309C9.70947 0.689484 9.41092 1.10527 9.41092 1.58752V3.94313C9.41092 4.35136 9.07797 4.68436 8.66973 4.68436H6.31408C5.83192 4.68436 5.41605 4.98291 5.24219 5.40431V5.11031C5.24219 4.79133 5.35591 4.51683 5.58142 4.29131L9.01788 0.854859Z" fill="#8A96BF"/>
<path fill-rule="evenodd" clip-rule="evenodd" d="M9.01788 0.854859C9.24339 0.629297 9.51794 0.515625 9.83688 0.515625H10.1309C9.77247 0.582 9.15789 0.924937 9.15789 1.58752V3.94312C9.15789 4.21172 8.93833 4.43128 8.66973 4.43128H6.31408C5.995 4.43128 5.43733 4.56187 5.24219 5.40427V5.11027C5.24219 4.79128 5.35591 4.51678 5.58142 4.29127L9.01788 0.854859Z" fill="#A8B4DB"/>
<path d="M1.25695 10.8613H17.5231C17.9323 10.8613 18.2645 11.1935 18.2645 11.6027V17.523C18.2645 17.9322 17.9323 18.2643 17.5231 18.2643H1.257C0.847828 18.2643 0.515625 17.9321 0.515625 17.523V11.6027C0.515625 11.1935 0.847828 10.8613 1.25695 10.8613Z" fill="#DBA400"/>
<path fill-rule="evenodd" clip-rule="evenodd" d="M0.537422 17.7013C0.523219 17.6441 0.515625 17.5844 0.515625 17.523V11.6027C0.515625 11.1944 0.848625 10.8613 1.25695 10.8613H17.2327C17.4908 10.8613 17.7014 11.0719 17.7014 11.3301V17.1388C17.7014 17.4485 17.4487 17.7013 17.1389 17.7013H0.537422Z" fill="#F8BD09"/>
<path fill-rule="evenodd" clip-rule="evenodd" d="M6.95043 15.0947C7.06336 15.3342 7.0664 15.6032 6.95915 15.8733C6.81722 16.2304 6.45548 16.4794 5.94046 16.574C5.80007 16.5998 5.64571 16.614 5.48568 16.614C4.94315 16.614 4.33303 16.4532 3.96276 16.0501C3.82261 15.8978 3.83268 15.6605 3.98522 15.5204C4.13775 15.3803 4.37493 15.3906 4.51509 15.5429C4.74534 15.7935 5.32373 15.9253 5.80453 15.8367C6.09295 15.7833 6.23132 15.6741 6.26217 15.5963C6.30586 15.4866 6.28218 15.4364 6.27215 15.4148C6.24895 15.3655 6.13411 15.1927 5.63039 15.031C5.5372 15.001 5.43379 14.9727 5.32443 14.9428C4.97048 14.8453 4.56928 14.7351 4.28568 14.5036C4.01676 14.2843 3.86676 13.9951 3.86334 13.6893C3.86001 13.3864 3.99782 13.1007 4.25137 12.8842C4.84997 12.3731 6.0885 12.3858 6.75192 12.9104C6.91443 13.0388 6.94204 13.2744 6.81361 13.4371C6.68517 13.5993 6.44934 13.627 6.28692 13.4986C5.91407 13.2043 5.06025 13.1794 4.7384 13.4546C4.65698 13.5239 4.61254 13.6044 4.61339 13.681C4.61456 13.7827 4.69373 13.8685 4.75997 13.9224C4.92093 14.0535 5.241 14.1416 5.52332 14.2194C5.6354 14.2505 5.75132 14.2822 5.85984 14.317C6.42562 14.4985 6.79261 14.7603 6.95053 15.0947L6.95043 15.0947ZM14.9137 14.5632V15.9217C14.9137 16.0533 14.8443 16.1757 14.7309 16.2431C14.2216 16.5473 13.8198 16.6101 13.3366 16.6128C12.2044 16.6128 11.2849 15.6934 11.2849 14.5632C11.2849 13.433 12.2045 12.5133 13.3347 12.5133C13.7862 12.5133 14.2248 12.6019 14.6029 12.7696C14.7922 12.8536 14.8776 13.0747 14.7936 13.2641C14.7097 13.4537 14.488 13.5388 14.2987 13.4551C14.0157 13.3294 13.6823 13.2634 13.3346 13.2634C12.6178 13.2634 12.0348 13.8465 12.0348 14.5632C12.0348 15.2799 12.6179 15.863 13.3346 15.863C13.6499 15.8612 13.8837 15.8326 14.1636 15.6985V14.938H13.275C13.0679 14.938 12.9001 14.7703 12.9001 14.5632C12.9001 14.3561 13.0679 14.1881 13.275 14.1881H14.5387C14.7457 14.1881 14.9137 14.3559 14.9137 14.5632ZM11.0844 13.043L9.56493 16.3927C9.50428 16.5268 9.37064 16.6129 9.2235 16.6129C9.07636 16.6129 8.94281 16.5268 8.88197 16.3927L7.36256 13.043C7.27701 12.8545 7.36059 12.6323 7.54922 12.5467C7.73779 12.4613 7.95993 12.5448 8.04562 12.733L9.2235 15.3301L10.4014 12.733C10.487 12.5448 10.7092 12.4613 10.8979 12.5467C11.0865 12.6323 11.17 12.8545 11.0844 13.043Z" fill="#EDEFF3"/>
</g>
<defs>
<clipPath id="clip0_1_16956">
<rect width="24" height="24" fill="white"/>
</clipPath>
</defs>
</svg>
