<svg width="24" height="24" viewBox="0 0 24 24" fill="none" xmlns="http://www.w3.org/2000/svg">
<g clip-path="url(#clip0_1_16865)">
<path d="M8.59289 3.12598H22.7429C23.1521 3.12598 23.4842 3.45818 23.4842 3.8673V22.7434C23.4842 23.1526 23.152 23.4848 22.7429 23.4848H8.59289C8.18372 23.4848 7.85156 23.1526 7.85156 22.7434V3.8673C7.85156 3.45813 8.18377 3.12598 8.59289 3.12598Z" fill="#8A96BF"/>
<path fill-rule="evenodd" clip-rule="evenodd" d="M7.85156 22.7434V7.72057C7.85156 7.40159 7.96528 7.12709 8.1908 6.90157L11.6272 3.46521C11.8528 3.23965 12.1273 3.12598 12.4462 3.12598H22.7429C23.001 3.12598 23.2116 3.33654 23.2116 3.59473V22.6496C23.2116 22.9594 22.9589 23.2121 22.6491 23.2121H8.32031C8.06222 23.2121 7.85156 23.0016 7.85156 22.7434Z" fill="#A8B4DB"/>
<path fill-rule="evenodd" clip-rule="evenodd" d="M5.24219 20.1331V5.11027C5.24219 4.79128 5.35591 4.51678 5.58142 4.29127L9.01783 0.854859C9.24339 0.629297 9.51789 0.515625 9.83683 0.515625H20.1335C20.5418 0.515625 20.8749 0.848672 20.8749 1.25695V20.1331C20.8749 20.5414 20.5418 20.8744 20.1335 20.8744H5.98356C5.57523 20.8744 5.24219 20.5414 5.24219 20.1331Z" fill="#8A96BF"/>
<path fill-rule="evenodd" clip-rule="evenodd" d="M5.24219 20.1331V5.11027C5.24219 4.79128 5.35591 4.51678 5.58142 4.29127L9.01783 0.854859C9.24339 0.629344 9.51789 0.515625 9.83683 0.515625H20.1335C20.3917 0.515625 20.6022 0.726187 20.6022 0.984375V20.0393C20.6022 20.3491 20.3495 20.6018 20.0397 20.6018H5.71094C5.45284 20.6018 5.24219 20.3913 5.24219 20.1331Z" fill="#D2DBFA"/>
<path fill-rule="evenodd" clip-rule="evenodd" d="M9.01788 0.854859C9.24344 0.629297 9.51794 0.515625 9.83688 0.515625H10.1309C9.70947 0.689484 9.41092 1.10527 9.41092 1.58752V3.94317C9.41092 4.35141 9.07797 4.68441 8.66973 4.68441H6.31408C5.83192 4.68441 5.41605 4.98295 5.24219 5.40436V5.11036C5.24219 4.79138 5.35591 4.51688 5.58142 4.29136L9.01788 0.854859Z" fill="#8A96BF"/>
<path fill-rule="evenodd" clip-rule="evenodd" d="M9.01788 0.854859C9.24344 0.629297 9.51794 0.515625 9.83688 0.515625H10.1309C9.77247 0.582 9.15789 0.924938 9.15789 1.58752V3.94317C9.15789 4.21177 8.93833 4.43138 8.66973 4.43138H6.31408C5.995 4.43138 5.43733 4.56197 5.24219 5.40436V5.11036C5.24219 4.79138 5.35591 4.51688 5.58142 4.29136L9.01788 0.854859Z" fill="#A8B4DB"/>
<path d="M1.25695 10.8613H17.5231C17.9323 10.8613 18.2645 11.1935 18.2645 11.6027V17.523C18.2645 17.9322 17.9323 18.2643 17.5231 18.2643H1.257C0.847828 18.2643 0.515625 17.9321 0.515625 17.523V11.6027C0.515625 11.1935 0.847828 10.8613 1.25695 10.8613Z" fill="#16B342"/>
<path fill-rule="evenodd" clip-rule="evenodd" d="M0.537422 17.7013C0.523219 17.6441 0.515625 17.5844 0.515625 17.523V11.6027C0.515625 11.1944 0.848625 10.8613 1.25695 10.8613H17.2327C17.4908 10.8613 17.7014 11.0719 17.7014 11.3301V17.1388C17.7014 17.4485 17.4487 17.7013 17.1389 17.7013H0.537422Z" fill="#2AD45A"/>
<path fill-rule="evenodd" clip-rule="evenodd" d="M8.23687 16.2373C8.23687 16.4444 8.06896 16.6123 7.86187 16.6123H5.25782C5.11462 16.6123 4.98393 16.5308 4.92098 16.4021C4.85802 16.2735 4.87387 16.1202 4.96176 16.0072L7.09537 13.2627H5.25782C5.05073 13.2627 4.88282 13.0948 4.88282 12.8877C4.88282 12.6806 5.05073 12.5127 5.25782 12.5127H7.86187C8.00507 12.5127 8.1358 12.5943 8.19871 12.7229C8.26166 12.8516 8.24582 13.0048 8.15793 13.1179L6.02432 15.8623H7.86187C8.06896 15.8623 8.23687 16.0302 8.23687 16.2373ZM13.8952 13.873C13.8952 14.623 13.285 15.2333 12.535 15.2333H11.486V16.2373C11.486 16.4444 11.3181 16.6123 11.111 16.6123C10.9039 16.6123 10.736 16.4444 10.736 16.2373V12.8877C10.736 12.6806 10.9039 12.5127 11.111 12.5127H12.535C13.285 12.5127 13.8952 13.123 13.8952 13.873V13.873ZM13.1452 13.8729C13.1452 13.5364 12.8715 13.2626 12.535 13.2626H11.486V14.4832H12.535C12.8715 14.4832 13.1452 14.2094 13.1452 13.8729V13.8729ZM9.48641 12.5127C9.27932 12.5127 9.11141 12.6806 9.11141 12.8877V16.2373C9.11141 16.4444 9.27932 16.6123 9.48641 16.6123C9.69351 16.6123 9.86141 16.4444 9.86141 16.2373V12.8877C9.86141 12.6806 9.69351 12.5127 9.48641 12.5127Z" fill="#EDEFF3"/>
</g>
<defs>
<clipPath id="clip0_1_16865">
<rect width="24" height="24" fill="white"/>
</clipPath>
</defs>
</svg>
