<svg width="19" height="21" viewBox="0 0 19 21" fill="none" xmlns="http://www.w3.org/2000/svg">
<path d="M8 12C8 12.5523 8.44772 13 9 13C9.55229 13 10 12.5523 10 12H8ZM10 8C10 7.44772 9.55229 7 9 7C8.44772 7 8 7.44772 8 8H10ZM17.2929 5.70711C17.6834 6.09763 18.3166 6.09763 18.7071 5.70711C19.0976 5.31658 19.0976 4.68342 18.7071 4.29289L17.2929 5.70711ZM16.7071 2.29289C16.3166 1.90237 15.6834 1.90237 15.2929 2.29289C14.9024 2.68342 14.9024 3.31658 15.2929 3.70711L16.7071 2.29289ZM7 0C6.44772 0 6 0.447715 6 1C6 1.55228 6.44772 2 7 2V0ZM11 2C11.5523 2 12 1.55228 12 1C12 0.447715 11.5523 0 11 0V2ZM9 19C5.13401 19 2 15.866 2 12H0C0 16.9706 4.02944 21 9 21V19ZM2 12C2 8.13401 5.13401 5 9 5V3C4.02944 3 0 7.02944 0 12H2ZM9 5C12.866 5 16 8.13401 16 12H18C18 7.02944 13.9706 3 9 3V5ZM16 12C16 15.866 12.866 19 9 19V21C13.9706 21 18 16.9706 18 12H16ZM10 12V8H8V12H10ZM18.7071 4.29289L16.7071 2.29289L15.2929 3.70711L17.2929 5.70711L18.7071 4.29289ZM7 2H11V0H7V2Z" fill="#03B113"/>
</svg>
