<svg width="40" height="40" viewBox="0 0 40 40" fill="none" xmlns="http://www.w3.org/2000/svg">
<path d="M27.9164 5.93325V3.33325C27.9164 2.64992 27.3497 2.08325 26.6664 2.08325C25.9831 2.08325 25.4164 2.64992 25.4164 3.33325V5.83325H14.5831V3.33325C14.5831 2.64992 14.0164 2.08325 13.3331 2.08325C12.6497 2.08325 12.0831 2.64992 12.0831 3.33325V5.93325C7.58306 6.34991 5.39973 9.03325 5.0664 13.0166C5.03306 13.4999 5.43306 13.8999 5.89973 13.8999H34.0997C34.5831 13.8999 34.9831 13.4832 34.9331 13.0166C34.5997 9.03325 32.4164 6.34991 27.9164 5.93325Z" fill="#1E63E9"/>
<path d="M27.9164 5.93325V3.33325C27.9164 2.64992 27.3497 2.08325 26.6664 2.08325C25.9831 2.08325 25.4164 2.64992 25.4164 3.33325V5.83325H14.5831V3.33325C14.5831 2.64992 14.0164 2.08325 13.3331 2.08325C12.6497 2.08325 12.0831 2.64992 12.0831 3.33325V5.93325C7.58306 6.34991 5.39973 9.03325 5.0664 13.0166C5.03306 13.4999 5.43306 13.8999 5.89973 13.8999H34.0997C34.5831 13.8999 34.9831 13.4832 34.9331 13.0166C34.5997 9.03325 32.4164 6.34991 27.9164 5.93325Z" fill="url(#paint0_radial_1718_20655)" fill-opacity="0.6"/>
<g opacity="0.4">
<path d="M33.3333 16.3999C34.25 16.3999 35 17.1499 35 18.0666V28.3332C35 33.3332 32.5 36.6666 26.6667 36.6666H13.3333C7.5 36.6666 5 33.3332 5 28.3332V18.0666C5 17.1499 5.75 16.3999 6.66667 16.3999H33.3333Z" fill="#1E63E9"/>
<path d="M33.3333 16.3999C34.25 16.3999 35 17.1499 35 18.0666V28.3332C35 33.3332 32.5 36.6666 26.6667 36.6666H13.3333C7.5 36.6666 5 33.3332 5 28.3332V18.0666C5 17.1499 5.75 16.3999 6.66667 16.3999H33.3333Z" fill="url(#paint1_radial_1718_20655)" fill-opacity="0.6"/>
</g>
<path d="M14.1667 25C13.7333 25 13.3 24.8166 12.9833 24.5166C12.6833 24.1999 12.5 23.7666 12.5 23.3333C12.5 22.9 12.6833 22.4666 12.9833 22.15C13.45 21.6833 14.1833 21.5333 14.8 21.7999C15.0167 21.8833 15.2 22 15.35 22.15C15.65 22.4666 15.8333 22.9 15.8333 23.3333C15.8333 23.7666 15.65 24.1999 15.35 24.5166C15.0333 24.8166 14.6 25 14.1667 25Z" fill="#1E63E9"/>
<path d="M14.1667 25C13.7333 25 13.3 24.8166 12.9833 24.5166C12.6833 24.1999 12.5 23.7666 12.5 23.3333C12.5 22.9 12.6833 22.4666 12.9833 22.15C13.45 21.6833 14.1833 21.5333 14.8 21.7999C15.0167 21.8833 15.2 22 15.35 22.15C15.65 22.4666 15.8333 22.9 15.8333 23.3333C15.8333 23.7666 15.65 24.1999 15.35 24.5166C15.0333 24.8166 14.6 25 14.1667 25Z" fill="url(#paint2_radial_1718_20655)" fill-opacity="0.6"/>
<path d="M20.0007 25C19.5673 25 19.134 24.8166 18.8173 24.5166C18.5173 24.1999 18.334 23.7666 18.334 23.3333C18.334 22.9 18.5173 22.4666 18.8173 22.15C18.9673 22 19.1506 21.8833 19.3673 21.7999C19.984 21.5333 20.7173 21.6833 21.184 22.15C21.484 22.4666 21.6673 22.9 21.6673 23.3333C21.6673 23.7666 21.484 24.1999 21.184 24.5166C21.1006 24.5833 21.0173 24.6499 20.934 24.7166C20.834 24.7833 20.734 24.8333 20.634 24.8666C20.534 24.9166 20.434 24.95 20.334 24.9666C20.2173 24.9833 20.1173 25 20.0007 25Z" fill="#1E63E9"/>
<path d="M20.0007 25C19.5673 25 19.134 24.8166 18.8173 24.5166C18.5173 24.1999 18.334 23.7666 18.334 23.3333C18.334 22.9 18.5173 22.4666 18.8173 22.15C18.9673 22 19.1506 21.8833 19.3673 21.7999C19.984 21.5333 20.7173 21.6833 21.184 22.15C21.484 22.4666 21.6673 22.9 21.6673 23.3333C21.6673 23.7666 21.484 24.1999 21.184 24.5166C21.1006 24.5833 21.0173 24.6499 20.934 24.7166C20.834 24.7833 20.734 24.8333 20.634 24.8666C20.534 24.9166 20.434 24.95 20.334 24.9666C20.2173 24.9833 20.1173 25 20.0007 25Z" fill="url(#paint3_radial_1718_20655)" fill-opacity="0.6"/>
<path d="M25.8327 25.0001C25.3993 25.0001 24.966 24.8168 24.6494 24.5168C24.3494 24.2001 24.166 23.7668 24.166 23.3334C24.166 22.9001 24.3494 22.4668 24.6494 22.1501C24.816 22.0001 24.9827 21.8834 25.1993 21.8001C25.4993 21.6667 25.8327 21.6334 26.166 21.7001C26.266 21.7167 26.366 21.7501 26.466 21.8001C26.566 21.8334 26.666 21.8835 26.766 21.9501C26.8494 22.0168 26.9327 22.0834 27.016 22.1501C27.316 22.4668 27.4993 22.9001 27.4993 23.3334C27.4993 23.7668 27.316 24.2001 27.016 24.5168C26.9327 24.5834 26.8494 24.6501 26.766 24.7167C26.666 24.7834 26.566 24.8335 26.466 24.8668C26.366 24.9168 26.266 24.9501 26.166 24.9668C26.0494 24.9835 25.9327 25.0001 25.8327 25.0001Z" fill="#1E63E9"/>
<path d="M25.8327 25.0001C25.3993 25.0001 24.966 24.8168 24.6494 24.5168C24.3494 24.2001 24.166 23.7668 24.166 23.3334C24.166 22.9001 24.3494 22.4668 24.6494 22.1501C24.816 22.0001 24.9827 21.8834 25.1993 21.8001C25.4993 21.6667 25.8327 21.6334 26.166 21.7001C26.266 21.7167 26.366 21.7501 26.466 21.8001C26.566 21.8334 26.666 21.8835 26.766 21.9501C26.8494 22.0168 26.9327 22.0834 27.016 22.1501C27.316 22.4668 27.4993 22.9001 27.4993 23.3334C27.4993 23.7668 27.316 24.2001 27.016 24.5168C26.9327 24.5834 26.8494 24.6501 26.766 24.7167C26.666 24.7834 26.566 24.8335 26.466 24.8668C26.366 24.9168 26.266 24.9501 26.166 24.9668C26.0494 24.9835 25.9327 25.0001 25.8327 25.0001Z" fill="url(#paint4_radial_1718_20655)" fill-opacity="0.6"/>
<path d="M14.1667 30.8334C13.95 30.8334 13.7333 30.7834 13.5333 30.7C13.3167 30.6167 13.15 30.5 12.9833 30.35C12.6833 30.0333 12.5 29.6 12.5 29.1667C12.5 28.7334 12.6833 28.3 12.9833 27.9834C13.15 27.8334 13.3167 27.7167 13.5333 27.6333C13.8333 27.5 14.1667 27.4667 14.5 27.5333C14.6 27.55 14.7 27.5833 14.8 27.6333C14.9 27.6667 15 27.7167 15.1 27.7834C15.1833 27.85 15.2667 27.9167 15.35 27.9834C15.65 28.3 15.8333 28.7334 15.8333 29.1667C15.8333 29.6 15.65 30.0333 15.35 30.35C15.2667 30.4167 15.1833 30.5 15.1 30.55C15 30.6167 14.9 30.6667 14.8 30.7C14.7 30.75 14.6 30.7834 14.5 30.8C14.3833 30.8167 14.2833 30.8334 14.1667 30.8334Z" fill="#1E63E9"/>
<path d="M14.1667 30.8334C13.95 30.8334 13.7333 30.7834 13.5333 30.7C13.3167 30.6167 13.15 30.5 12.9833 30.35C12.6833 30.0333 12.5 29.6 12.5 29.1667C12.5 28.7334 12.6833 28.3 12.9833 27.9834C13.15 27.8334 13.3167 27.7167 13.5333 27.6333C13.8333 27.5 14.1667 27.4667 14.5 27.5333C14.6 27.55 14.7 27.5833 14.8 27.6333C14.9 27.6667 15 27.7167 15.1 27.7834C15.1833 27.85 15.2667 27.9167 15.35 27.9834C15.65 28.3 15.8333 28.7334 15.8333 29.1667C15.8333 29.6 15.65 30.0333 15.35 30.35C15.2667 30.4167 15.1833 30.5 15.1 30.55C15 30.6167 14.9 30.6667 14.8 30.7C14.7 30.75 14.6 30.7834 14.5 30.8C14.3833 30.8167 14.2833 30.8334 14.1667 30.8334Z" fill="url(#paint5_radial_1718_20655)" fill-opacity="0.6"/>
<path d="M20.0007 30.8332C19.5673 30.8332 19.134 30.6499 18.8173 30.3499C18.5173 30.0332 18.334 29.5999 18.334 29.1666C18.334 28.7332 18.5173 28.2999 18.8173 27.9833C19.434 27.3666 20.5673 27.3666 21.184 27.9833C21.484 28.2999 21.6673 28.7332 21.6673 29.1666C21.6673 29.5999 21.484 30.0332 21.184 30.3499C20.8673 30.6499 20.434 30.8332 20.0007 30.8332Z" fill="#1E63E9"/>
<path d="M20.0007 30.8332C19.5673 30.8332 19.134 30.6499 18.8173 30.3499C18.5173 30.0332 18.334 29.5999 18.334 29.1666C18.334 28.7332 18.5173 28.2999 18.8173 27.9833C19.434 27.3666 20.5673 27.3666 21.184 27.9833C21.484 28.2999 21.6673 28.7332 21.6673 29.1666C21.6673 29.5999 21.484 30.0332 21.184 30.3499C20.8673 30.6499 20.434 30.8332 20.0007 30.8332Z" fill="url(#paint6_radial_1718_20655)" fill-opacity="0.6"/>
<path d="M25.8327 30.8332C25.3993 30.8332 24.966 30.6499 24.6494 30.3499C24.3494 30.0332 24.166 29.5999 24.166 29.1666C24.166 28.7332 24.3494 28.2999 24.6494 27.9833C25.266 27.3666 26.3993 27.3666 27.016 27.9833C27.316 28.2999 27.4993 28.7332 27.4993 29.1666C27.4993 29.5999 27.316 30.0332 27.016 30.3499C26.6993 30.6499 26.266 30.8332 25.8327 30.8332Z" fill="#1E63E9"/>
<path d="M25.8327 30.8332C25.3993 30.8332 24.966 30.6499 24.6494 30.3499C24.3494 30.0332 24.166 29.5999 24.166 29.1666C24.166 28.7332 24.3494 28.2999 24.6494 27.9833C25.266 27.3666 26.3993 27.3666 27.016 27.9833C27.316 28.2999 27.4993 28.7332 27.4993 29.1666C27.4993 29.5999 27.316 30.0332 27.016 30.3499C26.6993 30.6499 26.266 30.8332 25.8327 30.8332Z" fill="url(#paint7_radial_1718_20655)" fill-opacity="0.6"/>
<defs>
<radialGradient id="paint0_radial_1718_20655" cx="0" cy="0" r="1" gradientUnits="userSpaceOnUse" gradientTransform="translate(14.614 4.40784) rotate(30.3593) scale(14.7561 13.8752)">
<stop stop-color="white"/>
<stop offset="0.697917" stop-color="white" stop-opacity="0"/>
<stop offset="1" stop-color="white" stop-opacity="0"/>
</radialGradient>
<radialGradient id="paint1_radial_1718_20655" cx="0" cy="0" r="1" gradientUnits="userSpaceOnUse" gradientTransform="translate(14.5902 20.3868) rotate(45.0098) scale(18.0865 19.4981)">
<stop stop-color="white"/>
<stop offset="0.697917" stop-color="white" stop-opacity="0"/>
<stop offset="1" stop-color="white" stop-opacity="0"/>
</radialGradient>
<radialGradient id="paint2_radial_1718_20655" cx="0" cy="0" r="1" gradientUnits="userSpaceOnUse" gradientTransform="translate(13.5656 22.3238) rotate(55.9532) scale(2.53767 2.53819)">
<stop stop-color="white"/>
<stop offset="0.697917" stop-color="white" stop-opacity="0"/>
<stop offset="1" stop-color="white" stop-opacity="0"/>
</radialGradient>
<radialGradient id="paint3_radial_1718_20655" cx="0" cy="0" r="1" gradientUnits="userSpaceOnUse" gradientTransform="translate(19.3996 22.3238) rotate(55.9532) scale(2.53767 2.53819)">
<stop stop-color="white"/>
<stop offset="0.697917" stop-color="white" stop-opacity="0"/>
<stop offset="1" stop-color="white" stop-opacity="0"/>
</radialGradient>
<radialGradient id="paint4_radial_1718_20655" cx="0" cy="0" r="1" gradientUnits="userSpaceOnUse" gradientTransform="translate(25.2316 22.3225) rotate(55.968) scale(2.53864 2.53864)">
<stop stop-color="white"/>
<stop offset="0.697917" stop-color="white" stop-opacity="0"/>
<stop offset="1" stop-color="white" stop-opacity="0"/>
</radialGradient>
<radialGradient id="paint5_radial_1718_20655" cx="0" cy="0" r="1" gradientUnits="userSpaceOnUse" gradientTransform="translate(13.5656 28.1557) rotate(55.968) scale(2.53864 2.53864)">
<stop stop-color="white"/>
<stop offset="0.697917" stop-color="white" stop-opacity="0"/>
<stop offset="1" stop-color="white" stop-opacity="0"/>
</radialGradient>
<radialGradient id="paint6_radial_1718_20655" cx="0" cy="0" r="1" gradientUnits="userSpaceOnUse" gradientTransform="translate(19.3996 28.1724) rotate(55.801) scale(2.52774 2.53363)">
<stop stop-color="white"/>
<stop offset="0.697917" stop-color="white" stop-opacity="0"/>
<stop offset="1" stop-color="white" stop-opacity="0"/>
</radialGradient>
<radialGradient id="paint7_radial_1718_20655" cx="0" cy="0" r="1" gradientUnits="userSpaceOnUse" gradientTransform="translate(25.2316 28.1724) rotate(55.801) scale(2.52774 2.53363)">
<stop stop-color="white"/>
<stop offset="0.697917" stop-color="white" stop-opacity="0"/>
<stop offset="1" stop-color="white" stop-opacity="0"/>
</radialGradient>
</defs>
</svg>
