<svg width="24" height="24" viewBox="0 0 24 24" fill="none" xmlns="http://www.w3.org/2000/svg">
<path d="M11.6484 11.1016C9.66684 11.1016 8.05469 12.7137 8.05469 14.6953C8.05469 15.7635 8.52336 16.7242 9.26562 17.383V21.218C9.26562 21.4802 9.39707 21.7249 9.6157 21.8695C9.83441 22.0143 10.1109 22.0396 10.3522 21.9371L11.6092 21.4035L12.8663 21.9377C12.9644 21.9794 13.0683 22 13.1718 22C13.3229 22 13.4732 21.9562 13.6029 21.8704C13.8216 21.7257 13.9531 21.4809 13.9531 21.2188V17.4504C14.7405 16.7907 15.2422 15.8005 15.2422 14.6953C15.2422 12.7137 13.63 11.1016 11.6484 11.1016ZM12.3906 20.0379L11.915 19.8357C11.7198 19.7528 11.4993 19.7527 11.304 19.8356L10.8281 20.0377V18.1945C11.0917 18.2563 11.3663 18.2891 11.6484 18.2891C11.9028 18.2891 12.1511 18.2623 12.3906 18.2118V20.0379ZM11.6484 16.7266C10.5284 16.7266 9.61719 15.8154 9.61719 14.6953C9.61719 13.5753 10.5284 12.6641 11.6484 12.6641C12.7685 12.6641 13.6797 13.5753 13.6797 14.6953C13.6797 15.8154 12.7685 16.7266 11.6484 16.7266Z" fill="#888888"/>
<path d="M21.2188 13.8793H18.4844V4.51027C18.4844 3.12609 17.3583 2 15.9741 2H5.125C3.40188 2 2 3.40188 2 5.125V6.72223C2 7.15371 2.34977 7.50348 2.78125 7.50348H4.73438V16.4141C4.73438 17.6816 5.4907 18.8147 6.66125 19.3009C6.75926 19.3416 6.8607 19.3609 6.96062 19.3609C7.26691 19.3609 7.55758 19.1796 7.68242 18.8791C7.84793 18.4807 7.6591 18.0234 7.26062 17.8579C6.6752 17.6148 6.29688 17.048 6.29688 16.4141V7.50348H14.1875C14.619 7.50348 14.9688 7.15371 14.9688 6.72223V4.51027C14.9688 3.98766 15.3939 3.5625 15.9165 3.5625H15.9741C16.4967 3.5625 16.9219 3.98766 16.9219 4.51027V17.0288C16.9219 17.3641 16.9884 17.6839 17.1082 17.9766H16.2969C15.8654 17.9766 15.5156 18.3264 15.5156 18.7579C15.5156 19.1893 15.8654 19.5391 16.2969 19.5391H19.5C19.5035 19.5391 19.5069 19.5386 19.5104 19.5386C20.885 19.5273 22 18.4061 22 17.0288V14.6606C22 14.2291 21.6502 13.8793 21.2188 13.8793ZM13.4062 4.51027V5.94098H3.5625V5.125C3.5625 4.26344 4.26344 3.5625 5.125 3.5625H13.592C13.4723 3.85504 13.4062 4.17512 13.4062 4.51027ZM20.4375 17.0288C20.4375 17.5514 20.0123 17.9766 19.4897 17.9766H19.4321C18.9095 17.9766 18.4844 17.5514 18.4844 17.0288V15.4418H20.4375V17.0288Z" fill="#888888"/>
</svg>
