<svg width="40" height="40" viewBox="0 0 40 40" fill="none" xmlns="http://www.w3.org/2000/svg">
<path d="M36.6677 18.2832V21.7166C36.6677 22.6333 35.9343 23.3832 35.001 23.4165H31.7343C29.9343 23.4165 28.2843 22.0999 28.1343 20.2999C28.0343 19.2499 28.4343 18.2665 29.1343 17.5832C29.751 16.9499 30.601 16.5833 31.5343 16.5833H35.001C35.9343 16.6166 36.6677 17.3665 36.6677 18.2832Z" fill="#1E63E9"/>
<path d="M36.6677 18.2832V21.7166C36.6677 22.6333 35.9343 23.3832 35.001 23.4165H31.7343C29.9343 23.4165 28.2843 22.0999 28.1343 20.2999C28.0343 19.2499 28.4343 18.2665 29.1343 17.5832C29.751 16.9499 30.601 16.5833 31.5343 16.5833H35.001C35.9343 16.6166 36.6677 17.3665 36.6677 18.2832Z" fill="url(#paint0_radial_1718_29680)" fill-opacity="0.6"/>
<g opacity="0.4">
<path d="M29.134 17.5832C28.434 18.2666 28.034 19.2499 28.134 20.2999C28.284 22.0999 29.9339 23.4166 31.7339 23.4166H35.0007V25.8333C35.0007 30.8333 31.6673 34.1666 26.6673 34.1666H11.6673C6.66732 34.1666 3.33398 30.8333 3.33398 25.8333V14.1666C3.33398 9.63325 6.06732 6.46658 10.3173 5.93325C10.7507 5.86658 11.2007 5.83325 11.6673 5.83325H26.6673C27.1007 5.83325 27.5173 5.8499 27.9173 5.91656C32.2173 6.41657 35.0007 9.59992 35.0007 14.1666V16.5833H31.534C30.6006 16.5833 29.7506 16.9499 29.134 17.5832Z" fill="#1E63E9"/>
<path d="M29.134 17.5832C28.434 18.2666 28.034 19.2499 28.134 20.2999C28.284 22.0999 29.9339 23.4166 31.7339 23.4166H35.0007V25.8333C35.0007 30.8333 31.6673 34.1666 26.6673 34.1666H11.6673C6.66732 34.1666 3.33398 30.8333 3.33398 25.8333V14.1666C3.33398 9.63325 6.06732 6.46658 10.3173 5.93325C10.7507 5.86658 11.2007 5.83325 11.6673 5.83325H26.6673C27.1007 5.83325 27.5173 5.8499 27.9173 5.91656C32.2173 6.41657 35.0007 9.59992 35.0007 14.1666V16.5833H31.534C30.6006 16.5833 29.7506 16.9499 29.134 17.5832Z" fill="url(#paint1_radial_1718_29680)" fill-opacity="0.6"/>
</g>
<path d="M21.666 16.25H11.666C10.9827 16.25 10.416 15.6833 10.416 15C10.416 14.3167 10.9827 13.75 11.666 13.75H21.666C22.3493 13.75 22.916 14.3167 22.916 15C22.916 15.6833 22.3493 16.25 21.666 16.25Z" fill="#1E63E9"/>
<path d="M21.666 16.25H11.666C10.9827 16.25 10.416 15.6833 10.416 15C10.416 14.3167 10.9827 13.75 11.666 13.75H21.666C22.3493 13.75 22.916 14.3167 22.916 15C22.916 15.6833 22.3493 16.25 21.666 16.25Z" fill="url(#paint2_radial_1718_29680)" fill-opacity="0.6"/>
<defs>
<radialGradient id="paint0_radial_1718_29680" cx="0" cy="0" r="1" gradientUnits="userSpaceOnUse" gradientTransform="translate(30.8519 17.9275) rotate(49.8076) scale(5.64593 6.00107)">
<stop stop-color="white"/>
<stop offset="0.697917" stop-color="white" stop-opacity="0"/>
<stop offset="1" stop-color="white" stop-opacity="0"/>
</radialGradient>
<radialGradient id="paint1_radial_1718_29680" cx="0" cy="0" r="1" gradientUnits="userSpaceOnUse" gradientTransform="translate(13.4569 11.407) rotate(52.9554) scale(22.4045 23.2278)">
<stop stop-color="white"/>
<stop offset="0.697917" stop-color="white" stop-opacity="0"/>
<stop offset="1" stop-color="white" stop-opacity="0"/>
</radialGradient>
<radialGradient id="paint2_radial_1718_29680" cx="0" cy="0" r="1" gradientUnits="userSpaceOnUse" gradientTransform="translate(14.4119 14.2418) rotate(16.4969) scale(5.5566 3.26199)">
<stop stop-color="white"/>
<stop offset="0.697917" stop-color="white" stop-opacity="0"/>
<stop offset="1" stop-color="white" stop-opacity="0"/>
</radialGradient>
</defs>
</svg>
