<svg width="51" height="71" viewBox="0 0 51 71" fill="none" xmlns="http://www.w3.org/2000/svg">
<g opacity="0.3">
<path d="M74.9889 -10.6337C83.2572 -10.6337 90.3269 -9.04932 96.1978 -5.88054C102.02 -2.71177 106.472 1.91565 109.554 8.00171C112.637 14.0375 114.178 21.4313 114.178 30.1831C114.178 38.8847 112.637 46.2785 109.554 52.3646C106.472 58.4506 102.02 63.0781 96.1979 66.2468C90.3269 69.4156 83.2572 71 74.9889 71L11.7291 71C11.7291 71 10.7751 68.2789 11.7291 66.3133C12.6831 64.3477 13.4962 62.8366 13.4962 62.8366C16.2173 57.3944 21.6595 54.6733 27.1018 52.3646C40.7074 49.231 51.5919 49.231 57.0341 49.231L75.2091 48.0602C81.5243 46.5099 86.9755 45.524 90.4003 43.0091C93.7761 40.4942 95.464 36.2189 95.464 30.1831C95.464 24.0971 93.7761 19.7966 90.4003 17.2817C86.9755 14.7668 81.9118 13.5093 75.2091 13.5093L19.3982 13.5093C19.0068 11.4974 13.594 10.5267 13.4962 8.41416C13.3983 6.25134 10.7751 3.39945 10.7751 1.84021C10.7751 0.381569 10.8974 -1.65551 10.9952 -4.06982C11.0931 -6.53442 10.3838 -8.72237 10.7752 -10.6337L74.9889 -10.6337Z" fill="#1E63E9"/>
<path d="M74.9889 -10.6337C83.2572 -10.6337 90.3269 -9.04932 96.1978 -5.88054C102.02 -2.71177 106.472 1.91565 109.554 8.00171C112.637 14.0375 114.178 21.4313 114.178 30.1831C114.178 38.8847 112.637 46.2785 109.554 52.3646C106.472 58.4506 102.02 63.0781 96.1979 66.2468C90.3269 69.4156 83.2572 71 74.9889 71L11.7291 71C11.7291 71 10.7751 68.2789 11.7291 66.3133C12.6831 64.3477 13.4962 62.8366 13.4962 62.8366C16.2173 57.3944 21.6595 54.6733 27.1018 52.3646C40.7074 49.231 51.5919 49.231 57.0341 49.231L75.2091 48.0602C81.5243 46.5099 86.9755 45.524 90.4003 43.0091C93.7761 40.4942 95.464 36.2189 95.464 30.1831C95.464 24.0971 93.7761 19.7966 90.4003 17.2817C86.9755 14.7668 81.9118 13.5093 75.2091 13.5093L19.3982 13.5093C19.0068 11.4974 13.594 10.5267 13.4962 8.41416C13.3983 6.25134 10.7751 3.39945 10.7751 1.84021C10.7751 0.381569 10.8974 -1.65551 10.9952 -4.06982C11.0931 -6.53442 10.3838 -8.72237 10.7752 -10.6337L74.9889 -10.6337Z" fill="#1E63E9"/>
<path d="M13.0494 18.5934C8.57954 16.7712 6.04936 12.016 7.0353 7.29078L10.7755 -10.6345C10.7755 -10.6345 28.6567 2.82596 37.9868 8.41357C47.317 14.0012 94.9544 33.0332 95.1304 32.9037C95.1304 32.9037 95.1305 38.3459 92.4094 41.067C89.6882 43.7882 81.5248 46.5091 81.5248 46.5091L13.0494 18.5934Z" fill="url(#paint0_linear_1_3110)"/>
</g>
<defs>
<linearGradient id="paint0_linear_1_3110" x1="21.6601" y1="8.41357" x2="31.9445" y2="44.978" gradientUnits="userSpaceOnUse">
<stop stop-color="#1E63E9"/>
<stop offset="1" stop-color="#6398FF"/>
</linearGradient>
</defs>
</svg>
