<svg width="101" height="119" viewBox="0 0 101 119" fill="none" xmlns="http://www.w3.org/2000/svg">
<path d="M157.56 103.628C172.833 126.263 180.805 150.392 181.579 170.928C182.356 191.561 175.917 207.655 163.562 215.992C151.208 224.328 133.873 224.275 115.031 215.832C96.2767 207.429 76.8858 191.006 61.6121 168.371C46.3383 145.735 38.3666 121.607 37.5931 101.071C36.8159 80.438 43.2551 64.3432 55.6094 56.007C67.9636 47.6707 85.2986 47.7233 104.141 56.1662C122.895 64.5697 142.286 80.9926 157.56 103.628Z" stroke="#24D982" stroke-width="11"/>
<path d="M173.481 3.07974C189.149 26.2984 197.457 51.2262 198.267 72.7274C199.077 94.2461 192.386 112.166 178.271 121.691C164.156 131.215 145.034 130.713 125.382 121.908C105.747 113.11 85.7405 96.0751 70.0732 72.8565C54.406 49.6378 46.0975 24.71 45.2877 3.2088C44.4771 -18.3099 51.1685 -36.23 65.2837 -45.7545C79.399 -55.2791 98.521 -54.7771 118.172 -45.9716C137.808 -37.1733 157.814 -20.1389 173.481 3.07974Z" stroke="#24D982" stroke-width="2"/>
</svg>
