<svg width="74" height="74" viewBox="0 0 74 74" fill="none" xmlns="http://www.w3.org/2000/svg">
<path opacity="0.4" d="M63.208 31.4192H54.2972C46.9897 31.4192 41.0388 25.4684 41.0388 18.1609V9.25002C41.0388 7.55419 39.6513 6.16669 37.9555 6.16669H24.8822C15.3855 6.16669 7.70801 12.3334 7.70801 23.3409V50.6592C7.70801 61.6667 15.3855 67.8334 24.8822 67.8334H49.1172C58.6138 67.8334 66.2913 61.6667 66.2913 50.6592V34.5025C66.2913 32.8067 64.9038 31.4192 63.208 31.4192Z" fill="#888888"/>
<path d="M48.717 6.81419C47.4528 5.55002 45.2637 6.41335 45.2637 8.17085V18.9317C45.2637 23.4334 49.087 27.1642 53.7428 27.1642C56.672 27.195 60.742 27.195 64.2262 27.195C65.9837 27.195 66.9087 25.1292 65.6753 23.8959C61.2353 19.425 53.2803 11.3775 48.717 6.81419Z" fill="#888888"/>
</svg>
