<svg width="16" height="17" viewBox="0 0 16 17" fill="none" xmlns="http://www.w3.org/2000/svg">
<path d="M4.74146 8.68841C4.27265 8.68841 3.81436 8.5512 3.42456 8.29412C3.03475 8.03705 2.73094 7.67166 2.55153 7.24416C2.37212 6.81666 2.32518 6.34625 2.41664 5.89242C2.5081 5.43859 2.73386 5.02172 3.06536 4.69452C3.39686 4.36733 3.81922 4.14451 4.27903 4.05423C4.73884 3.96396 5.21544 4.01029 5.64857 4.18737C6.08169 4.36444 6.4519 4.66431 6.71236 5.04905C6.97281 5.43379 7.11183 5.88612 7.11183 6.34885C7.11118 6.96914 6.86123 7.56384 6.41684 8.00245C5.97245 8.44106 5.36992 8.68776 4.74146 8.68841ZM4.74146 5.17906C4.50706 5.17906 4.27791 5.24767 4.08301 5.37621C3.88811 5.50474 3.7362 5.68744 3.6465 5.90119C3.55679 6.11494 3.53332 6.35014 3.57905 6.57706C3.62478 6.80397 3.73766 7.01241 3.90341 7.17601C4.06916 7.3396 4.28034 7.45102 4.51025 7.49615C4.74015 7.54129 4.97845 7.51812 5.19502 7.42958C5.41158 7.34105 5.59668 7.19111 5.72691 6.99874C5.85714 6.80637 5.92665 6.58021 5.92665 6.34885C5.92629 6.03871 5.80131 5.74138 5.57912 5.52208C5.35693 5.30278 5.05568 5.17942 4.74146 5.17906Z" fill="#AABDE1"/>
<path d="M4.74074 16.5C3.92458 16.4925 3.11031 16.4212 2.30554 16.2869C2.2278 16.2745 2.15334 16.247 2.08652 16.2059C2.01969 16.1647 1.96184 16.1109 1.91635 16.0474C1.87085 15.984 1.83862 15.9122 1.82154 15.8364C1.80446 15.7605 1.80288 15.682 1.81688 15.6055C1.83088 15.5291 1.86018 15.4561 1.90308 15.3909C1.94598 15.3257 2.00161 15.2696 2.06672 15.2259C2.13183 15.1822 2.20511 15.1517 2.28229 15.1363C2.35947 15.1208 2.43899 15.1207 2.51621 15.136C3.25158 15.2569 3.99528 15.3219 4.74074 15.3302C5.8675 15.3296 7.60415 15.1394 8.2963 14.7225V14.0956C8.2963 13.1648 7.92169 12.2722 7.2549 11.6141C6.5881 10.956 5.68373 10.5862 4.74074 10.5862C3.79775 10.5862 2.89338 10.956 2.22658 11.6141C1.55979 12.2722 1.18519 13.1648 1.18519 14.0956V15.1223C1.18519 15.2774 1.12275 15.4262 1.01162 15.5359C0.900486 15.6456 0.749758 15.7072 0.592593 15.7072C0.435427 15.7072 0.284699 15.6456 0.173566 15.5359C0.0624337 15.4262 0 15.2774 0 15.1223V14.0956C0 12.8546 0.499469 11.6644 1.38853 10.7869C2.27759 9.90942 3.48342 9.41644 4.74074 9.41644C5.99806 9.41644 7.20389 9.90942 8.09295 10.7869C8.98201 11.6644 9.48148 12.8546 9.48148 14.0956V15.0053C9.48145 15.1604 9.41899 15.3092 9.30785 15.4188C8.26507 16.4477 5.32059 16.5 4.74074 16.5Z" fill="#AABDE1"/>
<path d="M10.0743 6.34892C9.48827 6.34892 8.91541 6.1774 8.42816 5.85606C7.9409 5.53471 7.56113 5.07798 7.33687 4.5436C7.11261 4.00923 7.05394 3.42122 7.16826 2.85393C7.28259 2.28664 7.56478 1.76555 7.97916 1.35656C8.39354 0.947562 8.92149 0.669035 9.49625 0.556194C10.071 0.443353 10.6668 0.501267 11.2082 0.722612C11.7496 0.943958 12.2123 1.31879 12.5379 1.79972C12.8635 2.28064 13.0373 2.84606 13.0373 3.42446C13.0363 4.19979 12.7239 4.94311 12.1684 5.49135C11.6129 6.0396 10.8598 6.348 10.0743 6.34892ZM10.0743 1.66978C9.72268 1.66978 9.37897 1.77269 9.08661 1.9655C8.79426 2.15831 8.56639 2.43235 8.43184 2.75297C8.29728 3.0736 8.26208 3.42641 8.33067 3.76678C8.39927 4.10715 8.56859 4.41981 8.81721 4.6652C9.06584 4.9106 9.38261 5.07771 9.72746 5.14542C10.0723 5.21312 10.4298 5.17837 10.7546 5.04557C11.0795 4.91276 11.3571 4.68786 11.5525 4.3993C11.7478 4.11075 11.8521 3.7715 11.8521 3.42446C11.8515 2.95925 11.6641 2.51324 11.3308 2.18428C10.9975 1.85533 10.5456 1.6703 10.0743 1.66978Z" fill="#AABDE1"/>
<path d="M10.7114 16.2753C10.5567 16.2751 10.4081 16.215 10.2976 16.1081C10.1871 16.0011 10.1234 15.8557 10.12 15.703C10.1167 15.5503 10.1741 15.4023 10.2798 15.2908C10.3856 15.1792 10.5314 15.113 10.686 15.1061C12.6223 15.0216 14.1594 14.704 14.8156 14.2634V13.3677C14.8142 12.1272 14.3142 10.9378 13.4255 10.0606C12.5367 9.18345 11.3318 8.69001 10.0749 8.68859C9.31868 8.68622 8.57313 8.86445 7.90184 9.20809C7.83268 9.24335 7.75716 9.26481 7.6796 9.27126C7.60204 9.27771 7.52395 9.26902 7.44979 9.24568C7.30001 9.19855 7.17534 9.09462 7.1032 8.95676C7.06748 8.8885 7.04574 8.81397 7.0392 8.73741C7.03267 8.66086 7.04147 8.58378 7.06512 8.51058C7.11287 8.36276 7.21817 8.23971 7.35784 8.16851C8.26134 7.70907 9.26935 7.48663 10.2851 7.52255C11.3008 7.55847 12.2901 7.85154 13.1579 8.37361C14.0258 8.89568 14.7431 9.62922 15.2409 10.5038C15.7388 11.3784 16.0004 12.3646 16.0008 13.3677V14.5375C16.0008 14.6926 15.9383 14.8414 15.8272 14.951C14.8625 15.9038 12.5274 16.1968 10.738 16.2747L10.7114 16.2753Z" fill="#AABDE1"/>
</svg>
