<svg width="8" height="8" viewBox="0 0 8 8" fill="none" xmlns="http://www.w3.org/2000/svg">
<path d="M5.05938 3.99986L7.35937 1.69986C7.64937 1.40986 7.64937 0.929863 7.35937 0.639863C7.06937 0.349863 6.58938 0.349863 6.29938 0.639863L3.99937 2.93986L1.69937 0.639863C1.40937 0.349863 0.929375 0.349863 0.639375 0.639863C0.349375 0.929863 0.349375 1.40986 0.639375 1.69986L2.93937 3.99986L0.639375 6.29986C0.349375 6.58986 0.349375 7.06986 0.639375 7.35986C0.789375 7.50986 0.979375 7.57986 1.16937 7.57986C1.35937 7.57986 1.54937 7.50986 1.69937 7.35986L3.99937 5.05986L6.29938 7.35986C6.44938 7.50986 6.63937 7.57986 6.82937 7.57986C7.01937 7.57986 7.20937 7.50986 7.35937 7.35986C7.64937 7.06986 7.64937 6.58986 7.35937 6.29986L5.05938 3.99986Z" fill="#FF0000"/>
</svg>
