<svg width="24" height="24" viewBox="0 0 24 24" fill="none" xmlns="http://www.w3.org/2000/svg">
<path d="M9.57792 20.55C10.2234 21.1412 11.0713 21.5 12 21.5C12.9287 21.5 13.7766 21.1412 14.4221 20.55M17.4926 8.2C17.4926 6.68827 16.9139 5.23845 15.8839 4.16949C14.8538 3.10053 13.4567 2.5 12 2.5C10.5433 2.5 9.14621 3.10053 8.11615 4.16949C7.08608 5.23845 6.5074 6.68827 6.5074 8.2C6.5074 11.1357 5.79379 13.1457 4.99663 14.4751C4.32421 15.5966 3.988 16.1573 4.00033 16.3137C4.01398 16.4869 4.04933 16.553 4.18383 16.6565C4.30529 16.75 4.85284 16.75 5.94794 16.75H18.0521C19.1472 16.75 19.6947 16.75 19.8162 16.6565C19.9507 16.553 19.986 16.4869 19.9997 16.3137C20.012 16.1573 19.6758 15.5966 19.0034 14.4751C18.2062 13.1457 17.4926 11.1357 17.4926 8.2Z" stroke="#1E63E9" stroke-width="2" stroke-linecap="round" stroke-linejoin="round"/>
</svg>
