<svg width="24" height="16" viewBox="0 0 24 16" fill="none" xmlns="http://www.w3.org/2000/svg">
<path d="M23.5001 2.5061C23.3642 2.02133 23.0995 1.58245 22.7341 1.2361C22.3584 0.879103 21.8979 0.623735 21.3961 0.494099C19.5181 -0.000900596 11.9941 -0.000900485 11.9941 -0.000900485C8.85746 -0.0365878 5.72156 0.120374 2.60413 0.469099C2.10232 0.608313 1.64269 0.869386 1.26613 1.2291C0.896129 1.5851 0.628129 2.0241 0.488129 2.5051C0.151822 4.31684 -0.0115791 6.15644 0.000128902 7.9991C-0.0118711 9.8401 0.151129 11.6791 0.488129 13.4931C0.625129 13.9721 0.892129 14.4091 1.26313 14.7621C1.63413 15.1151 2.09613 15.3701 2.60413 15.5051C4.50713 15.9991 11.9941 15.9991 11.9941 15.9991C15.1348 16.0348 18.2747 15.8779 21.3961 15.5291C21.8979 15.3995 22.3584 15.1441 22.7341 14.7871C23.1041 14.4341 23.3671 13.9951 23.4991 13.5171C23.8442 11.7061 24.012 9.86569 24.0001 8.0221C24.0261 6.1707 23.8585 4.32166 23.5001 2.5051V2.5061ZM9.60213 11.4231V4.5761L15.8621 8.0001L9.60213 11.4231Z" fill="white"/>
</svg>
