<svg width="16" height="18" viewBox="0 0 16 18" fill="none" xmlns="http://www.w3.org/2000/svg">
<g id="Delete">
<path id="Stroke 1" d="M14.1032 6.89017C14.1032 6.89017 13.6507 12.5027 13.3882 14.8668C13.2632 15.996 12.5657 16.6577 11.4232 16.6785C9.24901 16.7177 7.07234 16.7202 4.89901 16.6743C3.79984 16.6518 3.11401 15.9818 2.99151 14.8727C2.72734 12.4877 2.27734 6.89017 2.27734 6.89017" stroke="#AABDE1" stroke-width="1.5" stroke-linecap="round" stroke-linejoin="round"/>
<path id="Stroke 3" d="M15.2567 4.19975H1.125" stroke="#AABDE1" stroke-width="1.5" stroke-linecap="round" stroke-linejoin="round"/>
<path id="Stroke 5" d="M12.5335 4.19975C11.8793 4.19975 11.316 3.73725 11.1877 3.09642L10.9852 2.08308C10.8602 1.61558 10.4368 1.29225 9.95432 1.29225H6.42682C5.94432 1.29225 5.52099 1.61558 5.39599 2.08308L5.19349 3.09642C5.06516 3.73725 4.50182 4.19975 3.84766 4.19975" stroke="#AABDE1" stroke-width="1.5" stroke-linecap="round" stroke-linejoin="round"/>
</g>
</svg>
