<svg width="24" height="25" viewBox="0 0 24 25" fill="none" xmlns="http://www.w3.org/2000/svg">
<path opacity="0.4" d="M12 24.01C18.6274 24.01 24 18.6374 24 12.01C24 5.38259 18.6274 0.0100098 12 0.0100098C5.37258 0.0100098 0 5.38259 0 12.01C0 18.6374 5.37258 24.01 12 24.01Z" fill="#AFB9D7"/>
<path d="M12 5.92603C9.516 5.92603 7.5 7.94203 7.5 10.426C7.5 12.862 9.408 14.842 11.94 14.914C11.976 14.914 12.024 14.914 12.048 14.914C12.072 14.914 12.108 14.914 12.132 14.914C12.144 14.914 12.156 14.914 12.156 14.914C14.58 14.83 16.488 12.862 16.5 10.426C16.5 7.94203 14.484 5.92603 12 5.92603Z" fill="#AFB9D7"/>
<path d="M20.1353 20.8301C17.9993 22.7981 15.1433 24.0101 11.9993 24.0101C8.85528 24.0101 5.99928 22.7981 3.86328 20.8301C4.15128 19.7381 4.93128 18.7421 6.07128 17.9741C9.34728 15.7901 14.6753 15.7901 17.9273 17.9741C19.0793 18.7421 19.8473 19.7381 20.1353 20.8301Z" fill="#AFB9D7"/>
</svg>
