<svg width="16" height="17" viewBox="0 0 16 17" fill="none" xmlns="http://www.w3.org/2000/svg">
<g id="clock (2)" clip-path="url(#clip0_338_23470)">
<path id="Vector" d="M14.3164 4.70996C13.985 4.87028 13.8464 5.26904 14.0067 5.60026C14.4447 6.50505 14.6667 7.48031 14.6667 8.5C14.6667 12.1759 11.6759 15.1667 8 15.1667C4.32406 15.1667 1.33333 12.1759 1.33333 8.5C1.33333 4.82406 4.32406 1.83333 8 1.83333C9.52328 1.83333 10.9543 2.33073 12.1387 3.27165C12.4259 3.50098 12.846 3.45296 13.0754 3.16471C13.3047 2.87663 13.2567 2.45703 12.9683 2.22803C11.5661 1.11361 9.8016 0.5 8 0.5C3.58903 0.5 0 4.08903 0 8.5C0 12.911 3.58903 16.5 8 16.5C12.411 16.5 16 12.911 16 8.5C16 7.27767 15.7331 6.10628 15.2067 5.01969C15.0467 4.68766 14.6466 4.54932 14.3164 4.70996Z" fill="#AABDE1"/>
<path id="Vector_2" d="M8.00065 3.16699C7.63265 3.16699 7.33398 3.46566 7.33398 3.83366V8.50033C7.33398 8.86833 7.63265 9.16699 8.00065 9.16699H11.334C11.702 9.16699 12.0007 8.86833 12.0007 8.50033C12.0007 8.13232 11.702 7.83366 11.334 7.83366H8.66732V3.83366C8.66732 3.46566 8.36865 3.16699 8.00065 3.16699Z" fill="#AABDE1"/>
</g>
<defs>
<clipPath id="clip0_338_23470">
<rect width="16" height="16" fill="white" transform="translate(0 0.5)"/>
</clipPath>
</defs>
</svg>
