<svg width="24" height="24" viewBox="0 0 24 24" fill="none" xmlns="http://www.w3.org/2000/svg">
<path d="M22.8281 10.8281C22.1812 10.8281 21.6562 11.3531 21.6562 12C21.6562 17.325 17.325 21.6562 12 21.6562C6.675 21.6562 2.34375 17.325 2.34375 12C2.34375 11.3531 1.81875 10.8281 1.17188 10.8281C0.525 10.8281 0 11.3531 0 12C0 15.2063 1.24687 18.2203 3.51562 20.4844C5.78438 22.7531 8.79375 24 12 24C15.2063 24 18.2203 22.7531 20.4844 20.4844C22.7531 18.2156 24 15.2063 24 12C24 11.3531 23.475 10.8281 22.8281 10.8281Z" fill="#1C77FD"/>
<path d="M10.3914 16.1062C10.8227 16.5375 11.3945 16.7719 11.9992 16.7719C12.6086 16.7719 13.1805 16.5328 13.607 16.1062L16.5555 13.1578C17.0148 12.6984 17.0148 11.9578 16.5555 11.4984C16.0961 11.0391 15.3555 11.0391 14.8961 11.4984L13.1711 13.2281V1.17187C13.1711 0.525 12.6461 0 11.9992 0C11.3523 0 10.8273 0.525 10.8273 1.17187V13.2281L9.09766 11.4984C8.63828 11.0391 7.89766 11.0391 7.43828 11.4984C6.97891 11.9578 6.97891 12.6984 7.43828 13.1578L10.3914 16.1062Z" fill="#1C77FD"/>
</svg>
