<svg width="28" height="30" viewBox="0 0 28 30" fill="none" xmlns="http://www.w3.org/2000/svg">
<path d="M27.4766 4.13848V2.26025C27.4766 1.59193 26.9608 1.04824 26.3267 1.04824H25.0238C24.7876 0.43582 24.1932 0 23.4986 0H3.20592C1.72684 0 0.523438 1.2034 0.523438 2.68254V27.3175C0.523438 28.7966 1.72684 30 3.20592 30H23.4986C24.3997 30 25.1328 29.2669 25.1328 28.3658V24.6131L26.53 24.096C27.3124 23.8066 27.4766 23.297 27.4766 22.9205V21.0422C27.4766 20.6487 27.2977 20.2983 27.0211 20.0768C27.3863 19.7953 27.4766 19.4432 27.4766 19.1641V17.2859C27.4766 16.8923 27.2977 16.542 27.0211 16.3204C27.3863 16.0389 27.4766 15.6868 27.4766 15.4077V13.5295C27.4766 13.1359 27.2977 12.7856 27.0211 12.564C27.3864 12.2825 27.4766 11.9303 27.4766 11.6513V9.77303C27.4766 9.37945 27.2977 9.02912 27.0211 8.80758C27.3863 8.52609 27.4766 8.17395 27.4766 7.8948V6.01664C27.4766 5.62307 27.2977 5.27273 27.0211 5.05119C27.3863 4.76977 27.4766 4.41756 27.4766 4.13848ZM1.69531 2.68254C1.69531 1.966 2.19687 1.36482 2.86725 1.21066V10.2682C2.86725 10.5918 3.12957 10.8541 3.45318 10.8541C3.7768 10.8541 4.03912 10.5918 4.03912 10.2682V1.17188H6.38299V24.6349H4.03912V15.5416C4.03912 15.218 3.7768 14.9556 3.45318 14.9556C3.12957 14.9556 2.86725 15.218 2.86725 15.5416V24.6566C2.4367 24.7111 2.03756 24.8677 1.69531 25.1017V2.68254ZM1.69531 27.3175C1.69531 26.4845 2.37295 25.8068 3.20592 25.8068H21.6171V28.8281H3.20592C2.37295 28.8281 1.69531 28.1504 1.69531 27.3175ZM23.9609 28.3658C23.9609 28.6207 23.7535 28.8281 23.4986 28.8281H22.7889V25.8069H23.4986C23.6591 25.8069 23.8143 25.7836 23.9609 25.7403V28.3658ZM23.9609 24.1726C23.9609 24.4275 23.7535 24.6349 23.4986 24.6349H7.55486V1.17188H23.4985C23.7535 1.17188 23.9609 1.3793 23.9609 1.63424V24.1726ZM26.3046 22.9066C26.2842 22.9229 26.234 22.956 26.1233 22.997L25.1328 23.3636V21.0021H26.2961C26.3004 21.0107 26.3047 21.0241 26.3047 21.0422L26.3046 22.9066ZM26.3046 19.1503C26.2842 19.1665 26.234 19.1996 26.1233 19.2406L25.1328 19.6072V17.2457H26.2961C26.3004 17.2543 26.3047 17.2678 26.3047 17.2859L26.3046 19.1503ZM26.3046 15.3939C26.2842 15.4102 26.234 15.4433 26.1233 15.4842L25.1328 15.8508V13.4893H26.2961C26.3004 13.4979 26.3047 13.5114 26.3047 13.5295L26.3046 15.3939ZM26.3046 11.6374C26.2842 11.6537 26.234 11.6868 26.1233 11.7278L25.1328 12.0944V9.73295H26.2961C26.3004 9.74156 26.3047 9.75498 26.3047 9.77309L26.3046 11.6374ZM26.3046 7.88104C26.2842 7.89732 26.234 7.93043 26.1233 7.97139L25.1328 8.33801V5.97656H26.2961C26.3004 5.98518 26.3047 5.99859 26.3047 6.0167L26.3046 7.88104ZM26.3046 4.12471C26.2842 4.141 26.234 4.1741 26.1233 4.21506L25.1328 4.58162V2.22018H26.2961C26.3004 2.22879 26.3047 2.24221 26.3047 2.26031L26.3046 4.12471Z" fill="#363636"/>
<path d="M3.45313 13.4908C3.77674 13.4908 4.03906 13.2285 4.03906 12.9049V12.9045C4.03906 12.5809 3.77674 12.3188 3.45313 12.3188C3.12951 12.3188 2.86719 12.5813 2.86719 12.9049C2.86719 13.2285 3.12957 13.4908 3.45313 13.4908Z" fill="#363636"/>
<path d="M14.9048 16.9999H13.9471L11.4102 14.1773V16.9999H10.6289V11.1196H11.4102V13.7741L13.8631 11.1196H14.8208L12.225 13.9757L14.9048 16.9999ZM16.222 16.2607H19.1369V16.9999H15.2979V16.3195L18.1373 11.8588H15.3735V11.1196H19.0697V11.7916L16.222 16.2607Z" fill="#363636"/>
</svg>
