<svg width="119" height="22" viewBox="0 0 119 22" fill="none" xmlns="http://www.w3.org/2000/svg">
<path d="M32.4262 13.0552C32.4262 13.9865 32.2544 14.7828 31.9109 15.4441C31.5673 16.0999 31.0656 16.6014 30.4057 16.9486C29.7513 17.2958 28.9496 17.4694 28.0007 17.4694C27.0572 17.4694 26.2556 17.2958 25.5957 16.9486C24.9358 16.6014 24.4341 16.0999 24.0906 15.4441C23.747 14.7828 23.5752 13.9865 23.5752 13.0552V5.92963L23.6897 5.82217H24.6468C25.1485 5.82217 25.533 5.95443 25.8002 6.21895C26.0674 6.47796 26.201 6.9023 26.201 7.49196V13.08C26.201 13.835 26.3374 14.4053 26.6101 14.7911C26.8827 15.1713 27.3463 15.3615 28.0007 15.3615C28.6606 15.3615 29.1268 15.1713 29.3995 14.7911C29.6722 14.4053 29.8085 13.835 29.8085 13.08V5.92963C30.0267 5.88554 30.2503 5.85799 30.4793 5.84697C30.7138 5.83594 30.9156 5.83043 31.0846 5.83043C31.2428 5.83043 31.4528 5.83594 31.7145 5.84697C31.9817 5.85799 32.219 5.88554 32.4262 5.92963V13.0552Z" fill="#363636"/>
<path d="M33.765 16.2377C33.7977 15.863 33.9122 15.4965 34.1085 15.1383C34.3048 14.7746 34.5284 14.4825 34.7793 14.2621C35.2374 14.5376 35.7582 14.7883 36.3417 15.0143C36.9252 15.2347 37.5088 15.3449 38.0923 15.3449C38.5667 15.3449 38.9076 15.2292 39.1148 14.9978C39.3221 14.7663 39.4257 14.5183 39.4257 14.2538C39.4257 14.0774 39.3684 13.8763 39.2539 13.6503C39.1394 13.4189 38.8531 13.2067 38.395 13.0138L36.4235 12.1872C35.7473 11.9006 35.1883 11.5176 34.7466 11.0382C34.3048 10.5588 34.084 9.925 34.084 9.13695C34.084 8.44809 34.2612 7.84465 34.6157 7.32663C34.9702 6.80861 35.4474 6.40632 36.0472 6.11975C36.6526 5.82768 37.3261 5.68164 38.0678 5.68164C38.8421 5.68164 39.5675 5.78359 40.2437 5.98749C40.9254 6.1914 41.4789 6.40632 41.9043 6.63226C41.8825 7.01251 41.7925 7.37899 41.6343 7.73168C41.4816 8.07887 41.2771 8.37094 41.0208 8.60791C40.6064 8.40952 40.121 8.22766 39.5647 8.06233C39.0085 7.8915 38.5095 7.80608 38.0678 7.80608C37.5988 7.80608 37.2634 7.91354 37.0616 8.12846C36.8653 8.34339 36.7671 8.56107 36.7671 8.7815C36.7671 8.99091 36.8353 9.17828 36.9716 9.34361C37.1134 9.50893 37.3643 9.66875 37.7242 9.82305L39.7365 10.6579C40.2655 10.8784 40.7127 11.1539 41.0781 11.4846C41.4489 11.8097 41.7298 12.1789 41.9206 12.5923C42.1115 13.0001 42.207 13.4437 42.207 13.9231C42.207 14.5899 42.0461 15.1934 41.7243 15.7335C41.408 16.268 40.9308 16.6923 40.2928 17.0065C39.6547 17.3151 38.8585 17.4694 37.9041 17.4694C37.2443 17.4694 36.5408 17.3647 35.7937 17.1553C35.0465 16.9403 34.3703 16.6345 33.765 16.2377Z" fill="#363636"/>
<path d="M42.4382 8.12846C42.4 7.93007 42.3755 7.73719 42.3645 7.54982C42.3536 7.35694 42.3482 7.18611 42.3482 7.03731C42.3482 6.88301 42.3536 6.70942 42.3645 6.51654C42.3755 6.32366 42.4 6.12802 42.4382 5.92963H50.5366C50.5802 6.0674 50.6129 6.22997 50.6348 6.41734C50.6566 6.5992 50.6675 6.77555 50.6675 6.94638C50.6675 7.37623 50.5557 7.68208 50.3321 7.86394C50.114 8.04029 49.7704 8.12846 49.3014 8.12846H48.8188C48.6988 8.12846 48.527 8.12571 48.3034 8.1202C48.0853 8.11469 47.9135 8.11193 47.788 8.11193H45.1622C45.0422 8.11193 44.8704 8.11469 44.6468 8.1202C44.4232 8.12571 44.2515 8.12846 44.1315 8.12846H42.4382ZM45.1622 9.33534C45.1622 9.1094 45.1649 8.90825 45.1704 8.7319C45.1758 8.55004 45.1785 8.34339 45.1785 8.11193V7.02078H47.7717V8.11193C47.7717 8.34339 47.7744 8.55004 47.7799 8.7319C47.7853 8.90825 47.788 9.1094 47.788 9.33534V17.2214C47.5644 17.26 47.3354 17.2848 47.1009 17.2958C46.8664 17.3123 46.6592 17.3206 46.4792 17.3206C46.2938 17.3206 46.0838 17.3123 45.8493 17.2958C45.6148 17.2848 45.3858 17.26 45.1622 17.2214V9.33534Z" fill="#363636"/>
<path d="M53.3951 5.92963C53.6023 5.89656 53.8504 5.87176 54.1395 5.85523C54.434 5.8387 54.6903 5.83043 54.9084 5.83043C55.1157 5.83043 55.3665 5.8387 55.661 5.85523C55.9609 5.87176 56.2145 5.90207 56.4218 5.94616L59.9393 17.0478C59.7593 17.1525 59.5248 17.2324 59.2358 17.2875C58.9522 17.3426 58.6877 17.3702 58.4423 17.3702C58.0278 17.3702 57.7033 17.2737 57.4688 17.0809C57.2343 16.8825 57.038 16.4995 56.8799 15.9318L55.7101 11.7408C55.5847 11.2779 55.4374 10.7323 55.2684 10.1041C55.1047 9.47587 54.9521 8.88896 54.8103 8.34339H54.7121C54.6576 8.64648 54.5839 8.9854 54.4912 9.36014C54.3985 9.73488 54.3004 10.1096 54.1967 10.4844C54.0986 10.8536 54.0059 11.1897 53.9186 11.4928L52.2498 17.2379C52.0862 17.2765 51.9117 17.3013 51.7263 17.3123C51.5409 17.3288 51.3446 17.3371 51.1373 17.3371C50.941 17.3371 50.7174 17.3206 50.4666 17.2875C50.2211 17.2544 50.0248 17.2104 49.8776 17.1553L49.7794 17.0147L53.3951 5.92963ZM53.5914 14.8572C53.5151 14.8572 53.4251 14.8572 53.3215 14.8572C53.2233 14.8517 53.1251 14.849 53.027 14.849C52.9288 14.8434 52.8388 14.8407 52.757 14.8407H51.3827L52.1762 12.7824H53.3869C53.4632 12.7824 53.5505 12.7824 53.6487 12.7824C53.7468 12.7769 53.845 12.7741 53.9432 12.7741C54.0413 12.7686 54.1286 12.7659 54.2049 12.7659H55.3992C55.481 12.7659 55.5683 12.7686 55.661 12.7741C55.7592 12.7741 55.8573 12.7769 55.9555 12.7824C56.0591 12.7824 56.1491 12.7824 56.2254 12.7824H57.477L58.1396 14.8407H56.7572C56.6808 14.8407 56.5908 14.8434 56.4872 14.849C56.389 14.849 56.2882 14.8517 56.1845 14.8572C56.0864 14.8572 55.9991 14.8572 55.9228 14.8572H53.5914Z" fill="#363636"/>
<path d="M64.6379 9.60813C64.7961 9.3877 65.0033 9.12042 65.2596 8.8063C65.5214 8.48667 65.7532 8.21388 65.9549 7.98794L65.9058 7.93834C65.715 7.96038 65.5077 7.98243 65.2842 8.00447C65.0606 8.021 64.8342 8.03478 64.6052 8.0458C64.3816 8.05682 64.1635 8.06509 63.9508 8.0706C63.7381 8.07611 63.5499 8.07887 63.3863 8.07887H61.0386C61.0004 7.91905 60.9732 7.7675 60.9568 7.62422C60.9459 7.48094 60.9404 7.33765 60.9404 7.19437C60.9404 6.96843 60.9568 6.75626 60.9895 6.55787C61.0223 6.35948 61.0659 6.15006 61.1204 5.92963H68.3599C68.4744 6.34294 68.5562 6.65431 68.6053 6.86372C68.6544 7.06762 68.6844 7.21642 68.6953 7.3101C68.7117 7.40378 68.7198 7.48369 68.7198 7.54982C68.7198 7.69862 68.698 7.85016 68.6544 8.00447C68.6162 8.15877 68.5426 8.31583 68.4335 8.47565L64.7852 13.5346C64.627 13.7551 64.428 14.0141 64.188 14.3117C63.948 14.6037 63.7217 14.8627 63.509 15.0887L63.5581 15.1383C63.9126 15.1107 64.3216 15.0859 64.7852 15.0639C65.2542 15.0363 65.6632 15.0226 66.0122 15.0226H66.9202C67.3183 15.0226 67.6701 14.984 67.9755 14.9068C68.2863 14.8297 68.5508 14.7387 68.7689 14.634C68.8126 14.7939 68.8507 14.9812 68.8835 15.1961C68.9216 15.4056 68.9407 15.615 68.9407 15.8244C68.9407 16.2983 68.7798 16.651 68.4581 16.8825C68.1418 17.1084 67.7328 17.2214 67.231 17.2214H60.9732C60.8914 16.8301 60.8287 16.5353 60.785 16.3369C60.7468 16.133 60.7196 15.9842 60.7032 15.8905C60.6923 15.7913 60.6869 15.7059 60.6869 15.6343C60.6869 15.4744 60.7114 15.3091 60.7605 15.1383C60.815 14.9619 60.8941 14.8021 60.9977 14.6588L64.6379 9.60813Z" fill="#363636"/>
<path d="M73.2898 8.12846C73.2516 7.93007 73.2271 7.73719 73.2162 7.54982C73.2053 7.35694 73.1998 7.18611 73.1998 7.03731C73.1998 6.88301 73.2053 6.70942 73.2162 6.51654C73.2271 6.32366 73.2516 6.12802 73.2898 5.92963H81.3882C81.4318 6.0674 81.4646 6.22997 81.4864 6.41734C81.5082 6.5992 81.5191 6.77555 81.5191 6.94638C81.5191 7.37623 81.4073 7.68208 81.1837 7.86394C80.9656 8.04029 80.622 8.12846 80.153 8.12846H79.6704C79.5504 8.12846 79.3786 8.12571 79.155 8.1202C78.9369 8.11469 78.7651 8.11193 78.6397 8.11193H76.0138C75.8938 8.11193 75.722 8.11469 75.4985 8.1202C75.2749 8.12571 75.1031 8.12846 74.9831 8.12846H73.2898ZM76.0138 9.33534C76.0138 9.1094 76.0165 8.90825 76.022 8.7319C76.0274 8.55004 76.0302 8.34339 76.0302 8.11193V7.02078H78.6233V8.11193C78.6233 8.34339 78.626 8.55004 78.6315 8.7319C78.6369 8.90825 78.6397 9.1094 78.6397 9.33534V17.2214C78.4161 17.26 78.187 17.2848 77.9525 17.2958C77.718 17.3123 77.5108 17.3206 77.3308 17.3206C77.1454 17.3206 76.9354 17.3123 76.7009 17.2958C76.4664 17.2848 76.2374 17.26 76.0138 17.2214V9.33534Z" fill="#363636"/>
<path d="M82.7505 5.92963C82.9577 5.88554 83.1868 5.85799 83.4376 5.84697C83.6939 5.83594 83.9012 5.83043 84.0593 5.83043C84.2338 5.83043 84.4411 5.83594 84.681 5.84697C84.921 5.85799 85.15 5.88554 85.3682 5.92963V17.2214C85.15 17.26 84.921 17.2848 84.681 17.2958C84.4411 17.3123 84.2338 17.3206 84.0593 17.3206C83.9012 17.3206 83.6939 17.3123 83.4376 17.2958C83.1868 17.2848 82.9577 17.26 82.7505 17.2214V5.92963Z" fill="#363636"/>
<path d="M90.496 17.271H89.3917C88.9227 17.271 88.5518 17.1332 88.2792 16.8577C88.0065 16.5821 87.8702 16.2046 87.8702 15.7252V5.92963L87.9847 5.82217H88.9418C89.4435 5.82217 89.828 5.95443 90.0952 6.21895C90.3624 6.47796 90.496 6.9023 90.496 7.49196V17.271ZM94.8643 14.9895C94.8643 15.8271 94.7279 16.4168 94.4552 16.7585C94.188 17.1001 93.7299 17.271 93.081 17.271H89.3917L87.9847 15.3532C88.6991 15.2265 89.4053 15.1355 90.1034 15.0804C90.8069 15.0198 91.4476 14.9895 92.0257 14.9895H94.8643Z" fill="#363636"/>
<path d="M96.4179 6.04536L96.5324 5.92963H98.9946V8.10366C98.9946 8.33512 98.9974 8.54178 99.0028 8.72364C99.0083 8.90549 99.011 9.1094 99.011 9.33534V13.8818C99.011 14.0967 99.0083 14.2924 99.0028 14.4687C98.9974 14.6451 98.9946 14.8462 98.9946 15.0721V17.271H97.923C97.454 17.271 97.0859 17.1332 96.8187 16.8577C96.5515 16.5821 96.4179 16.2046 96.4179 15.7252V6.04536ZM102.61 10.4678C102.67 10.6276 102.711 10.8123 102.733 11.0217C102.755 11.2311 102.766 11.4074 102.766 11.5507C102.766 11.6995 102.755 11.8731 102.733 12.0715C102.711 12.2699 102.67 12.4545 102.61 12.6253H100.115C99.979 12.6253 99.7854 12.6253 99.5345 12.6253C99.2837 12.6198 99.0246 12.6143 98.7574 12.6088C98.4956 12.6033 98.2775 12.5978 98.103 12.5923V10.5009C98.2775 10.4954 98.4956 10.4899 98.7574 10.4844C99.0246 10.4788 99.2837 10.4761 99.5345 10.4761C99.7854 10.4706 99.979 10.4678 100.115 10.4678H102.61ZM103.584 5.92963C103.627 6.12802 103.652 6.31539 103.657 6.49174C103.668 6.66257 103.674 6.82239 103.674 6.97118C103.674 7.11998 103.655 7.30459 103.616 7.52502C103.584 7.73995 103.532 7.9466 103.461 8.145H100.115C99.979 8.145 99.7854 8.145 99.5345 8.145C99.2837 8.13948 99.0246 8.13397 98.7574 8.12846C98.4956 8.12295 98.2775 8.11744 98.103 8.11193V5.92963H103.584ZM103.993 15.0556C103.993 15.7831 103.881 16.3341 103.657 16.7089C103.434 17.0836 102.973 17.271 102.275 17.271H98.103V15.1383C98.4575 15.1217 98.7956 15.1052 99.1173 15.0887C99.4445 15.0666 99.8072 15.0556 100.205 15.0556H103.993Z" fill="#363636"/>
<path d="M114.242 6.86372C114.215 7.23846 114.079 7.60493 113.833 7.96314C113.593 8.32134 113.34 8.58862 113.072 8.76497C112.674 8.49494 112.238 8.28001 111.764 8.1202C111.295 7.95487 110.831 7.87221 110.373 7.87221C109.822 7.87221 109.345 8.00447 108.941 8.26899C108.538 8.53351 108.224 8.94407 108.001 9.50067C107.783 10.0573 107.673 10.7792 107.673 11.6664C107.673 12.956 107.908 13.8983 108.377 14.4935C108.851 15.0887 109.528 15.3863 110.406 15.3863C110.94 15.3863 111.42 15.3367 111.845 15.2375C112.271 15.1383 112.623 15.0501 112.901 14.973L114.267 16.7833C113.95 16.888 113.569 16.9954 113.122 17.1057C112.68 17.2104 112.192 17.2958 111.657 17.3619C111.123 17.4336 110.556 17.4694 109.956 17.4694C109.116 17.4694 108.385 17.3344 107.763 17.0643C107.142 16.7943 106.626 16.4058 106.217 15.8988C105.808 15.3918 105.503 14.7801 105.301 14.0637C105.099 13.3472 104.999 12.5427 104.999 11.6499C104.999 10.6469 105.143 9.77346 105.432 9.02949C105.721 8.28001 106.114 7.65728 106.61 7.16131C107.106 6.66533 107.665 6.2961 108.287 6.05362C108.909 5.80563 109.552 5.68164 110.218 5.68164C110.965 5.68164 111.682 5.79186 112.369 6.01229C113.062 6.22722 113.686 6.51103 114.242 6.86372ZM111.813 14.1546C111.813 13.7633 111.826 13.35 111.854 12.9146C111.881 12.4738 111.946 12.0687 112.05 11.6995L114.267 12.4435V16.7833L111.813 16.8163V14.1546ZM112.541 10.8067C113.19 10.8067 113.64 10.961 113.89 11.2697C114.141 11.5728 114.267 11.964 114.267 12.4435V13.0056H111.044C110.624 13.0056 110.31 12.9257 110.103 12.7659C109.896 12.606 109.792 12.3167 109.792 11.8979C109.792 11.7215 109.809 11.5342 109.841 11.3358C109.879 11.1374 109.926 10.961 109.98 10.8067H112.541Z" fill="#363636"/>
<path d="M116.382 5.92963C116.589 5.88554 116.818 5.85799 117.069 5.84697C117.326 5.83594 117.533 5.83043 117.691 5.83043C117.865 5.83043 118.073 5.83594 118.313 5.84697C118.553 5.85799 118.782 5.88554 119 5.92963V17.2214C118.782 17.26 118.553 17.2848 118.313 17.2958C118.073 17.3123 117.865 17.3206 117.691 17.3206C117.533 17.3206 117.326 17.3123 117.069 17.2958C116.818 17.2848 116.589 17.26 116.382 17.2214V5.92963Z" fill="#363636"/>
<path d="M5.13031 14.5927C5.8172 12.8539 7.77953 12.0113 9.51331 12.7107L7.23586 18.4759L4.09657 17.2095L5.13031 14.5927Z" fill="#6399FF"/>
<path d="M15.6787 14.394C15.6787 15.9988 15.3744 17.3709 14.7658 18.5103C14.1572 19.6403 13.2685 20.5044 12.0996 21.1026C10.9403 21.7008 9.52025 21.9999 7.83935 21.9999C6.16811 21.9999 4.74805 21.7008 3.57915 21.1026C2.41025 20.5044 1.5215 19.6403 0.9129 18.5103C0.3043 17.3709 0 15.9988 0 14.394V2.11642C0 2.11642 0.522623 1.93126 0.900134 2.11642C1.27764 2.30158 1.56787 2.45938 1.56787 2.45938C2.61312 2.9875 3.13574 4.04375 3.57915 5.09999C4.18099 7.7406 4.18099 9.85309 4.18099 10.9093L4.40586 14.4368C4.70361 15.6624 4.89295 16.7204 5.37597 17.3851C5.85898 18.0403 6.68011 18.3679 7.83935 18.3679C9.00825 18.3679 9.83421 18.0403 10.3172 17.3851C10.8002 16.7204 11.0417 15.7376 11.0417 14.4368V3.60487C11.4282 3.5289 11.6146 2.47837 12.0203 2.45938C12.4357 2.44039 12.9835 1.93126 13.2829 1.93126C13.5631 1.93126 13.9543 1.955 14.418 1.97399C14.8914 1.99298 15.3116 1.85532 15.6787 1.93128V14.394Z" fill="url(#paint0_linear_848_24098)"/>
<path d="M15.6787 14.394C15.6787 15.9988 15.3744 17.3709 14.7658 18.5103C14.1572 19.6403 13.2685 20.5044 12.0996 21.1026C10.9403 21.7008 9.52025 21.9999 7.83935 21.9999C6.16811 21.9999 4.74805 21.7008 3.57915 21.1026C2.41025 20.5044 1.5215 19.6403 0.9129 18.5103C0.3043 17.3709 0 15.9988 0 14.394V2.11642C0 2.11642 0.522623 1.93126 0.900134 2.11642C1.27764 2.30158 1.56787 2.45938 1.56787 2.45938C2.61312 2.9875 3.13574 4.04375 3.57915 5.09999C4.18099 7.7406 4.18099 9.85309 4.18099 10.9093L4.40586 14.4368C4.70361 15.6624 4.89295 16.7204 5.37597 17.3851C5.85898 18.0403 6.68011 18.3679 7.83935 18.3679C9.00825 18.3679 9.83421 18.0403 10.3172 17.3851C10.8002 16.7204 11.0417 15.7376 11.0417 14.4368V3.60487C11.4282 3.5289 11.6146 2.47837 12.0203 2.45938C12.4357 2.44039 12.9835 1.93126 13.2829 1.93126C13.5631 1.93126 13.9543 1.955 14.418 1.97399C14.8914 1.99298 15.3116 1.85532 15.6787 1.93128V14.394Z" fill="url(#paint1_linear_848_24098)"/>
<path d="M8.75185 5.62853C9.86306 2.87413 12.7762 1.31932 15.6789 1.93137C15.6789 1.93137 13.0937 5.40179 12.0205 7.2126C10.9473 9.02342 7.29203 18.269 7.3169 18.3032C7.3169 18.3032 6.27165 18.3032 5.74903 17.775C5.2264 17.2469 4.70383 15.6626 4.70383 15.6626L8.75185 5.62853Z" fill="url(#paint2_linear_848_24098)"/>
<defs>
<linearGradient id="paint0_linear_848_24098" x1="3.13574" y1="10.9094" x2="15.1958" y2="5.72044" gradientUnits="userSpaceOnUse">
<stop stop-color="#1E63E9"/>
<stop offset="1" stop-color="#6398FF"/>
</linearGradient>
<linearGradient id="paint1_linear_848_24098" x1="3.13574" y1="10.9094" x2="15.1958" y2="5.72044" gradientUnits="userSpaceOnUse">
<stop stop-color="#1E63E9"/>
<stop offset="1" stop-color="#6398FF"/>
</linearGradient>
<linearGradient id="paint2_linear_848_24098" x1="12.0205" y1="4.04388" x2="4.98721" y2="6.00153" gradientUnits="userSpaceOnUse">
<stop stop-color="#1E63E9"/>
<stop offset="1" stop-color="#6398FF"/>
</linearGradient>
</defs>
</svg>
