<svg width="30" height="30" viewBox="0 0 30 30" fill="none" xmlns="http://www.w3.org/2000/svg">
<g clip-path="url(#clip0_1_13650)">
<path d="M26.9799 25.8586L21.9288 17.1097C23.7974 15.2981 24.9608 12.763 24.9608 9.96094C24.9608 4.46848 20.4924 0 14.9999 0C9.5074 0 5.03898 4.46848 5.03898 9.96094C5.03898 12.763 6.20242 15.2981 8.07109 17.1098L3.0199 25.8586C2.90136 26.064 2.91824 26.3205 3.06273 26.5086C3.20716 26.6965 3.45074 26.7789 3.67978 26.7173L7.57357 25.6683L8.61197 29.5649C8.67302 29.7941 8.86615 29.9638 9.10128 29.995C9.12706 29.9984 9.15279 30.0001 9.17833 30.0001C9.38564 30.0001 9.57999 29.8899 9.68558 29.7071L14.9999 20.5023L20.3142 29.707C20.4198 29.8899 20.6142 30 20.8215 30C20.847 30 20.8727 29.9983 20.8985 29.9949C21.1336 29.9638 21.3268 29.794 21.3878 29.5649L22.4262 25.6682L26.3201 26.7173C26.5492 26.779 26.7926 26.6965 26.9371 26.5085C27.0816 26.3205 27.0985 26.064 26.9799 25.8586ZM6.21085 9.96094C6.21085 5.11465 10.1536 1.17188 14.9999 1.17188C19.8462 1.17188 23.7889 5.11465 23.7889 9.96094C23.7889 14.8072 19.8462 18.75 14.9999 18.75C10.1536 18.75 6.21085 14.8072 6.21085 9.96094ZM9.37937 27.8937L8.55466 24.7988C8.51458 24.6484 8.41626 24.5201 8.28144 24.4423C8.14661 24.3644 7.98642 24.3434 7.83601 24.3839L4.74343 25.2171L8.97513 17.8877C10.4021 18.9749 12.13 19.6865 14.0102 19.8728L9.37937 27.8937ZM22.1638 24.3838C22.0134 24.3434 21.8532 24.3643 21.7184 24.4422C21.5835 24.5201 21.4852 24.6483 21.4451 24.7987L20.6204 27.8936L15.9895 19.8727C17.8697 19.6864 19.5976 18.9748 21.0247 17.8876L25.2563 25.2171L22.1638 24.3838Z" fill="#AABDE1"/>
<path d="M11.3297 8.76567C11.2048 9.15034 11.3072 9.5646 11.5969 9.84679L12.5339 10.7597L12.3131 12.0491C12.2448 12.4477 12.4057 12.843 12.7329 13.0806C12.9178 13.2149 13.134 13.283 13.3516 13.283C13.5193 13.283 13.6879 13.2425 13.8436 13.1606L15.0014 12.5515L16.1595 13.1599C16.5175 13.348 16.9431 13.3172 17.2702 13.0794C17.5973 12.8416 17.758 12.4463 17.6895 12.0477L17.468 10.7584L18.4046 9.84497C18.6941 9.56261 18.7962 9.14829 18.6712 8.76374C18.5461 8.37919 18.2198 8.10421 17.8196 8.04614L16.5249 7.85835L15.9456 6.68536C15.7666 6.32278 15.4043 6.09766 15 6.09766C14.9999 6.09766 14.9998 6.09766 14.9997 6.09766C14.5953 6.09778 14.233 6.32313 14.0541 6.68583L13.4754 7.85911L12.1809 8.04761C11.7807 8.10597 11.4545 8.38106 11.3297 8.76567ZM13.9492 8.97444C14.14 8.94667 14.3049 8.82673 14.3903 8.65382L15.0001 7.41725L15.6107 8.65352C15.6961 8.82643 15.8611 8.94626 16.0519 8.97391L17.4165 9.17184L16.4294 10.1345C16.2914 10.2692 16.2284 10.4631 16.261 10.6532L16.4945 12.0121L15.2739 11.3708C15.1032 11.2811 14.8992 11.2811 14.7285 11.3709L13.5082 12.0129L13.741 10.6538C13.7736 10.4638 13.7105 10.2698 13.5724 10.1352L12.5848 9.17307L13.9492 8.97444Z" fill="#AABDE1"/>
<path d="M15 17.3438C19.0709 17.3438 22.3828 14.0319 22.3828 9.96098C22.3828 6.96046 20.591 4.2812 17.818 3.13522C17.5187 3.01147 17.1762 3.15386 17.0527 3.45292C16.9291 3.75198 17.0713 4.09464 17.3704 4.21821C19.7034 5.18237 21.2109 7.43659 21.2109 9.96098C21.2109 13.3857 18.4247 16.1719 15 16.1719C11.5753 16.1719 8.78906 13.3857 8.78906 9.96098C8.78906 7.43055 10.3015 5.17434 12.6421 4.21305C12.9415 4.09013 13.0845 3.74776 12.9616 3.44846C12.8386 3.14911 12.4963 3.00614 12.197 3.12901C9.41484 4.27165 7.61719 6.95331 7.61719 9.96098C7.61719 14.0319 10.9291 17.3438 15 17.3438Z" fill="#AABDE1"/>
<path d="M15.0078 3.75001C15.1619 3.75001 15.3131 3.6873 15.4221 3.57833C15.5311 3.46935 15.5938 3.31817 15.5938 3.16407C15.5938 3.00997 15.5311 2.85879 15.4221 2.7498C15.3131 2.64082 15.1619 2.57812 15.0078 2.57812C14.8537 2.57812 14.7026 2.64082 14.5936 2.7498C14.484 2.85879 14.4219 3.00997 14.4219 3.16407C14.4219 3.31817 14.484 3.46935 14.5936 3.57833C14.7026 3.6873 14.8537 3.75001 15.0078 3.75001Z" fill="#AABDE1"/>
</g>
<defs>
<clipPath id="clip0_1_13650">
<rect width="30" height="30" fill="white"/>
</clipPath>
</defs>
</svg>
