<svg width="16" height="17" viewBox="0 0 16 17" fill="none" xmlns="http://www.w3.org/2000/svg">
<g id="friends 1" clip-path="url(#clip0_338_23476)">
<g id="Group">
<path id="Vector" d="M4.74146 8.6889C4.27265 8.6889 3.81436 8.55169 3.42456 8.29461C3.03475 8.03754 2.73094 7.67215 2.55153 7.24465C2.37212 6.81715 2.32518 6.34674 2.41664 5.89291C2.5081 5.43908 2.73386 5.0222 3.06536 4.69501C3.39686 4.36782 3.81922 4.14499 4.27903 4.05472C4.73884 3.96445 5.21544 4.01078 5.64857 4.18786C6.08169 4.36493 6.4519 4.6648 6.71236 5.04954C6.97281 5.43428 7.11183 5.88661 7.11183 6.34933C7.11118 6.96963 6.86123 7.56433 6.41684 8.00294C5.97245 8.44155 5.36992 8.68825 4.74146 8.6889ZM4.74146 5.17955C4.50706 5.17955 4.27791 5.24816 4.08301 5.37669C3.88811 5.50523 3.7362 5.68793 3.6465 5.90168C3.55679 6.11543 3.53332 6.35063 3.57905 6.57755C3.62478 6.80446 3.73766 7.0129 3.90341 7.1765C4.06916 7.34009 4.28034 7.4515 4.51025 7.49664C4.74015 7.54178 4.97845 7.51861 5.19502 7.43007C5.41158 7.34153 5.59668 7.1916 5.72691 6.99923C5.85714 6.80686 5.92665 6.58069 5.92665 6.34933C5.92629 6.0392 5.80131 5.74187 5.57912 5.52257C5.35693 5.30327 5.05568 5.17991 4.74146 5.17955Z" fill="#AABDE1"/>
<path id="Vector_2" d="M4.74074 16.4996C3.92458 16.492 3.11031 16.4208 2.30554 16.2865C2.2278 16.2741 2.15334 16.2465 2.08652 16.2054C2.01969 16.1643 1.96184 16.1105 1.91635 16.047C1.87085 15.9836 1.83862 15.9118 1.82154 15.8359C1.80446 15.7601 1.80288 15.6816 1.81688 15.6051C1.83088 15.5286 1.86018 15.4557 1.90308 15.3905C1.94598 15.3253 2.00161 15.2692 2.06672 15.2255C2.13183 15.1818 2.20511 15.1513 2.28229 15.1359C2.35947 15.1204 2.43899 15.1203 2.51621 15.1356C3.25158 15.2565 3.99528 15.3214 4.74074 15.3298C5.8675 15.3292 7.60415 15.139 8.2963 14.722V14.0951C8.2963 13.1644 7.92169 12.2718 7.2549 11.6137C6.5881 10.9555 5.68373 10.5858 4.74074 10.5858C3.79775 10.5858 2.89338 10.9555 2.22658 11.6137C1.55979 12.2718 1.18519 13.1644 1.18519 14.0951V15.1219C1.18519 15.277 1.12275 15.4258 1.01162 15.5354C0.900486 15.6451 0.749758 15.7068 0.592593 15.7068C0.435427 15.7068 0.284699 15.6451 0.173566 15.5354C0.0624337 15.4258 0 15.277 0 15.1219V14.0951C0 12.8542 0.499469 11.664 1.38853 10.7865C2.27759 9.90899 3.48342 9.41602 4.74074 9.41602C5.99806 9.41602 7.20389 9.90899 8.09295 10.7865C8.98201 11.664 9.48148 12.8542 9.48148 14.0951V15.0049C9.48145 15.16 9.41899 15.3087 9.30785 15.4184C8.26507 16.4473 5.32059 16.4996 4.74074 16.4996Z" fill="#AABDE1"/>
<path id="Vector_3" d="M10.0743 6.34892C9.48827 6.34892 8.91541 6.1774 8.42816 5.85606C7.9409 5.53471 7.56113 5.07798 7.33687 4.5436C7.11261 4.00923 7.05394 3.42122 7.16826 2.85393C7.28259 2.28664 7.56478 1.76555 7.97916 1.35656C8.39354 0.947562 8.92149 0.669035 9.49625 0.556194C10.071 0.443353 10.6668 0.501267 11.2082 0.722612C11.7496 0.943958 12.2123 1.31879 12.5379 1.79972C12.8635 2.28064 13.0373 2.84606 13.0373 3.42446C13.0363 4.19979 12.7239 4.94311 12.1684 5.49135C11.6129 6.0396 10.8598 6.348 10.0743 6.34892ZM10.0743 1.66978C9.72268 1.66978 9.37897 1.77269 9.08661 1.9655C8.79426 2.15831 8.56639 2.43235 8.43184 2.75297C8.29728 3.0736 8.26208 3.42641 8.33067 3.76678C8.39927 4.10715 8.56859 4.41981 8.81721 4.6652C9.06584 4.9106 9.38261 5.07771 9.72746 5.14542C10.0723 5.21312 10.4298 5.17837 10.7546 5.04557C11.0795 4.91276 11.3571 4.68786 11.5525 4.3993C11.7478 4.11075 11.8521 3.7715 11.8521 3.42446C11.8515 2.95925 11.6641 2.51324 11.3308 2.18428C10.9975 1.85533 10.5456 1.6703 10.0743 1.66978Z" fill="#AABDE1"/>
<path id="Vector_4" d="M10.7114 16.2751C10.5567 16.2748 10.4081 16.2148 10.2976 16.1078C10.1871 16.0009 10.1234 15.8555 10.12 15.7027C10.1167 15.55 10.1741 15.4021 10.2798 15.2905C10.3856 15.179 10.5314 15.1127 10.686 15.1059C12.6223 15.0213 14.1594 14.7038 14.8156 14.2631V13.3675C14.8142 12.1269 14.3142 10.9376 13.4255 10.0604C12.5367 9.18321 11.3318 8.68977 10.0749 8.68835C9.31868 8.68597 8.57313 8.86421 7.90184 9.20785C7.83268 9.2431 7.75716 9.26457 7.6796 9.27102C7.60204 9.27747 7.52395 9.26877 7.44979 9.24544C7.30001 9.1983 7.17534 9.09438 7.1032 8.95652C7.06748 8.88826 7.04574 8.81372 7.0392 8.73717C7.03267 8.66061 7.04147 8.58353 7.06512 8.51034C7.11287 8.36251 7.21817 8.23946 7.35784 8.16826C8.26134 7.70883 9.26935 7.48639 10.2851 7.52231C11.3008 7.55822 12.2901 7.85129 13.1579 8.37337C14.0258 8.89544 14.7431 9.62898 15.2409 10.5035C15.7388 11.3781 16.0004 12.3643 16.0008 13.3675V14.5373C16.0008 14.6924 15.9383 14.8411 15.8272 14.9508C14.8625 15.9035 12.5274 16.1966 10.738 16.2745L10.7114 16.2751Z" fill="#AABDE1"/>
</g>
</g>
<defs>
<clipPath id="clip0_338_23476">
<rect width="16" height="16" fill="white" transform="translate(0 0.5)"/>
</clipPath>
</defs>
</svg>
