<svg width="30" height="30" viewBox="0 0 30 30" fill="none" xmlns="http://www.w3.org/2000/svg">
<path d="M-0.121094 3.27635V4.27635H1.87891V3.27635H-0.121094ZM0.878906 0.902344V-0.0976562H-0.121094V0.902344H0.878906ZM3.32085 1.90234H4.32085V-0.0976562H3.32085V1.90234ZM28.1204 3.27635V4.27635H30.1204V3.27635H28.1204ZM29.1204 0.902344H30.1204V-0.0976562H29.1204V0.902344ZM26.6784 -0.0976562H25.6784V1.90234H26.6784V-0.0976562ZM1.87891 26.7233V25.7233H-0.121094V26.7233H1.87891ZM0.878906 29.0973H-0.121094V30.0973H0.878906V29.0973ZM3.32085 30.0973H4.32085V28.0973H3.32085V30.0973ZM30.1204 26.7233V25.7233H28.1204V26.7233H30.1204ZM29.1204 29.0973V30.0973H30.1204V29.0973H29.1204ZM26.6784 28.0973H25.6784V30.0973H26.6784V28.0973ZM4.81929 4.85867V3.85867H3.81929V4.85867H4.81929ZM12.8948 4.85867H13.8948V3.85867H12.8948V4.85867ZM12.8948 12.9342V13.9342H13.8948V12.9342H12.8948ZM4.81929 12.9342H3.81929V13.9342H4.81929V12.9342ZM17.3814 17.1267V16.1267H16.3814V17.1267H17.3814ZM25.457 17.1267H26.457V16.1267H25.457V17.1267ZM25.457 25.2022V26.2022H26.457V25.2022H25.457ZM17.3814 25.2022H16.3814V26.2022H17.3814V25.2022ZM13.0166 17.1267H14.0166V16.1267H13.0166V17.1267ZM4.88693 20.9987V19.9987H3.88693V20.9987H4.88693ZM25.3886 4.89255H26.3886V3.89255H25.3886V4.89255ZM21.2867 4.89255V3.89255H20.2867V4.89255H21.2867ZM1.87891 3.27635V0.902344H-0.121094V3.27635H1.87891ZM0.878906 1.90234H3.32085V-0.0976562H0.878906V1.90234ZM30.1204 3.27635V0.902344H28.1204V3.27635H30.1204ZM29.1204 -0.0976562H26.6784V1.90234H29.1204V-0.0976562ZM-0.121094 26.7233V29.0973H1.87891V26.7233H-0.121094ZM0.878906 30.0973H3.32085V28.0973H0.878906V30.0973ZM28.1204 26.7233V29.0973H30.1204V26.7233H28.1204ZM29.1204 28.0973H26.6784V30.0973H29.1204V28.0973ZM4.81929 5.85867H12.8948V3.85867H4.81929V5.85867ZM11.8948 4.85867V12.9342H13.8948V4.85867H11.8948ZM12.8948 11.9342H4.81929V13.9342H12.8948V11.9342ZM5.81929 12.9342V4.85867H3.81929V12.9342H5.81929ZM7.85703 7.97325V9.81964H9.85703V7.97325H7.85703ZM17.3814 18.1267H25.457V16.1267H17.3814V18.1267ZM24.457 17.1267V25.2022H26.457V17.1267H24.457ZM25.457 24.2022H17.3814V26.2022H25.457V24.2022ZM18.3814 25.2022V17.1267H16.3814V25.2022H18.3814ZM20.4192 20.2412V22.0876H22.4192V20.2412H20.4192ZM9.40487 18.1267H13.0166V16.1267H9.40487V18.1267ZM12.0166 17.1267V26.3491H14.0166V17.1267H12.0166ZM7.15267 16.1267H3.98739V18.1267H7.15267V16.1267ZM10.46 22.8486H13.0166V20.8486H10.46V22.8486ZM5.88693 26.3491V20.9987H3.88693V26.3491H5.88693ZM4.88693 21.9987H7.52466V19.9987H4.88693V21.9987ZM7.55269 24.3496V26.2761H9.55269V24.3496H7.55269ZM16.5123 3.98867V5.97633H18.5123V3.98867H16.5123ZM16.5123 7.90256V9.89027H18.5123V7.90256H16.5123ZM20.4192 10.0866V12.0744H22.4192V10.0866H20.4192ZM24.8024 11.9342H16.7268V13.9342H24.8024V11.9342ZM26.3886 8.96347V4.89255H24.3886V8.96347H26.3886ZM25.3886 3.89255H21.2867V5.89255H25.3886V3.89255ZM20.2867 4.89255V7.17441H22.2867V4.89255H20.2867Z" fill="#FF0000"/>
</svg>
