<svg width="20" height="20" viewBox="0 0 20 20" fill="none" xmlns="http://www.w3.org/2000/svg">
<path d="M16.5637 0C14.6604 0 13.1262 1.54642 13.1262 3.4375C13.1262 3.62095 13.1403 3.80485 13.1677 3.98071L6.60035 7.56225C5.91113 6.76029 4.89156 6.25122 3.75123 6.25122C1.66802 6.25122 0 7.93389 0 9.99756C0 12.0612 1.66802 13.7488 3.75123 13.7488C4.89588 13.7488 5.91236 13.2391 6.60156 12.4365L13.1677 16.0205C13.1396 16.1964 13.1262 16.3803 13.1262 16.5637C13.1262 18.4548 14.6519 20 16.5636 20C18.4685 20 19.9999 18.4548 19.9999 16.5637C19.9999 14.6726 18.4669 13.1262 16.5637 13.1262C15.2931 13.1262 14.1925 13.8081 13.5941 14.8259L7.23992 11.3623C7.40669 10.9387 7.50236 10.4787 7.50236 9.99756C7.50236 9.51746 7.40717 9.06016 7.24115 8.63769L13.5937 5.17212C14.192 6.18991 15.2912 6.87378 16.5637 6.87378C18.4616 6.87378 19.9999 5.32858 19.9999 3.4375C19.9999 1.54642 18.4669 0 16.5637 0Z" fill="#1C77FD"/>
</svg>
