<svg width="24" height="24" viewBox="0 0 24 24" fill="none" xmlns="http://www.w3.org/2000/svg">
<path opacity="0.4" d="M10.9569 2.05996L5.45688 4.11996C4.40688 4.51996 3.54688 5.75996 3.54688 6.88996V14.99C3.54688 15.8 4.07688 16.87 4.72688 17.35L10.2269 21.46C11.1969 22.19 12.7869 22.19 13.7569 21.46L19.2569 17.35C19.9069 16.86 20.4369 15.8 20.4369 14.99V6.88996C20.4369 5.76996 19.5769 4.51996 18.5269 4.12996L13.0269 2.06996C12.4669 1.84996 11.5269 1.84996 10.9569 2.05996Z" fill="#03B113"/>
<path d="M10.6622 14.23C10.4722 14.23 10.2822 14.16 10.1322 14.01L8.52219 12.4C8.23219 12.11 8.23219 11.63 8.52219 11.34C8.81219 11.05 9.29219 11.05 9.58219 11.34L10.6622 12.42L14.4322 8.65C14.7222 8.36 15.2022 8.36 15.4922 8.65C15.7822 8.94 15.7822 9.42 15.4922 9.71L11.1922 14.01C11.0422 14.16 10.8522 14.23 10.6622 14.23Z" fill="#03B113"/>
</svg>
