<svg width="24" height="25" viewBox="0 0 24 25" fill="none" xmlns="http://www.w3.org/2000/svg">
<path opacity="0.4" d="M10.9608 3.05715L5.46078 5.11715C4.41078 5.51715 3.55078 6.75715 3.55078 7.88715V15.9872C3.55078 16.7972 4.08078 17.8672 4.73078 18.3472L10.2308 22.4571C11.2008 23.1871 12.7908 23.1871 13.7608 22.4571L19.2608 18.3472C19.9108 17.8572 20.4408 16.7972 20.4408 15.9872V7.88715C20.4408 6.76715 19.5808 5.51715 18.5308 5.12715L13.0308 3.06715C12.4708 2.84715 11.5308 2.84715 10.9608 3.05715Z" fill="url(#paint0_linear_1339_3919)"/>
<path d="M10.6583 15.2272C10.4683 15.2272 10.2783 15.1572 10.1283 15.0072L8.51828 13.3972C8.22828 13.1072 8.22828 12.6272 8.51828 12.3372C8.80828 12.0472 9.28828 12.0472 9.57828 12.3372L10.6583 13.4172L14.4283 9.64719C14.7183 9.35719 15.1983 9.35719 15.4883 9.64719C15.7783 9.93719 15.7783 10.4172 15.4883 10.7072L11.1883 15.0072C11.0383 15.1572 10.8483 15.2272 10.6583 15.2272Z" fill="url(#paint1_linear_1339_3919)"/>
<defs>
<linearGradient id="paint0_linear_1339_3919" x1="6.92878" y1="11.9074" x2="19.6055" y2="6.03534" gradientUnits="userSpaceOnUse">
<stop stop-color="#9C1EE9"/>
<stop offset="1" stop-color="#6398FF"/>
</linearGradient>
<linearGradient id="paint1_linear_1339_3919" x1="9.78178" y1="12.027" x2="14.2942" y2="8.84918" gradientUnits="userSpaceOnUse">
<stop stop-color="#9C1EE9"/>
<stop offset="1" stop-color="#6398FF"/>
</linearGradient>
</defs>
</svg>
