<svg width="54" height="54" viewBox="0 0 54 54" fill="none" xmlns="http://www.w3.org/2000/svg">
<path d="M11.25 33.75C6.2775 33.75 2.25 37.7775 2.25 42.75C2.25 44.4375 2.7225 46.035 3.555 47.385C5.1075 49.995 7.965 51.75 11.25 51.75C14.535 51.75 17.3925 49.995 18.945 47.385C19.7775 46.035 20.25 44.4375 20.25 42.75C20.25 37.7775 16.2225 33.75 11.25 33.75ZM15.6825 42.0075L10.89 46.44C10.575 46.7325 10.1475 46.8901 9.7425 46.8901C9.315 46.8901 8.8875 46.7325 8.55 46.395L6.3225 44.1675C5.67 43.515 5.67 42.435 6.3225 41.7825C6.975 41.13 8.055 41.13 8.7075 41.7825L9.7875 42.8625L13.3875 39.5325C14.0625 38.9025 15.1425 38.9475 15.7725 39.6225C16.4025 40.2975 16.3575 41.3775 15.6825 42.0075Z" fill="#03B113"/>
<path d="M11.25 33.75C6.2775 33.75 2.25 37.7775 2.25 42.75C2.25 44.4375 2.7225 46.035 3.555 47.385C5.1075 49.995 7.965 51.75 11.25 51.75C14.535 51.75 17.3925 49.995 18.945 47.385C19.7775 46.035 20.25 44.4375 20.25 42.75C20.25 37.7775 16.2225 33.75 11.25 33.75ZM15.6825 42.0075L10.89 46.44C10.575 46.7325 10.1475 46.8901 9.7425 46.8901C9.315 46.8901 8.8875 46.7325 8.55 46.395L6.3225 44.1675C5.67 43.515 5.67 42.435 6.3225 41.7825C6.975 41.13 8.055 41.13 8.7075 41.7825L9.7875 42.8625L13.3875 39.5325C14.0625 38.9025 15.1425 38.9475 15.7725 39.6225C16.4025 40.2975 16.3575 41.3775 15.6825 42.0075Z" fill="url(#paint0_radial_1_17152)" fill-opacity="0.6"/>
<path d="M39.9358 15.8624C39.3958 15.7724 38.8333 15.75 38.2483 15.75H15.7483C15.1183 15.75 14.5108 15.795 13.9258 15.885C14.2408 15.255 14.6908 14.67 15.2308 14.13L22.5433 6.795C25.6258 3.735 30.6208 3.735 33.7033 6.795L37.6408 10.7774C39.0808 12.1949 39.8458 13.9949 39.9358 15.8624Z" fill="#03B113"/>
<path d="M39.9358 15.8624C39.3958 15.7724 38.8333 15.75 38.2483 15.75H15.7483C15.1183 15.75 14.5108 15.795 13.9258 15.885C14.2408 15.255 14.6908 14.67 15.2308 14.13L22.5433 6.795C25.6258 3.735 30.6208 3.735 33.7033 6.795L37.6408 10.7774C39.0808 12.1949 39.8458 13.9949 39.9358 15.8624Z" fill="url(#paint1_radial_1_17152)" fill-opacity="0.6"/>
<g opacity="0.4">
<path d="M49.5 27V38.25C49.5 45 45 49.5 38.25 49.5H17.1675C17.865 48.915 18.4725 48.195 18.945 47.385C19.7775 46.035 20.25 44.4375 20.25 42.75C20.25 37.7775 16.2225 33.75 11.25 33.75C8.55 33.75 6.1425 34.9425 4.5 36.81V27C4.5 20.88 8.19 16.605 13.9275 15.885C14.5125 15.795 15.12 15.75 15.75 15.75H38.25C38.835 15.75 39.3975 15.7725 39.9375 15.8625C45.7425 16.5375 49.5 20.835 49.5 27Z" fill="#03B113"/>
<path d="M49.5 27V38.25C49.5 45 45 49.5 38.25 49.5H17.1675C17.865 48.915 18.4725 48.195 18.945 47.385C19.7775 46.035 20.25 44.4375 20.25 42.75C20.25 37.7775 16.2225 33.75 11.25 33.75C8.55 33.75 6.1425 34.9425 4.5 36.81V27C4.5 20.88 8.19 16.605 13.9275 15.885C14.5125 15.795 15.12 15.75 15.75 15.75H38.25C38.835 15.75 39.3975 15.7725 39.9375 15.8625C45.7425 16.5375 49.5 20.835 49.5 27Z" fill="url(#paint2_radial_1_17152)" fill-opacity="0.6"/>
</g>
<path d="M49.5 28.125H42.75C40.275 28.125 38.25 30.15 38.25 32.625C38.25 35.1 40.275 37.125 42.75 37.125H49.5" fill="#03B113"/>
<path d="M49.5 28.125H42.75C40.275 28.125 38.25 30.15 38.25 32.625C38.25 35.1 40.275 37.125 42.75 37.125H49.5" fill="url(#paint3_radial_1_17152)" fill-opacity="0.6"/>
<defs>
<radialGradient id="paint0_radial_1_17152" cx="0" cy="0" r="1" gradientUnits="userSpaceOnUse" gradientTransform="translate(8.0041 37.291) rotate(55.9679) scale(13.7086)">
<stop stop-color="white"/>
<stop offset="0.697917" stop-color="white" stop-opacity="0"/>
<stop offset="1" stop-color="white" stop-opacity="0"/>
</radialGradient>
<radialGradient id="paint1_radial_1_17152" cx="0" cy="0" r="1" gradientUnits="userSpaceOnUse" gradientTransform="translate(22.2405 6.73966) rotate(32.9494) scale(13.2112 13.0008)">
<stop stop-color="white"/>
<stop offset="0.697917" stop-color="white" stop-opacity="0"/>
<stop offset="1" stop-color="white" stop-opacity="0"/>
</radialGradient>
<radialGradient id="paint2_radial_1_17152" cx="0" cy="0" r="1" gradientUnits="userSpaceOnUse" gradientTransform="translate(18.8852 22.3893) rotate(47.9991) scale(28.664 30.732)">
<stop stop-color="white"/>
<stop offset="0.697917" stop-color="white" stop-opacity="0"/>
<stop offset="1" stop-color="white" stop-opacity="0"/>
</radialGradient>
<radialGradient id="paint3_radial_1_17152" cx="0" cy="0" r="1" gradientUnits="userSpaceOnUse" gradientTransform="translate(41.8463 29.8955) rotate(49.8304) scale(7.43364 7.90016)">
<stop stop-color="white"/>
<stop offset="0.697917" stop-color="white" stop-opacity="0"/>
<stop offset="1" stop-color="white" stop-opacity="0"/>
</radialGradient>
</defs>
</svg>
