<svg width="24" height="24" viewBox="0 0 24 24" fill="none" xmlns="http://www.w3.org/2000/svg">
<g id="vuesax/bulk/wallet-2">
<g id="wallet-2">
<g id="Vector">
<path d="M22.0002 10.9702V13.0302C22.0002 13.5802 21.5602 14.0302 21.0002 14.0502H19.0402C17.9602 14.0502 16.9702 13.2602 16.8802 12.1802C16.8202 11.5502 17.0602 10.9602 17.4802 10.5502C17.8502 10.1702 18.3602 9.9502 18.9202 9.9502H21.0002C21.5602 9.9702 22.0002 10.4202 22.0002 10.9702Z" fill="#1E63E9"/>
<path d="M22.0002 10.9702V13.0302C22.0002 13.5802 21.5602 14.0302 21.0002 14.0502H19.0402C17.9602 14.0502 16.9702 13.2602 16.8802 12.1802C16.8202 11.5502 17.0602 10.9602 17.4802 10.5502C17.8502 10.1702 18.3602 9.9502 18.9202 9.9502H21.0002C21.5602 9.9702 22.0002 10.4202 22.0002 10.9702Z" fill="url(#paint0_radial_104_40499)" fill-opacity="0.6"/>
</g>
<g id="Vector_2" opacity="0.4">
<path d="M17.48 10.55C17.06 10.96 16.82 11.55 16.88 12.18C16.97 13.26 17.96 14.05 19.04 14.05H21V15.5C21 18.5 19 20.5 16 20.5H7C4 20.5 2 18.5 2 15.5V8.5C2 5.78 3.64 3.88 6.19 3.56C6.45 3.52 6.72 3.5 7 3.5H16C16.26 3.5 16.51 3.50999 16.75 3.54999C19.33 3.84999 21 5.76 21 8.5V9.95001H18.92C18.36 9.95001 17.85 10.17 17.48 10.55Z" fill="#1E63E9"/>
<path d="M17.48 10.55C17.06 10.96 16.82 11.55 16.88 12.18C16.97 13.26 17.96 14.05 19.04 14.05H21V15.5C21 18.5 19 20.5 16 20.5H7C4 20.5 2 18.5 2 15.5V8.5C2 5.78 3.64 3.88 6.19 3.56C6.45 3.52 6.72 3.5 7 3.5H16C16.26 3.5 16.51 3.50999 16.75 3.54999C19.33 3.84999 21 5.76 21 8.5V9.95001H18.92C18.36 9.95001 17.85 10.17 17.48 10.55Z" fill="url(#paint1_radial_104_40499)" fill-opacity="0.6"/>
</g>
<g id="Group">
<g id="Vector_3">
<path d="M13 9.75H7C6.59 9.75 6.25 9.41 6.25 9C6.25 8.59 6.59 8.25 7 8.25H13C13.41 8.25 13.75 8.59 13.75 9C13.75 9.41 13.41 9.75 13 9.75Z" fill="#1E63E9"/>
<path d="M13 9.75H7C6.59 9.75 6.25 9.41 6.25 9C6.25 8.59 6.59 8.25 7 8.25H13C13.41 8.25 13.75 8.59 13.75 9C13.75 9.41 13.41 9.75 13 9.75Z" fill="url(#paint2_radial_104_40499)" fill-opacity="0.6"/>
</g>
</g>
</g>
</g>
<defs>
<radialGradient id="paint0_radial_104_40499" cx="0" cy="0" r="1" gradientUnits="userSpaceOnUse" gradientTransform="translate(18.5107 10.7567) rotate(49.8076) scale(3.38755 3.60064)">
<stop stop-color="white"/>
<stop offset="0.697917" stop-color="white" stop-opacity="0"/>
<stop offset="1" stop-color="white" stop-opacity="0"/>
</radialGradient>
<radialGradient id="paint1_radial_104_40499" cx="0" cy="0" r="1" gradientUnits="userSpaceOnUse" gradientTransform="translate(8.07377 6.84426) rotate(52.9554) scale(13.4427 13.9367)">
<stop stop-color="white"/>
<stop offset="0.697917" stop-color="white" stop-opacity="0"/>
<stop offset="1" stop-color="white" stop-opacity="0"/>
</radialGradient>
<radialGradient id="paint2_radial_104_40499" cx="0" cy="0" r="1" gradientUnits="userSpaceOnUse" gradientTransform="translate(8.64754 8.54508) rotate(16.4969) scale(3.33396 1.95719)">
<stop stop-color="white"/>
<stop offset="0.697917" stop-color="white" stop-opacity="0"/>
<stop offset="1" stop-color="white" stop-opacity="0"/>
</radialGradient>
</defs>
</svg>
