<svg width="44" height="44" viewBox="0 0 44 44" fill="none" xmlns="http://www.w3.org/2000/svg">
<g opacity="0.4">
<path d="M33.6966 23.54V32.5784C33.6966 34.9067 31.8816 37.4 29.6999 38.1334L23.8516 40.0767C22.8249 40.425 21.1566 40.425 20.1482 40.0767L14.2999 38.1334C12.0999 37.4 10.3032 34.9067 10.3032 32.5784L10.3216 23.54L18.4249 28.82C20.4049 30.1217 23.6682 30.1217 25.6482 28.82L33.6966 23.54Z" fill="#3AE91E"/>
<path d="M33.6966 23.54V32.5784C33.6966 34.9067 31.8816 37.4 29.6999 38.1334L23.8516 40.0767C22.8249 40.425 21.1566 40.425 20.1482 40.0767L14.2999 38.1334C12.0999 37.4 10.3032 34.9067 10.3032 32.5784L10.3216 23.54L18.4249 28.82C20.4049 30.1217 23.6682 30.1217 25.6482 28.82L33.6966 23.54Z" fill="url(#paint0_radial_392_15459)" fill-opacity="0.6"/>
</g>
<path d="M36.6298 11.8434L25.6481 4.63836C23.6681 3.33669 20.4048 3.33669 18.4248 4.63836L7.38812 11.8434C3.84979 14.135 3.84979 19.3234 7.38812 21.6334L10.3215 23.54L18.4248 28.82C20.4048 30.1217 23.6681 30.1217 25.6481 28.82L33.6965 23.54L36.2081 21.89V27.5C36.2081 28.2517 36.8315 28.875 37.5831 28.875C38.3348 28.875 38.9581 28.2517 38.9581 27.5V18.48C39.6915 16.115 38.9398 13.365 36.6298 11.8434Z" fill="#3AE91E"/>
<path d="M36.6298 11.8434L25.6481 4.63836C23.6681 3.33669 20.4048 3.33669 18.4248 4.63836L7.38812 11.8434C3.84979 14.135 3.84979 19.3234 7.38812 21.6334L10.3215 23.54L18.4248 28.82C20.4048 30.1217 23.6681 30.1217 25.6481 28.82L33.6965 23.54L36.2081 21.89V27.5C36.2081 28.2517 36.8315 28.875 37.5831 28.875C38.3348 28.875 38.9581 28.2517 38.9581 27.5V18.48C39.6915 16.115 38.9398 13.365 36.6298 11.8434Z" fill="url(#paint1_radial_392_15459)" fill-opacity="0.6"/>
<defs>
<radialGradient id="paint0_radial_392_15459" cx="0" cy="0" r="1" gradientUnits="userSpaceOnUse" gradientTransform="translate(17.7814 26.8445) rotate(46.7569) scale(14.5541 15.6605)">
<stop stop-color="white"/>
<stop offset="0.697917" stop-color="white" stop-opacity="0"/>
<stop offset="1" stop-color="white" stop-opacity="0"/>
</radialGradient>
<radialGradient id="paint1_radial_392_15459" cx="0" cy="0" r="1" gradientUnits="userSpaceOnUse" gradientTransform="translate(15.7612 8.80326) rotate(48.2876) scale(22.096 23.6638)">
<stop stop-color="white"/>
<stop offset="0.697917" stop-color="white" stop-opacity="0"/>
<stop offset="1" stop-color="white" stop-opacity="0"/>
</radialGradient>
</defs>
</svg>
