<svg width="44" height="44" viewBox="0 0 44 44" fill="none" xmlns="http://www.w3.org/2000/svg">
<g opacity="0.4">
<path d="M22 9.7167V39.1051C22.3117 39.1051 22.6416 39.05 22.8983 38.9033L22.9717 38.8667C26.4917 36.9417 32.6333 34.9251 36.6116 34.3934L37.1434 34.32C38.9034 34.1 40.3333 32.45 40.3333 30.69V8.54334C40.3333 6.36167 38.555 4.71169 36.3734 4.89502C32.5234 5.20669 26.6934 7.15007 23.4301 9.18507L22.9717 9.46C22.6967 9.625 22.3483 9.7167 22 9.7167Z" fill="#1EACE9"/>
<path d="M22 9.7167V39.1051C22.3117 39.1051 22.6416 39.05 22.8983 38.9033L22.9717 38.8667C26.4917 36.9417 32.6333 34.9251 36.6116 34.3934L37.1434 34.32C38.9034 34.1 40.3333 32.45 40.3333 30.69V8.54334C40.3333 6.36167 38.555 4.71169 36.3734 4.89502C32.5234 5.20669 26.6934 7.15007 23.4301 9.18507L22.9717 9.46C22.6967 9.625 22.3483 9.7167 22 9.7167Z" fill="url(#paint0_radial_1594_6129)" fill-opacity="0.6"/>
</g>
<path d="M3.6665 8.56154V30.6899C3.6665 32.4499 5.09649 34.0998 6.85649 34.3199L7.46152 34.3933C11.4582 34.9249 17.6182 36.9599 21.1382 38.9032C21.3766 39.0499 21.6698 39.1049 21.9998 39.1049V9.71655C21.6515 9.71655 21.3031 9.62486 21.0281 9.45986L20.7165 9.25821C17.4531 7.20488 11.6048 5.24322 7.7548 4.91322H7.64481C5.46314 4.72989 3.6665 6.36154 3.6665 8.56154Z" fill="#1EACE9"/>
<path d="M3.6665 8.56154V30.6899C3.6665 32.4499 5.09649 34.0998 6.85649 34.3199L7.46152 34.3933C11.4582 34.9249 17.6182 36.9599 21.1382 38.9032C21.3766 39.0499 21.6698 39.1049 21.9998 39.1049V9.71655C21.6515 9.71655 21.3031 9.62486 21.0281 9.45986L20.7165 9.25821C17.4531 7.20488 11.6048 5.24322 7.7548 4.91322H7.64481C5.46314 4.72989 3.6665 6.36154 3.6665 8.56154Z" fill="url(#paint1_radial_1594_6129)" fill-opacity="0.6"/>
<path d="M34.8333 5.09668V12.9616C34.8333 13.695 34.0266 14.1349 33.4033 13.7316L31.1667 12.2466L28.9301 13.7316C28.3251 14.1349 27.5 13.695 27.5 12.9616V7.18659C29.9017 6.23326 32.5783 5.46335 34.8333 5.09668Z" fill="#1EACE9"/>
<path d="M34.8333 5.09668V12.9616C34.8333 13.695 34.0266 14.1349 33.4033 13.7316L31.1667 12.2466L28.9301 13.7316C28.3251 14.1349 27.5 13.695 27.5 12.9616V7.18659C29.9017 6.23326 32.5783 5.46335 34.8333 5.09668Z" fill="url(#paint2_radial_1594_6129)" fill-opacity="0.6"/>
<defs>
<radialGradient id="paint0_radial_1594_6129" cx="0" cy="0" r="1" gradientUnits="userSpaceOnUse" gradientTransform="translate(27.8607 11.6137) rotate(70.1118) scale(22.9704 15.8433)">
<stop stop-color="white"/>
<stop offset="0.697917" stop-color="white" stop-opacity="0"/>
<stop offset="1" stop-color="white" stop-opacity="0"/>
</radialGradient>
<radialGradient id="paint1_radial_1594_6129" cx="0" cy="0" r="1" gradientUnits="userSpaceOnUse" gradientTransform="translate(9.52716 11.6282) rotate(70.102) scale(22.9596 15.8423)">
<stop stop-color="white"/>
<stop offset="0.697917" stop-color="white" stop-opacity="0"/>
<stop offset="1" stop-color="white" stop-opacity="0"/>
</radialGradient>
<radialGradient id="paint2_radial_1594_6129" cx="0" cy="0" r="1" gradientUnits="userSpaceOnUse" gradientTransform="translate(29.8443 6.8255) rotate(60.5975) scale(6.36672 5.8712)">
<stop stop-color="white"/>
<stop offset="0.697917" stop-color="white" stop-opacity="0"/>
<stop offset="1" stop-color="white" stop-opacity="0"/>
</radialGradient>
</defs>
</svg>
