<svg width="44" height="44" viewBox="0 0 44 44" fill="none" xmlns="http://www.w3.org/2000/svg">
<g opacity="0.4">
<path d="M14.6667 40.3333H29.3333C34.3933 40.3333 38.5 36.2266 38.5 31.1666V12.8333C38.5 7.77329 34.3933 3.66663 29.3333 3.66663H14.6667C9.60667 3.66663 5.5 7.77329 5.5 12.8333V31.1666C5.5 36.2266 9.60667 40.3333 14.6667 40.3333Z" fill="#E9671E"/>
<path d="M14.6667 40.3333H29.3333C34.3933 40.3333 38.5 36.2266 38.5 31.1666V12.8333C38.5 7.77329 34.3933 3.66663 29.3333 3.66663H14.6667C9.60667 3.66663 5.5 7.77329 5.5 12.8333V31.1666C5.5 36.2266 9.60667 40.3333 14.6667 40.3333Z" fill="url(#paint0_radial_1594_4063)" fill-opacity="0.6"/>
</g>
<path d="M27.4999 10.4684H16.4999C14.6116 10.4684 13.0532 12.0084 13.0532 13.9151V15.7484C13.0532 17.6367 14.5932 19.1951 16.4999 19.1951H27.4999C29.3882 19.1951 30.9466 17.6551 30.9466 15.7484V13.9151C30.9466 12.0084 29.4066 10.4684 27.4999 10.4684Z" fill="#E9671E"/>
<path d="M27.4999 10.4684H16.4999C14.6116 10.4684 13.0532 12.0084 13.0532 13.9151V15.7484C13.0532 17.6367 14.5932 19.1951 16.4999 19.1951H27.4999C29.3882 19.1951 30.9466 17.6551 30.9466 15.7484V13.9151C30.9466 12.0084 29.4066 10.4684 27.4999 10.4684Z" fill="url(#paint1_radial_1594_4063)" fill-opacity="0.6"/>
<path d="M14.9601 27.3533C14.7034 27.3533 14.4651 27.2983 14.2451 27.2067C14.0251 27.115 13.8234 26.9867 13.6584 26.8217C13.3101 26.4733 13.1084 26.015 13.1084 25.52C13.1084 25.2817 13.1634 25.0433 13.2551 24.8233C13.3467 24.585 13.4751 24.4017 13.6584 24.2183C14.0801 23.7967 14.7217 23.595 15.3084 23.7233C15.4184 23.7417 15.5467 23.7783 15.6567 23.8333C15.7667 23.87 15.8767 23.925 15.9684 23.9983C16.0784 24.0533 16.1701 24.145 16.2434 24.2183C16.4084 24.4017 16.5551 24.585 16.6467 24.8233C16.7384 25.0433 16.7751 25.2817 16.7751 25.52C16.7751 26.015 16.5917 26.4733 16.2434 26.8217C15.8951 27.17 15.4367 27.3533 14.9601 27.3533Z" fill="#E9671E"/>
<path d="M14.9601 27.3533C14.7034 27.3533 14.4651 27.2983 14.2451 27.2067C14.0251 27.115 13.8234 26.9867 13.6584 26.8217C13.3101 26.4733 13.1084 26.015 13.1084 25.52C13.1084 25.2817 13.1634 25.0433 13.2551 24.8233C13.3467 24.585 13.4751 24.4017 13.6584 24.2183C14.0801 23.7967 14.7217 23.595 15.3084 23.7233C15.4184 23.7417 15.5467 23.7783 15.6567 23.8333C15.7667 23.87 15.8767 23.925 15.9684 23.9983C16.0784 24.0533 16.1701 24.145 16.2434 24.2183C16.4084 24.4017 16.5551 24.585 16.6467 24.8233C16.7384 25.0433 16.7751 25.2817 16.7751 25.52C16.7751 26.015 16.5917 26.4733 16.2434 26.8217C15.8951 27.17 15.4367 27.3533 14.9601 27.3533Z" fill="url(#paint2_radial_1594_4063)" fill-opacity="0.6"/>
<path d="M22.2752 27.3533C21.7986 27.3533 21.3402 27.17 20.9919 26.8217C20.6436 26.4733 20.4419 26.015 20.4419 25.52C20.4419 25.0433 20.6436 24.5667 20.9919 24.2183C21.6702 23.54 22.8986 23.54 23.5769 24.2183C23.7419 24.4017 23.8886 24.585 23.9802 24.8233C24.0719 25.0433 24.1086 25.2817 24.1086 25.52C24.1086 26.015 23.9252 26.4733 23.5769 26.8217C23.2286 27.17 22.7702 27.3533 22.2752 27.3533Z" fill="#E9671E"/>
<path d="M22.2752 27.3533C21.7986 27.3533 21.3402 27.17 20.9919 26.8217C20.6436 26.4733 20.4419 26.015 20.4419 25.52C20.4419 25.0433 20.6436 24.5667 20.9919 24.2183C21.6702 23.54 22.8986 23.54 23.5769 24.2183C23.7419 24.4017 23.8886 24.585 23.9802 24.8233C24.0719 25.0433 24.1086 25.2817 24.1086 25.52C24.1086 26.015 23.9252 26.4733 23.5769 26.8217C23.2286 27.17 22.7702 27.3533 22.2752 27.3533Z" fill="url(#paint3_radial_1594_4063)" fill-opacity="0.6"/>
<path d="M29.6082 27.3533C29.1316 27.3533 28.6732 27.17 28.3249 26.8217C27.9766 26.4733 27.7749 26.015 27.7749 25.52C27.7749 25.0433 27.9766 24.5667 28.3249 24.2183C29.0032 23.54 30.2316 23.54 30.9099 24.2183C31.2582 24.5667 31.4599 25.0433 31.4599 25.52C31.4599 25.7583 31.4049 25.9967 31.3132 26.2167C31.2216 26.4367 31.0932 26.6383 30.9099 26.8217C30.5616 27.17 30.1032 27.3533 29.6082 27.3533Z" fill="#E9671E"/>
<path d="M29.6082 27.3533C29.1316 27.3533 28.6732 27.17 28.3249 26.8217C27.9766 26.4733 27.7749 26.015 27.7749 25.52C27.7749 25.0433 27.9766 24.5667 28.3249 24.2183C29.0032 23.54 30.2316 23.54 30.9099 24.2183C31.2582 24.5667 31.4599 25.0433 31.4599 25.52C31.4599 25.7583 31.4049 25.9967 31.3132 26.2167C31.2216 26.4367 31.0932 26.6383 30.9099 26.8217C30.5616 27.17 30.1032 27.3533 29.6082 27.3533Z" fill="url(#paint4_radial_1594_4063)" fill-opacity="0.6"/>
<path d="M14.9601 34.6867C14.4651 34.6867 14.0067 34.5033 13.6584 34.155C13.3101 33.8067 13.1084 33.3483 13.1084 32.8533C13.1084 32.3767 13.3101 31.9 13.6584 31.5517C13.8234 31.3867 14.0251 31.2583 14.2451 31.1667C14.7034 30.9833 15.1984 30.9833 15.6567 31.1667C15.7667 31.2033 15.8767 31.2583 15.9684 31.3317C16.0784 31.3867 16.1701 31.4783 16.2434 31.5517C16.5917 31.9 16.7934 32.3767 16.7934 32.8533C16.7934 33.3483 16.5917 33.8067 16.2434 34.155C15.8951 34.5033 15.4367 34.6867 14.9601 34.6867Z" fill="#E9671E"/>
<path d="M14.9601 34.6867C14.4651 34.6867 14.0067 34.5033 13.6584 34.155C13.3101 33.8067 13.1084 33.3483 13.1084 32.8533C13.1084 32.3767 13.3101 31.9 13.6584 31.5517C13.8234 31.3867 14.0251 31.2583 14.2451 31.1667C14.7034 30.9833 15.1984 30.9833 15.6567 31.1667C15.7667 31.2033 15.8767 31.2583 15.9684 31.3317C16.0784 31.3867 16.1701 31.4783 16.2434 31.5517C16.5917 31.9 16.7934 32.3767 16.7934 32.8533C16.7934 33.3483 16.5917 33.8067 16.2434 34.155C15.8951 34.5033 15.4367 34.6867 14.9601 34.6867Z" fill="url(#paint5_radial_1594_4063)" fill-opacity="0.6"/>
<path d="M22.2752 34.6866C21.7986 34.6866 21.3402 34.5033 20.9919 34.155C20.6436 33.8066 20.4419 33.3483 20.4419 32.8533C20.4419 32.725 20.4602 32.615 20.4786 32.4866C20.5152 32.3766 20.5519 32.2666 20.5886 32.1566C20.6436 32.0466 20.6986 31.9366 20.7536 31.8266C20.8269 31.735 20.9002 31.6433 20.9919 31.5516C21.1569 31.3866 21.3586 31.2583 21.5786 31.1666C22.2569 30.8916 23.0636 31.0383 23.5769 31.5516C23.9252 31.9 24.1086 32.3766 24.1086 32.8533C24.1086 33.3483 23.9252 33.8066 23.5769 34.155C23.4119 34.32 23.2102 34.4483 22.9902 34.54C22.7702 34.6316 22.5319 34.6866 22.2752 34.6866Z" fill="#E9671E"/>
<path d="M22.2752 34.6866C21.7986 34.6866 21.3402 34.5033 20.9919 34.155C20.6436 33.8066 20.4419 33.3483 20.4419 32.8533C20.4419 32.725 20.4602 32.615 20.4786 32.4866C20.5152 32.3766 20.5519 32.2666 20.5886 32.1566C20.6436 32.0466 20.6986 31.9366 20.7536 31.8266C20.8269 31.735 20.9002 31.6433 20.9919 31.5516C21.1569 31.3866 21.3586 31.2583 21.5786 31.1666C22.2569 30.8916 23.0636 31.0383 23.5769 31.5516C23.9252 31.9 24.1086 32.3766 24.1086 32.8533C24.1086 33.3483 23.9252 33.8066 23.5769 34.155C23.4119 34.32 23.2102 34.4483 22.9902 34.54C22.7702 34.6316 22.5319 34.6866 22.2752 34.6866Z" fill="url(#paint6_radial_1594_4063)" fill-opacity="0.6"/>
<path d="M29.6085 34.6866C29.3701 34.6866 29.1318 34.6316 28.9118 34.54C28.6918 34.4483 28.4901 34.32 28.3251 34.155C27.9768 33.8066 27.7935 33.3483 27.7935 32.8533C27.7935 32.3766 27.9768 31.9 28.3251 31.5516C28.8201 31.0383 29.6451 30.8916 30.3235 31.1666C30.5435 31.2583 30.7451 31.3866 30.9101 31.5516C31.2585 31.9 31.4418 32.3766 31.4418 32.8533C31.4418 33.3483 31.2585 33.8066 30.9101 34.155C30.5618 34.5033 30.1035 34.6866 29.6085 34.6866Z" fill="#E9671E"/>
<path d="M29.6085 34.6866C29.3701 34.6866 29.1318 34.6316 28.9118 34.54C28.6918 34.4483 28.4901 34.32 28.3251 34.155C27.9768 33.8066 27.7935 33.3483 27.7935 32.8533C27.7935 32.3766 27.9768 31.9 28.3251 31.5516C28.8201 31.0383 29.6451 30.8916 30.3235 31.1666C30.5435 31.2583 30.7451 31.3866 30.9101 31.5516C31.2585 31.9 31.4418 32.3766 31.4418 32.8533C31.4418 33.3483 31.2585 33.8066 30.9101 34.155C30.5618 34.5033 30.1035 34.6866 29.6085 34.6866Z" fill="url(#paint7_radial_1594_4063)" fill-opacity="0.6"/>
<defs>
<radialGradient id="paint0_radial_1594_4063" cx="0" cy="0" r="1" gradientUnits="userSpaceOnUse" gradientTransform="translate(16.0492 10.8797) rotate(58.7091) scale(27.0813 25.9154)">
<stop stop-color="white"/>
<stop offset="0.697917" stop-color="white" stop-opacity="0"/>
<stop offset="1" stop-color="white" stop-opacity="0"/>
</radialGradient>
<radialGradient id="paint1_radial_1594_4063" cx="0" cy="0" r="1" gradientUnits="userSpaceOnUse" gradientTransform="translate(18.7732 12.1851) rotate(35.836) scale(9.40755 9.62731)">
<stop stop-color="white"/>
<stop offset="0.697917" stop-color="white" stop-opacity="0"/>
<stop offset="1" stop-color="white" stop-opacity="0"/>
</radialGradient>
<radialGradient id="paint2_radial_1594_4063" cx="0" cy="0" r="1" gradientUnits="userSpaceOnUse" gradientTransform="translate(14.2805 24.4067) rotate(55.9796) scale(2.79334 2.79288)">
<stop stop-color="white"/>
<stop offset="0.697917" stop-color="white" stop-opacity="0"/>
<stop offset="1" stop-color="white" stop-opacity="0"/>
</radialGradient>
<radialGradient id="paint3_radial_1594_4063" cx="0" cy="0" r="1" gradientUnits="userSpaceOnUse" gradientTransform="translate(21.614 24.4264) rotate(55.8011) scale(2.78052 2.78699)">
<stop stop-color="white"/>
<stop offset="0.697917" stop-color="white" stop-opacity="0"/>
<stop offset="1" stop-color="white" stop-opacity="0"/>
</radialGradient>
<radialGradient id="paint4_radial_1594_4063" cx="0" cy="0" r="1" gradientUnits="userSpaceOnUse" gradientTransform="translate(28.9529 24.4264) rotate(55.6681) scale(2.78492 2.7965)">
<stop stop-color="white"/>
<stop offset="0.697917" stop-color="white" stop-opacity="0"/>
<stop offset="1" stop-color="white" stop-opacity="0"/>
</radialGradient>
<radialGradient id="paint5_radial_1594_4063" cx="0" cy="0" r="1" gradientUnits="userSpaceOnUse" gradientTransform="translate(14.2864 31.7487) rotate(55.7685) scale(2.79209 2.79985)">
<stop stop-color="white"/>
<stop offset="0.697917" stop-color="white" stop-opacity="0"/>
<stop offset="1" stop-color="white" stop-opacity="0"/>
</radialGradient>
<radialGradient id="paint6_radial_1594_4063" cx="0" cy="0" r="1" gradientUnits="userSpaceOnUse" gradientTransform="translate(21.614 31.7495) rotate(55.8939) scale(2.78717 2.79006)">
<stop stop-color="white"/>
<stop offset="0.697917" stop-color="white" stop-opacity="0"/>
<stop offset="1" stop-color="white" stop-opacity="0"/>
</radialGradient>
<radialGradient id="paint7_radial_1594_4063" cx="0" cy="0" r="1" gradientUnits="userSpaceOnUse" gradientTransform="translate(28.9597 31.7495) rotate(56.0271) scale(2.7828 2.78047)">
<stop stop-color="white"/>
<stop offset="0.697917" stop-color="white" stop-opacity="0"/>
<stop offset="1" stop-color="white" stop-opacity="0"/>
</radialGradient>
</defs>
</svg>
