<svg width="44" height="45" viewBox="0 0 44 45" fill="none" xmlns="http://www.w3.org/2000/svg">
<path d="M38.5 30.2916H27.5C26.7483 30.2916 26.125 29.6683 26.125 28.9166C26.125 28.165 26.7483 27.5416 27.5 27.5416H38.5C39.2517 27.5416 39.875 28.165 39.875 28.9166C39.875 29.6683 39.2517 30.2916 38.5 30.2916Z" fill="#EC1414"/>
<path d="M38.5 30.2916H27.5C26.7483 30.2916 26.125 29.6683 26.125 28.9166C26.125 28.165 26.7483 27.5416 27.5 27.5416H38.5C39.2517 27.5416 39.875 28.165 39.875 28.9166C39.875 29.6683 39.2517 30.2916 38.5 30.2916Z" fill="url(#paint0_radial_1594_1150)" fill-opacity="0.6"/>
<path d="M38.5 37.625H27.5C26.7483 37.625 26.125 37.0017 26.125 36.25C26.125 35.4983 26.7483 34.875 27.5 34.875H38.5C39.2517 34.875 39.875 35.4983 39.875 36.25C39.875 37.0017 39.2517 37.625 38.5 37.625Z" fill="#EC1414"/>
<path d="M38.5 37.625H27.5C26.7483 37.625 26.125 37.0017 26.125 36.25C26.125 35.4983 26.7483 34.875 27.5 34.875H38.5C39.2517 34.875 39.875 35.4983 39.875 36.25C39.875 37.0017 39.2517 37.625 38.5 37.625Z" fill="url(#paint1_radial_1594_1150)" fill-opacity="0.6"/>
<g opacity="0.4">
<path d="M40.3333 16.12V7.79663C40.3333 5.21163 39.16 4.16663 36.245 4.16663H28.8383C25.9233 4.16663 24.75 5.21163 24.75 7.79663V16.1016C24.75 18.705 25.9233 19.7316 28.8383 19.7316H36.245C39.16 19.75 40.3333 18.705 40.3333 16.12Z" fill="#EC1414"/>
<path d="M40.3333 16.12V7.79663C40.3333 5.21163 39.16 4.16663 36.245 4.16663H28.8383C25.9233 4.16663 24.75 5.21163 24.75 7.79663V16.1016C24.75 18.705 25.9233 19.7316 28.8383 19.7316H36.245C39.16 19.75 40.3333 18.705 40.3333 16.12Z" fill="url(#paint2_radial_1594_1150)" fill-opacity="0.6"/>
</g>
<path d="M19.2498 16.12V7.79663C19.2498 5.21163 18.0765 4.16663 15.1615 4.16663H7.75484C4.83984 4.16663 3.6665 5.21163 3.6665 7.79663V16.1016C3.6665 18.705 4.83984 19.7316 7.75484 19.7316H15.1615C18.0765 19.75 19.2498 18.705 19.2498 16.12Z" fill="#EC1414"/>
<path d="M19.2498 16.12V7.79663C19.2498 5.21163 18.0765 4.16663 15.1615 4.16663H7.75484C4.83984 4.16663 3.6665 5.21163 3.6665 7.79663V16.1016C3.6665 18.705 4.83984 19.7316 7.75484 19.7316H15.1615C18.0765 19.75 19.2498 18.705 19.2498 16.12Z" fill="url(#paint3_radial_1594_1150)" fill-opacity="0.6"/>
<g opacity="0.4">
<path d="M19.2498 36.745V29.3383C19.2498 26.4233 18.0765 25.25 15.1615 25.25H7.75484C4.83984 25.25 3.6665 26.4233 3.6665 29.3383V36.745C3.6665 39.66 4.83984 40.8333 7.75484 40.8333H15.1615C18.0765 40.8333 19.2498 39.66 19.2498 36.745Z" fill="#EC1414"/>
<path d="M19.2498 36.745V29.3383C19.2498 26.4233 18.0765 25.25 15.1615 25.25H7.75484C4.83984 25.25 3.6665 26.4233 3.6665 29.3383V36.745C3.6665 39.66 4.83984 40.8333 7.75484 40.8333H15.1615C18.0765 40.8333 19.2498 39.66 19.2498 36.745Z" fill="url(#paint4_radial_1594_1150)" fill-opacity="0.6"/>
</g>
<defs>
<radialGradient id="paint0_radial_1594_1150" cx="0" cy="0" r="1" gradientUnits="userSpaceOnUse" gradientTransform="translate(30.5205 28.0826) rotate(16.4969) scale(6.11226 3.58819)">
<stop stop-color="white"/>
<stop offset="0.697917" stop-color="white" stop-opacity="0"/>
<stop offset="1" stop-color="white" stop-opacity="0"/>
</radialGradient>
<radialGradient id="paint1_radial_1594_1150" cx="0" cy="0" r="1" gradientUnits="userSpaceOnUse" gradientTransform="translate(30.5205 35.416) rotate(16.4969) scale(6.11226 3.58819)">
<stop stop-color="white"/>
<stop offset="0.697917" stop-color="white" stop-opacity="0"/>
<stop offset="1" stop-color="white" stop-opacity="0"/>
</radialGradient>
<radialGradient id="paint2_radial_1594_1150" cx="0" cy="0" r="1" gradientUnits="userSpaceOnUse" gradientTransform="translate(29.7316 7.22864) rotate(55.937) scale(11.8586 11.8638)">
<stop stop-color="white"/>
<stop offset="0.697917" stop-color="white" stop-opacity="0"/>
<stop offset="1" stop-color="white" stop-opacity="0"/>
</radialGradient>
<radialGradient id="paint3_radial_1594_1150" cx="0" cy="0" r="1" gradientUnits="userSpaceOnUse" gradientTransform="translate(8.64806 7.22864) rotate(55.937) scale(11.8586 11.8638)">
<stop stop-color="white"/>
<stop offset="0.697917" stop-color="white" stop-opacity="0"/>
<stop offset="1" stop-color="white" stop-opacity="0"/>
</radialGradient>
<radialGradient id="paint4_radial_1594_1150" cx="0" cy="0" r="1" gradientUnits="userSpaceOnUse" gradientTransform="translate(8.64806 28.3156) rotate(55.9679) scale(11.8681)">
<stop stop-color="white"/>
<stop offset="0.697917" stop-color="white" stop-opacity="0"/>
<stop offset="1" stop-color="white" stop-opacity="0"/>
</radialGradient>
</defs>
</svg>
