<svg width="44" height="44" viewBox="0 0 44 44" fill="none" xmlns="http://www.w3.org/2000/svg">
<g opacity="0.4">
<path d="M40.3332 11.4583V20.8082C40.3332 23.1366 39.5632 25.0983 38.1882 26.4549C36.8315 27.8299 34.8698 28.5999 32.5415 28.5999V31.9182C32.5415 33.1649 31.1482 33.9166 30.1215 33.22L28.3432 32.0466C28.5082 31.4783 28.5815 30.8549 28.5815 30.1949V22.7333C28.5815 18.9933 26.0882 16.5 22.3482 16.5H9.89983C9.64316 16.5 9.40484 16.5183 9.1665 16.5367V11.4583C9.1665 6.78329 12.2832 3.66663 16.9582 3.66663H32.5415C37.2165 3.66663 40.3332 6.78329 40.3332 11.4583Z" fill="#DEC800"/>
<path d="M40.3332 11.4583V20.8082C40.3332 23.1366 39.5632 25.0983 38.1882 26.4549C36.8315 27.8299 34.8698 28.5999 32.5415 28.5999V31.9182C32.5415 33.1649 31.1482 33.9166 30.1215 33.22L28.3432 32.0466C28.5082 31.4783 28.5815 30.8549 28.5815 30.1949V22.7333C28.5815 18.9933 26.0882 16.5 22.3482 16.5H9.89983C9.64316 16.5 9.40484 16.5183 9.1665 16.5367V11.4583C9.1665 6.78329 12.2832 3.66663 16.9582 3.66663H32.5415C37.2165 3.66663 40.3332 6.78329 40.3332 11.4583Z" fill="url(#paint0_radial_1594_1307)" fill-opacity="0.6"/>
</g>
<path d="M28.5815 22.7334V30.1949C28.5815 30.8549 28.5082 31.4783 28.3432 32.0466C27.6649 34.7416 25.4282 36.4283 22.3482 36.4283H17.3615L11.8248 40.1133C10.9998 40.6817 9.89983 40.0767 9.89983 39.0867V36.4283C8.02983 36.4283 6.47151 35.805 5.38984 34.7233C4.28984 33.6233 3.6665 32.0649 3.6665 30.1949V22.7334C3.6665 19.25 5.82984 16.8484 9.1665 16.5367C9.40484 16.5184 9.64316 16.5 9.89983 16.5H22.3482C26.0882 16.5 28.5815 18.9934 28.5815 22.7334Z" fill="#DEC800"/>
<path d="M28.5815 22.7334V30.1949C28.5815 30.8549 28.5082 31.4783 28.3432 32.0466C27.6649 34.7416 25.4282 36.4283 22.3482 36.4283H17.3615L11.8248 40.1133C10.9998 40.6817 9.89983 40.0767 9.89983 39.0867V36.4283C8.02983 36.4283 6.47151 35.805 5.38984 34.7233C4.28984 33.6233 3.6665 32.0649 3.6665 30.1949V22.7334C3.6665 19.25 5.82984 16.8484 9.1665 16.5367C9.40484 16.5184 9.64316 16.5 9.89983 16.5H22.3482C26.0882 16.5 28.5815 18.9934 28.5815 22.7334Z" fill="url(#paint1_radial_1594_1307)" fill-opacity="0.6"/>
<defs>
<radialGradient id="paint0_radial_1594_1307" cx="0" cy="0" r="1" gradientUnits="userSpaceOnUse" gradientTransform="translate(19.1296 9.53281) rotate(54.7845) scale(23.0366 23.4001)">
<stop stop-color="white"/>
<stop offset="0.697917" stop-color="white" stop-opacity="0"/>
<stop offset="1" stop-color="white" stop-opacity="0"/>
</radialGradient>
<radialGradient id="paint1_radial_1594_1307" cx="0" cy="0" r="1" gradientUnits="userSpaceOnUse" gradientTransform="translate(11.6311 21.1884) rotate(54.7781) scale(18.4129 18.7048)">
<stop stop-color="white"/>
<stop offset="0.697917" stop-color="white" stop-opacity="0"/>
<stop offset="1" stop-color="white" stop-opacity="0"/>
</radialGradient>
</defs>
</svg>
