<svg width="44" height="44" viewBox="0 0 44 44" fill="none" xmlns="http://www.w3.org/2000/svg">
<path d="M34.8335 14.6666C37.8711 14.6666 40.3335 12.2042 40.3335 9.16663C40.3335 6.12906 37.8711 3.66663 34.8335 3.66663C31.7959 3.66663 29.3335 6.12906 29.3335 9.16663C29.3335 12.2042 31.7959 14.6666 34.8335 14.6666Z" fill="#EF8E48"/>
<path d="M34.8335 14.6666C37.8711 14.6666 40.3335 12.2042 40.3335 9.16663C40.3335 6.12906 37.8711 3.66663 34.8335 3.66663C31.7959 3.66663 29.3335 6.12906 29.3335 9.16663C29.3335 12.2042 31.7959 14.6666 34.8335 14.6666Z" fill="url(#paint0_radial_1594_38688)" fill-opacity="0.6"/>
<path d="M37.2898 23.32H31.2215C29.5165 23.32 27.9948 24.2733 27.2248 25.7766L25.7582 28.6733C25.4098 29.37 24.7132 29.7916 23.9432 29.7916H18.2415C17.7098 29.7916 16.9215 29.6816 16.4265 28.655L14.9782 25.7766C14.2082 24.255 12.6865 23.3016 10.9815 23.3016H4.8765C4.2165 23.32 3.6665 23.87 3.6665 24.53V30.195C3.6665 36.5566 7.4615 40.3333 13.8048 40.3333H28.3982C34.3748 40.3333 38.0598 37.0516 38.4998 31.24V24.53C38.4998 23.87 37.9498 23.32 37.2898 23.32Z" fill="#EF8E48"/>
<path d="M37.2898 23.32H31.2215C29.5165 23.32 27.9948 24.2733 27.2248 25.7766L25.7582 28.6733C25.4098 29.37 24.7132 29.7916 23.9432 29.7916H18.2415C17.7098 29.7916 16.9215 29.6816 16.4265 28.655L14.9782 25.7766C14.2082 24.255 12.6865 23.3016 10.9815 23.3016H4.8765C4.2165 23.32 3.6665 23.87 3.6665 24.53V30.195C3.6665 36.5566 7.4615 40.3333 13.8048 40.3333H28.3982C34.3748 40.3333 38.0598 37.0516 38.4998 31.24V24.53C38.4998 23.87 37.9498 23.32 37.2898 23.32Z" fill="url(#paint1_radial_1594_38688)" fill-opacity="0.6"/>
<g opacity="0.4">
<path d="M34.8332 17.4167C30.2865 17.4167 26.5832 13.7133 26.5832 9.16667C26.5832 7.84667 26.9315 6.61833 27.4815 5.5H13.7865C7.4615 5.5 3.6665 9.27667 3.6665 15.62V30.195C3.6665 36.5567 7.4615 40.3333 13.7865 40.3333H28.3615C34.7048 40.3333 38.4815 36.5567 38.4815 30.2133V16.5183C37.3815 17.0683 36.1532 17.4167 34.8332 17.4167Z" fill="#EF8E48"/>
<path d="M34.8332 17.4167C30.2865 17.4167 26.5832 13.7133 26.5832 9.16667C26.5832 7.84667 26.9315 6.61833 27.4815 5.5H13.7865C7.4615 5.5 3.6665 9.27667 3.6665 15.62V30.195C3.6665 36.5567 7.4615 40.3333 13.7865 40.3333H28.3615C34.7048 40.3333 38.4815 36.5567 38.4815 30.2133V16.5183C37.3815 17.0683 36.1532 17.4167 34.8332 17.4167Z" fill="url(#paint2_radial_1594_38688)" fill-opacity="0.6"/>
</g>
<defs>
<radialGradient id="paint0_radial_1594_38688" cx="0" cy="0" r="1" gradientUnits="userSpaceOnUse" gradientTransform="translate(32.8499 5.83056) rotate(55.9679) scale(8.37749)">
<stop stop-color="white"/>
<stop offset="0.697917" stop-color="white" stop-opacity="0"/>
<stop offset="1" stop-color="white" stop-opacity="0"/>
</radialGradient>
<radialGradient id="paint1_radial_1594_38688" cx="0" cy="0" r="1" gradientUnits="userSpaceOnUse" gradientTransform="translate(14.8018 26.6521) rotate(35.9052) scale(18.3299 18.773)">
<stop stop-color="white"/>
<stop offset="0.697917" stop-color="white" stop-opacity="0"/>
<stop offset="1" stop-color="white" stop-opacity="0"/>
</radialGradient>
<radialGradient id="paint2_radial_1594_38688" cx="0" cy="0" r="1" gradientUnits="userSpaceOnUse" gradientTransform="translate(14.7959 12.3525) rotate(55.9819) scale(26.5243 26.5191)">
<stop stop-color="white"/>
<stop offset="0.697917" stop-color="white" stop-opacity="0"/>
<stop offset="1" stop-color="white" stop-opacity="0"/>
</radialGradient>
</defs>
</svg>
