<svg width="44" height="44" viewBox="0 0 44 44" fill="none" xmlns="http://www.w3.org/2000/svg">
<g opacity="0.4">
<path d="M33 37.5833H31.1667V37.125C31.1667 35.1083 29.5167 33.4583 27.5 33.4583H23.375V29.26C22.9167 29.315 22.4583 29.3333 22 29.3333C21.5417 29.3333 21.0833 29.315 20.625 29.26V33.4583H16.5C14.4833 33.4583 12.8333 35.1083 12.8333 37.125V37.5833H11C10.2483 37.5833 9.625 38.2067 9.625 38.9583C9.625 39.71 10.2483 40.3333 11 40.3333H33C33.7517 40.3333 34.375 39.71 34.375 38.9583C34.375 38.2067 33.7517 37.5833 33 37.5833Z" fill="#08B78D"/>
<path d="M33 37.5833H31.1667V37.125C31.1667 35.1083 29.5167 33.4583 27.5 33.4583H23.375V29.26C22.9167 29.315 22.4583 29.3333 22 29.3333C21.5417 29.3333 21.0833 29.315 20.625 29.26V33.4583H16.5C14.4833 33.4583 12.8333 35.1083 12.8333 37.125V37.5833H11C10.2483 37.5833 9.625 38.2067 9.625 38.9583C9.625 39.71 10.2483 40.3333 11 40.3333H33C33.7517 40.3333 34.375 39.71 34.375 38.9583C34.375 38.2067 33.7517 37.5833 33 37.5833Z" fill="url(#paint0_radial_1207_104014)" fill-opacity="0.6"/>
</g>
<g opacity="0.4">
<path d="M10.1202 21.3401C8.91018 20.8817 7.84684 20.1301 7.00351 19.2867C5.29851 17.3984 4.18018 15.1434 4.18018 12.5034C4.18018 9.86341 6.25184 7.79175 8.89184 7.79175H9.91851C9.44184 8.76341 9.16684 9.84508 9.16684 11.0001V16.5001C9.16684 18.2234 9.49684 19.8551 10.1202 21.3401Z" fill="#08B78D"/>
<path d="M10.1202 21.3401C8.91018 20.8817 7.84684 20.1301 7.00351 19.2867C5.29851 17.3984 4.18018 15.1434 4.18018 12.5034C4.18018 9.86341 6.25184 7.79175 8.89184 7.79175H9.91851C9.44184 8.76341 9.16684 9.84508 9.16684 11.0001V16.5001C9.16684 18.2234 9.49684 19.8551 10.1202 21.3401Z" fill="url(#paint1_radial_1207_104014)" fill-opacity="0.6"/>
</g>
<g opacity="0.4">
<path d="M39.8199 12.5034C39.8199 15.1434 38.7016 17.3984 36.9966 19.2867C36.1532 20.1301 35.0899 20.8817 33.8799 21.3401C34.5032 19.8551 34.8332 18.2234 34.8332 16.5001V11.0001C34.8332 9.84508 34.5582 8.76341 34.0816 7.79175H35.1082C37.7482 7.79175 39.8199 9.86341 39.8199 12.5034Z" fill="#08B78D"/>
<path d="M39.8199 12.5034C39.8199 15.1434 38.7016 17.3984 36.9966 19.2867C36.1532 20.1301 35.0899 20.8817 33.8799 21.3401C34.5032 19.8551 34.8332 18.2234 34.8332 16.5001V11.0001C34.8332 9.84508 34.5582 8.76341 34.0816 7.79175H35.1082C37.7482 7.79175 39.8199 9.86341 39.8199 12.5034Z" fill="url(#paint2_radial_1207_104014)" fill-opacity="0.6"/>
</g>
<path d="M27.4998 3.66675H16.4998C12.4482 3.66675 9.1665 6.94841 9.1665 11.0001V16.5001C9.1665 23.5951 14.9048 29.3334 21.9998 29.3334C29.0948 29.3334 34.8332 23.5951 34.8332 16.5001V11.0001C34.8332 6.94841 31.5515 3.66675 27.4998 3.66675ZM27.2065 15.4917L26.0698 16.8851C25.8865 17.0867 25.7582 17.4901 25.7765 17.7651L25.8865 19.5617C25.9598 20.6617 25.1715 21.2301 24.1448 20.8267L22.4765 20.1667C22.2198 20.0751 21.7798 20.0751 21.5232 20.1667L19.8548 20.8267C18.8282 21.2301 18.0398 20.6617 18.1132 19.5617L18.2232 17.7651C18.2415 17.4901 18.1132 17.0867 17.9298 16.8851L16.7932 15.4917C16.0782 14.6484 16.3898 13.7134 17.4532 13.4384L19.1948 12.9984C19.4698 12.9251 19.7998 12.6684 19.9465 12.4301L20.9182 10.9267C21.5232 9.99175 22.4765 9.99175 23.0815 10.9267L24.0532 12.4301C24.1998 12.6684 24.5298 12.9251 24.8048 12.9984L26.5465 13.4384C27.6098 13.7134 27.9215 14.6484 27.2065 15.4917Z" fill="#08B78D"/>
<path d="M27.4998 3.66675H16.4998C12.4482 3.66675 9.1665 6.94841 9.1665 11.0001V16.5001C9.1665 23.5951 14.9048 29.3334 21.9998 29.3334C29.0948 29.3334 34.8332 23.5951 34.8332 16.5001V11.0001C34.8332 6.94841 31.5515 3.66675 27.4998 3.66675ZM27.2065 15.4917L26.0698 16.8851C25.8865 17.0867 25.7582 17.4901 25.7765 17.7651L25.8865 19.5617C25.9598 20.6617 25.1715 21.2301 24.1448 20.8267L22.4765 20.1667C22.2198 20.0751 21.7798 20.0751 21.5232 20.1667L19.8548 20.8267C18.8282 21.2301 18.0398 20.6617 18.1132 19.5617L18.2232 17.7651C18.2415 17.4901 18.1132 17.0867 17.9298 16.8851L16.7932 15.4917C16.0782 14.6484 16.3898 13.7134 17.4532 13.4384L19.1948 12.9984C19.4698 12.9251 19.7998 12.6684 19.9465 12.4301L20.9182 10.9267C21.5232 9.99175 22.4765 9.99175 23.0815 10.9267L24.0532 12.4301C24.1998 12.6684 24.5298 12.9251 24.8048 12.9984L26.5465 13.4384C27.6098 13.7134 27.9215 14.6484 27.2065 15.4917Z" fill="url(#paint3_radial_1207_104014)" fill-opacity="0.6"/>
<g opacity="0.4">
<path d="M27.2065 15.4916L26.0699 16.8849C25.8865 17.0866 25.7582 17.4899 25.7765 17.7649L25.8865 19.5616C25.9599 20.6616 25.1715 21.2299 24.1449 20.8266L22.4765 20.1666C22.2199 20.0749 21.7799 20.0749 21.5232 20.1666L19.8549 20.8266C18.8282 21.2299 18.0399 20.6616 18.1132 19.5616L18.2232 17.7649C18.2415 17.4899 18.1132 17.0866 17.9299 16.8849L16.7932 15.4916C16.0782 14.6483 16.3899 13.7133 17.4532 13.4383L19.1949 12.9983C19.4699 12.9249 19.7999 12.6683 19.9465 12.4299L20.9182 10.9266C21.5232 9.99159 22.4765 9.99159 23.0815 10.9266L24.0532 12.4299C24.1999 12.6683 24.5299 12.9249 24.8049 12.9983L26.5465 13.4383C27.6099 13.7133 27.9215 14.6483 27.2065 15.4916Z" fill="#08B78D"/>
<path d="M27.2065 15.4916L26.0699 16.8849C25.8865 17.0866 25.7582 17.4899 25.7765 17.7649L25.8865 19.5616C25.9599 20.6616 25.1715 21.2299 24.1449 20.8266L22.4765 20.1666C22.2199 20.0749 21.7799 20.0749 21.5232 20.1666L19.8549 20.8266C18.8282 21.2299 18.0399 20.6616 18.1132 19.5616L18.2232 17.7649C18.2415 17.4899 18.1132 17.0866 17.9299 16.8849L16.7932 15.4916C16.0782 14.6483 16.3899 13.7133 17.4532 13.4383L19.1949 12.9983C19.4699 12.9249 19.7999 12.6683 19.9465 12.4299L20.9182 10.9266C21.5232 9.99159 22.4765 9.99159 23.0815 10.9266L24.0532 12.4299C24.1999 12.6683 24.5299 12.9249 24.8049 12.9983L26.5465 13.4383C27.6099 13.7133 27.9215 14.6483 27.2065 15.4916Z" fill="url(#paint4_radial_1207_104014)" fill-opacity="0.6"/>
</g>
<defs>
<radialGradient id="paint0_radial_1207_104014" cx="0" cy="0" r="1" gradientUnits="userSpaceOnUse" gradientTransform="translate(17.5369 31.4384) rotate(33.5248) scale(12.6542 12.562)">
<stop stop-color="white"/>
<stop offset="0.697917" stop-color="white" stop-opacity="0"/>
<stop offset="1" stop-color="white" stop-opacity="0"/>
</radialGradient>
<radialGradient id="paint1_radial_1207_104014" cx="0" cy="0" r="1" gradientUnits="userSpaceOnUse" gradientTransform="translate(6.07903 10.457) rotate(73.5069) scale(8.91794 5.2342)">
<stop stop-color="white"/>
<stop offset="0.697917" stop-color="white" stop-opacity="0"/>
<stop offset="1" stop-color="white" stop-opacity="0"/>
</radialGradient>
<radialGradient id="paint2_radial_1207_104014" cx="0" cy="0" r="1" gradientUnits="userSpaceOnUse" gradientTransform="translate(35.7787 10.457) rotate(73.5069) scale(8.91794 5.2342)">
<stop stop-color="white"/>
<stop offset="0.697917" stop-color="white" stop-opacity="0"/>
<stop offset="1" stop-color="white" stop-opacity="0"/>
</radialGradient>
<radialGradient id="paint3_radial_1207_104014" cx="0" cy="0" r="1" gradientUnits="userSpaceOnUse" gradientTransform="translate(17.3714 8.71593) rotate(55.9679) scale(19.5475)">
<stop stop-color="white"/>
<stop offset="0.697917" stop-color="white" stop-opacity="0"/>
<stop offset="1" stop-color="white" stop-opacity="0"/>
</radialGradient>
<radialGradient id="paint4_radial_1207_104014" cx="0" cy="0" r="1" gradientUnits="userSpaceOnUse" gradientTransform="translate(19.9828 12.3364) rotate(54.8579) scale(8.28256 8.40555)">
<stop stop-color="white"/>
<stop offset="0.697917" stop-color="white" stop-opacity="0"/>
<stop offset="1" stop-color="white" stop-opacity="0"/>
</radialGradient>
</defs>
</svg>
