<svg width="44" height="44" viewBox="0 0 44 44" fill="none" xmlns="http://www.w3.org/2000/svg">
<g opacity="0.4">
<path d="M28.8198 3.66675H15.1798C14.4832 3.66675 13.8965 4.25341 13.8965 4.95008C13.8965 5.64675 14.4832 6.23341 15.1798 6.23341H21.1565L23.7232 9.64342C24.2915 10.3951 24.3648 10.5051 25.4282 10.5051H32.2482C32.9448 10.5051 33.6232 10.5967 34.2832 10.7801C34.3565 11.1101 34.3932 11.4401 34.3932 11.7884V12.4301C34.3932 13.1267 34.9798 13.7134 35.6765 13.7134C36.3731 13.7134 36.9598 13.1267 36.9598 12.4301V11.7701C36.9232 7.29675 33.2932 3.66675 28.8198 3.66675Z" fill="#E91EC8"/>
<path d="M28.8198 3.66675H15.1798C14.4832 3.66675 13.8965 4.25341 13.8965 4.95008C13.8965 5.64675 14.4832 6.23341 15.1798 6.23341H21.1565L23.7232 9.64342C24.2915 10.3951 24.3648 10.5051 25.4282 10.5051H32.2482C32.9448 10.5051 33.6232 10.5967 34.2832 10.7801C34.3565 11.1101 34.3932 11.4401 34.3932 11.7884V12.4301C34.3932 13.1267 34.9798 13.7134 35.6765 13.7134C36.3731 13.7134 36.9598 13.1267 36.9598 12.4301V11.7701C36.9232 7.29675 33.2932 3.66675 28.8198 3.66675Z" fill="url(#paint0_radial_1594_12522)" fill-opacity="0.6"/>
</g>
<path d="M36.9232 11.9901C36.1348 11.4217 35.2365 11.0001 34.2648 10.7617C33.6232 10.5784 32.9265 10.4867 32.2298 10.4867H25.4098C24.3465 10.4867 24.2732 10.3767 23.7048 9.62508L21.1382 6.21508C19.9465 4.63841 19.0115 3.66675 16.0232 3.66675H11.7698C7.2965 3.66675 3.6665 7.29675 3.6665 11.7701V32.2301C3.6665 36.7034 7.2965 40.3334 11.7698 40.3334H32.2298C36.7032 40.3334 40.3332 36.7034 40.3332 32.2301V18.5901C40.3332 15.8584 38.9948 13.4567 36.9232 11.9901ZM26.2715 29.3334H17.7282C17.0132 29.3334 16.4448 28.7651 16.4448 28.0501C16.4448 27.3534 17.0132 26.7667 17.7282 26.7667H26.2532C26.9498 26.7667 27.5365 27.3534 27.5365 28.0501C27.5365 28.7651 26.9682 29.3334 26.2715 29.3334Z" fill="#E91EC8"/>
<path d="M36.9232 11.9901C36.1348 11.4217 35.2365 11.0001 34.2648 10.7617C33.6232 10.5784 32.9265 10.4867 32.2298 10.4867H25.4098C24.3465 10.4867 24.2732 10.3767 23.7048 9.62508L21.1382 6.21508C19.9465 4.63841 19.0115 3.66675 16.0232 3.66675H11.7698C7.2965 3.66675 3.6665 7.29675 3.6665 11.7701V32.2301C3.6665 36.7034 7.2965 40.3334 11.7698 40.3334H32.2298C36.7032 40.3334 40.3332 36.7034 40.3332 32.2301V18.5901C40.3332 15.8584 38.9948 13.4567 36.9232 11.9901ZM26.2715 29.3334H17.7282C17.0132 29.3334 16.4448 28.7651 16.4448 28.0501C16.4448 27.3534 17.0132 26.7667 17.7282 26.7667H26.2532C26.9498 26.7667 27.5365 27.3534 27.5365 28.0501C27.5365 28.7651 26.9682 29.3334 26.2715 29.3334Z" fill="url(#paint1_radial_1594_12522)" fill-opacity="0.6"/>
<defs>
<radialGradient id="paint0_radial_1594_12522" cx="0" cy="0" r="1" gradientUnits="userSpaceOnUse" gradientTransform="translate(21.2692 5.64314) rotate(32.8237) scale(11.6979 11.4889)">
<stop stop-color="white"/>
<stop offset="0.697917" stop-color="white" stop-opacity="0"/>
<stop offset="1" stop-color="white" stop-opacity="0"/>
</radialGradient>
<radialGradient id="paint1_radial_1594_12522" cx="0" cy="0" r="1" gradientUnits="userSpaceOnUse" gradientTransform="translate(15.3878 10.8799) rotate(55.9679) scale(27.925 27.925)">
<stop stop-color="white"/>
<stop offset="0.697917" stop-color="white" stop-opacity="0"/>
<stop offset="1" stop-color="white" stop-opacity="0"/>
</radialGradient>
</defs>
</svg>
