<svg width="44" height="44" viewBox="0 0 44 44" fill="none" xmlns="http://www.w3.org/2000/svg">
<g opacity="0.4">
<path d="M37.5835 18.6817H32.2852C27.9402 18.6817 24.4018 15.1434 24.4018 10.7984V5.50008C24.4018 4.49175 23.5768 3.66675 22.5685 3.66675H14.7952C9.1485 3.66675 4.5835 7.33342 4.5835 13.8784V30.1217C4.5835 36.6667 9.1485 40.3334 14.7952 40.3334H29.2052C34.8518 40.3334 39.4168 36.6667 39.4168 30.1217V20.5151C39.4168 19.5067 38.5918 18.6817 37.5835 18.6817Z" fill="#0FC916"/>
<path d="M37.5835 18.6817H32.2852C27.9402 18.6817 24.4018 15.1434 24.4018 10.7984V5.50008C24.4018 4.49175 23.5768 3.66675 22.5685 3.66675H14.7952C9.1485 3.66675 4.5835 7.33342 4.5835 13.8784V30.1217C4.5835 36.6667 9.1485 40.3334 14.7952 40.3334H29.2052C34.8518 40.3334 39.4168 36.6667 39.4168 30.1217V20.5151C39.4168 19.5067 38.5918 18.6817 37.5835 18.6817Z" fill="url(#paint0_radial_1594_138)" fill-opacity="0.6"/>
</g>
<path d="M28.9669 4.05157C28.2152 3.29991 26.9136 3.81324 26.9136 4.85824V11.2566C26.9136 13.9332 29.1869 16.1516 31.9552 16.1516C33.6969 16.1699 36.1169 16.1699 38.1886 16.1699C39.2336 16.1699 39.7836 14.9416 39.0502 14.2082C36.4102 11.5499 31.6802 6.76491 28.9669 4.05157Z" fill="#0FC916"/>
<path d="M28.9669 4.05157C28.2152 3.29991 26.9136 3.81324 26.9136 4.85824V11.2566C26.9136 13.9332 29.1869 16.1516 31.9552 16.1516C33.6969 16.1699 36.1169 16.1699 38.1886 16.1699C39.2336 16.1699 39.7836 14.9416 39.0502 14.2082C36.4102 11.5499 31.6802 6.76491 28.9669 4.05157Z" fill="url(#paint1_radial_1594_138)" fill-opacity="0.6"/>
<path d="M24.75 25.2083H13.75C12.9983 25.2083 12.375 24.5849 12.375 23.8333C12.375 23.0816 12.9983 22.4583 13.75 22.4583H24.75C25.5017 22.4583 26.125 23.0816 26.125 23.8333C26.125 24.5849 25.5017 25.2083 24.75 25.2083Z" fill="#0FC916"/>
<path d="M24.75 25.2083H13.75C12.9983 25.2083 12.375 24.5849 12.375 23.8333C12.375 23.0816 12.9983 22.4583 13.75 22.4583H24.75C25.5017 22.4583 26.125 23.0816 26.125 23.8333C26.125 24.5849 25.5017 25.2083 24.75 25.2083Z" fill="url(#paint2_radial_1594_138)" fill-opacity="0.6"/>
<path d="M21.0833 32.5417H13.75C12.9983 32.5417 12.375 31.9184 12.375 31.1667C12.375 30.4151 12.9983 29.7917 13.75 29.7917H21.0833C21.835 29.7917 22.4583 30.4151 22.4583 31.1667C22.4583 31.9184 21.835 32.5417 21.0833 32.5417Z" fill="#0FC916"/>
<path d="M21.0833 32.5417H13.75C12.9983 32.5417 12.375 31.9184 12.375 31.1667C12.375 30.4151 12.9983 29.7917 13.75 29.7917H21.0833C21.835 29.7917 22.4583 30.4151 22.4583 31.1667C22.4583 31.9184 21.835 32.5417 21.0833 32.5417Z" fill="url(#paint3_radial_1594_138)" fill-opacity="0.6"/>
<defs>
<radialGradient id="paint0_radial_1594_138" cx="0" cy="0" r="1" gradientUnits="userSpaceOnUse" gradientTransform="translate(15.7187 10.8799) rotate(57.3175) scale(27.4953 26.9433)">
<stop stop-color="white"/>
<stop offset="0.697917" stop-color="white" stop-opacity="0"/>
<stop offset="1" stop-color="white" stop-opacity="0"/>
</radialGradient>
<radialGradient id="paint1_radial_1594_138" cx="0" cy="0" r="1" gradientUnits="userSpaceOnUse" gradientTransform="translate(30.9006 6.14855) rotate(55.9748) scale(9.50048 9.49955)">
<stop stop-color="white"/>
<stop offset="0.697917" stop-color="white" stop-opacity="0"/>
<stop offset="1" stop-color="white" stop-opacity="0"/>
</radialGradient>
<radialGradient id="paint2_radial_1594_138" cx="0" cy="0" r="1" gradientUnits="userSpaceOnUse" gradientTransform="translate(16.7705 22.9992) rotate(16.4969) scale(6.11226 3.58819)">
<stop stop-color="white"/>
<stop offset="0.697917" stop-color="white" stop-opacity="0"/>
<stop offset="1" stop-color="white" stop-opacity="0"/>
</radialGradient>
<radialGradient id="paint3_radial_1594_138" cx="0" cy="0" r="1" gradientUnits="userSpaceOnUse" gradientTransform="translate(15.5984 30.3327) rotate(21.9911) scale(4.63505 3.46996)">
<stop stop-color="white"/>
<stop offset="0.697917" stop-color="white" stop-opacity="0"/>
<stop offset="1" stop-color="white" stop-opacity="0"/>
</radialGradient>
</defs>
</svg>
