<svg width="44" height="44" viewBox="0 0 44 44" fill="none" xmlns="http://www.w3.org/2000/svg">
<g opacity="0.4">
<path d="M29.6815 3.66675H14.3182C7.64484 3.66675 3.6665 7.64508 3.6665 14.3184V29.6634C3.6665 36.3551 7.64484 40.3334 14.3182 40.3334H29.6632C36.3365 40.3334 40.3148 36.3551 40.3148 29.6817V14.3184C40.3332 7.64508 36.3548 3.66675 29.6815 3.66675Z" fill="#FF0000"/>
<path d="M29.6815 3.66675H14.3182C7.64484 3.66675 3.6665 7.64508 3.6665 14.3184V29.6634C3.6665 36.3551 7.64484 40.3334 14.3182 40.3334H29.6632C36.3365 40.3334 40.3148 36.3551 40.3148 29.6817V14.3184C40.3332 7.64508 36.3548 3.66675 29.6815 3.66675Z" fill="url(#paint0_radial_1207_105947)" fill-opacity="0.6"/>
</g>
<path d="M16.6831 22V19.2867C16.6831 15.785 19.1581 14.3733 22.1831 16.115L24.5298 17.4716L26.8764 18.8283C29.9014 20.57 29.9014 23.43 26.8764 25.1716L24.5298 26.5283L22.1831 27.885C19.1581 29.6267 16.6831 28.1966 16.6831 24.7133V22Z" fill="#FF0000"/>
<path d="M16.6831 22V19.2867C16.6831 15.785 19.1581 14.3733 22.1831 16.115L24.5298 17.4716L26.8764 18.8283C29.9014 20.57 29.9014 23.43 26.8764 25.1716L24.5298 26.5283L22.1831 27.885C19.1581 29.6267 16.6831 28.1966 16.6831 24.7133V22Z" fill="url(#paint1_radial_1207_105947)" fill-opacity="0.6"/>
<defs>
<radialGradient id="paint0_radial_1207_105947" cx="0" cy="0" r="1" gradientUnits="userSpaceOnUse" gradientTransform="translate(15.382 10.8799) rotate(55.9811) scale(27.9206 27.9154)">
<stop stop-color="white"/>
<stop offset="0.697917" stop-color="white" stop-opacity="0"/>
<stop offset="1" stop-color="white" stop-opacity="0"/>
</radialGradient>
<radialGradient id="paint1_radial_1207_105947" cx="0" cy="0" r="1" gradientUnits="userSpaceOnUse" gradientTransform="translate(20.6669 17.9775) rotate(57.5932) scale(9.91124 9.66897)">
<stop stop-color="white"/>
<stop offset="0.697917" stop-color="white" stop-opacity="0"/>
<stop offset="1" stop-color="white" stop-opacity="0"/>
</radialGradient>
</defs>
</svg>
