<svg width="44" height="44" viewBox="0 0 44 44" fill="none" xmlns="http://www.w3.org/2000/svg">
<g opacity="0.4">
<path d="M34.8332 16.5001C34.8332 19.1584 34.0448 21.5968 32.6882 23.6318C30.7082 26.5651 27.5732 28.6368 23.9248 29.1684C23.3015 29.2784 22.6598 29.3334 21.9998 29.3334C21.3398 29.3334 20.6982 29.2784 20.0748 29.1684C16.4265 28.6368 13.2915 26.5651 11.3115 23.6318C9.95484 21.5968 9.1665 19.1584 9.1665 16.5001C9.1665 9.40508 14.9048 3.66675 21.9998 3.66675C29.0948 3.66675 34.8332 9.40508 34.8332 16.5001Z" fill="#4412D0"/>
<path d="M34.8332 16.5001C34.8332 19.1584 34.0448 21.5968 32.6882 23.6318C30.7082 26.5651 27.5732 28.6368 23.9248 29.1684C23.3015 29.2784 22.6598 29.3334 21.9998 29.3334C21.3398 29.3334 20.6982 29.2784 20.0748 29.1684C16.4265 28.6368 13.2915 26.5651 11.3115 23.6318C9.95484 21.5968 9.1665 19.1584 9.1665 16.5001C9.1665 9.40508 14.9048 3.66675 21.9998 3.66675C29.0948 3.66675 34.8332 9.40508 34.8332 16.5001Z" fill="url(#paint0_radial_1594_1919)" fill-opacity="0.6"/>
</g>
<path d="M38.9583 33.8616L35.9333 34.5766C35.255 34.7416 34.7233 35.2549 34.5766 35.9333L33.935 38.6283C33.5866 40.0949 31.7167 40.5349 30.745 39.3799L22 29.3332L13.255 39.3982C12.2833 40.5532 10.4133 40.1132 10.065 38.6466L9.42331 35.9516C9.25831 35.2732 8.72665 34.7416 8.06665 34.5949L5.04165 33.8799C3.64831 33.5499 3.15331 31.8082 4.16165 30.7999L11.3116 23.6499C13.2916 26.5832 16.4266 28.6549 20.075 29.1866C20.6983 29.2966 21.34 29.3516 22 29.3516C22.66 29.3516 23.3016 29.2966 23.925 29.1866C27.5733 28.6549 30.7083 26.5832 32.6883 23.6499L39.8383 30.7999C40.8466 31.7899 40.3516 33.5316 38.9583 33.8616Z" fill="#4412D0"/>
<path d="M38.9583 33.8616L35.9333 34.5766C35.255 34.7416 34.7233 35.2549 34.5766 35.9333L33.935 38.6283C33.5866 40.0949 31.7167 40.5349 30.745 39.3799L22 29.3332L13.255 39.3982C12.2833 40.5532 10.4133 40.1132 10.065 38.6466L9.42331 35.9516C9.25831 35.2732 8.72665 34.7416 8.06665 34.5949L5.04165 33.8799C3.64831 33.5499 3.15331 31.8082 4.16165 30.7999L11.3116 23.6499C13.2916 26.5832 16.4266 28.6549 20.075 29.1866C20.6983 29.2966 21.34 29.3516 22 29.3516C22.66 29.3516 23.3016 29.2966 23.925 29.1866C27.5733 28.6549 30.7083 26.5832 32.6883 23.6499L39.8383 30.7999C40.8466 31.7899 40.3516 33.5316 38.9583 33.8616Z" fill="url(#paint1_radial_1594_1919)" fill-opacity="0.6"/>
<path d="M23.0631 10.9633L24.1448 13.1266C24.2915 13.4199 24.6765 13.7132 25.0248 13.7682L26.9865 14.0982C28.2331 14.2999 28.5265 15.2166 27.6281 16.1149L26.1065 17.6366C25.8498 17.8932 25.7031 18.3883 25.7948 18.7549L26.2348 20.6432C26.5831 22.1283 25.7948 22.7149 24.4748 21.9265L22.6415 20.8449C22.3115 20.6432 21.7615 20.6432 21.4315 20.8449L19.5981 21.9265C18.2781 22.6965 17.4898 22.1283 17.8381 20.6432L18.2781 18.7549C18.3515 18.4066 18.2231 17.8932 17.9665 17.6366L16.4448 16.1149C15.5465 15.2166 15.8398 14.3182 17.0865 14.0982L19.0481 13.7682C19.3781 13.7132 19.7631 13.4199 19.9098 13.1266L20.9915 10.9633C21.5231 9.78992 22.4765 9.78992 23.0631 10.9633Z" fill="#4412D0"/>
<path d="M23.0631 10.9633L24.1448 13.1266C24.2915 13.4199 24.6765 13.7132 25.0248 13.7682L26.9865 14.0982C28.2331 14.2999 28.5265 15.2166 27.6281 16.1149L26.1065 17.6366C25.8498 17.8932 25.7031 18.3883 25.7948 18.7549L26.2348 20.6432C26.5831 22.1283 25.7948 22.7149 24.4748 21.9265L22.6415 20.8449C22.3115 20.6432 21.7615 20.6432 21.4315 20.8449L19.5981 21.9265C18.2781 22.6965 17.4898 22.1283 17.8381 20.6432L18.2781 18.7549C18.3515 18.4066 18.2231 17.8932 17.9665 17.6366L16.4448 16.1149C15.5465 15.2166 15.8398 14.3182 17.0865 14.0982L19.0481 13.7682C19.3781 13.7132 19.7631 13.4199 19.9098 13.1266L20.9915 10.9633C21.5231 9.78992 22.4765 9.78992 23.0631 10.9633Z" fill="url(#paint2_radial_1594_1919)" fill-opacity="0.6"/>
<defs>
<radialGradient id="paint0_radial_1594_1919" cx="0" cy="0" r="1" gradientUnits="userSpaceOnUse" gradientTransform="translate(17.3714 8.71593) rotate(55.9679) scale(19.5475)">
<stop stop-color="white"/>
<stop offset="0.697917" stop-color="white" stop-opacity="0"/>
<stop offset="1" stop-color="white" stop-opacity="0"/>
</radialGradient>
<radialGradient id="paint1_radial_1594_1919" cx="0" cy="0" r="1" gradientUnits="userSpaceOnUse" gradientTransform="translate(15.3743 26.8772) rotate(33.4716) scale(18.7741 18.6226)">
<stop stop-color="white"/>
<stop offset="0.697917" stop-color="white" stop-opacity="0"/>
<stop offset="1" stop-color="white" stop-opacity="0"/>
</radialGradient>
<radialGradient id="paint2_radial_1594_1919" cx="0" cy="0" r="1" gradientUnits="userSpaceOnUse" gradientTransform="translate(19.8317 12.4822) rotate(55.8987) scale(9.29475 9.30377)">
<stop stop-color="white"/>
<stop offset="0.697917" stop-color="white" stop-opacity="0"/>
<stop offset="1" stop-color="white" stop-opacity="0"/>
</radialGradient>
</defs>
</svg>
