<svg width="44" height="44" viewBox="0 0 44 44" fill="none" xmlns="http://www.w3.org/2000/svg">
<g opacity="0.4">
<path d="M38.5 12.8333V31.1666C38.5 36.6666 35.75 40.3333 29.3333 40.3333H14.6667C8.25 40.3333 5.5 36.6666 5.5 31.1666V12.8333C5.5 7.33329 8.25 3.66663 14.6667 3.66663H29.3333C35.75 3.66663 38.5 7.33329 38.5 12.8333Z" fill="#21C5BB"/>
<path d="M38.5 12.8333V31.1666C38.5 36.6666 35.75 40.3333 29.3333 40.3333H14.6667C8.25 40.3333 5.5 36.6666 5.5 31.1666V12.8333C5.5 7.33329 8.25 3.66663 14.6667 3.66663H29.3333C35.75 3.66663 38.5 7.33329 38.5 12.8333Z" fill="url(#paint0_radial_1207_105954)" fill-opacity="0.6"/>
</g>
<path d="M28.4168 3.66663V18.0766C28.4168 18.8833 27.4634 19.2866 26.8768 18.755L22.6235 14.8316C22.2752 14.5016 21.7251 14.5016 21.3768 14.8316L17.1235 18.755C16.5369 19.305 15.5835 18.8833 15.5835 18.0766V3.66663H28.4168Z" fill="#21C5BB"/>
<path d="M28.4168 3.66663V18.0766C28.4168 18.8833 27.4634 19.2866 26.8768 18.755L22.6235 14.8316C22.2752 14.5016 21.7251 14.5016 21.3768 14.8316L17.1235 18.755C16.5369 19.305 15.5835 18.8833 15.5835 18.0766V3.66663H28.4168Z" fill="url(#paint1_radial_1207_105954)" fill-opacity="0.6"/>
<path d="M32.0832 27.0416H24.2915C23.5398 27.0416 22.9165 26.4183 22.9165 25.6666C22.9165 24.915 23.5398 24.2916 24.2915 24.2916H32.0832C32.8348 24.2916 33.4582 24.915 33.4582 25.6666C33.4582 26.4183 32.8348 27.0416 32.0832 27.0416Z" fill="#21C5BB"/>
<path d="M32.0832 27.0416H24.2915C23.5398 27.0416 22.9165 26.4183 22.9165 25.6666C22.9165 24.915 23.5398 24.2916 24.2915 24.2916H32.0832C32.8348 24.2916 33.4582 24.915 33.4582 25.6666C33.4582 26.4183 32.8348 27.0416 32.0832 27.0416Z" fill="url(#paint2_radial_1207_105954)" fill-opacity="0.6"/>
<path d="M32.0833 34.375H16.5C15.7483 34.375 15.125 33.7517 15.125 33C15.125 32.2483 15.7483 31.625 16.5 31.625H32.0833C32.835 31.625 33.4583 32.2483 33.4583 33C33.4583 33.7517 32.835 34.375 32.0833 34.375Z" fill="#21C5BB"/>
<path d="M32.0833 34.375H16.5C15.7483 34.375 15.125 33.7517 15.125 33C15.125 32.2483 15.7483 31.625 16.5 31.625H32.0833C32.835 31.625 33.4583 32.2483 33.4583 33C33.4583 33.7517 32.835 34.375 32.0833 34.375Z" fill="url(#paint3_radial_1207_105954)" fill-opacity="0.6"/>
<defs>
<radialGradient id="paint0_radial_1207_105954" cx="0" cy="0" r="1" gradientUnits="userSpaceOnUse" gradientTransform="translate(16.0492 10.8797) rotate(58.7091) scale(27.0813 25.9154)">
<stop stop-color="white"/>
<stop offset="0.697917" stop-color="white" stop-opacity="0"/>
<stop offset="1" stop-color="white" stop-opacity="0"/>
</radialGradient>
<radialGradient id="paint1_radial_1207_105954" cx="0" cy="0" r="1" gradientUnits="userSpaceOnUse" gradientTransform="translate(19.686 6.68378) rotate(60.5303) scale(11.1186 10.2678)">
<stop stop-color="white"/>
<stop offset="0.697917" stop-color="white" stop-opacity="0"/>
<stop offset="1" stop-color="white" stop-opacity="0"/>
</radialGradient>
<radialGradient id="paint2_radial_1207_105954" cx="0" cy="0" r="1" gradientUnits="userSpaceOnUse" gradientTransform="translate(26.2864 24.8326) rotate(21.1209) scale(4.81675 3.49084)">
<stop stop-color="white"/>
<stop offset="0.697917" stop-color="white" stop-opacity="0"/>
<stop offset="1" stop-color="white" stop-opacity="0"/>
</radialGradient>
<radialGradient id="paint3_radial_1207_105954" cx="0" cy="0" r="1" gradientUnits="userSpaceOnUse" gradientTransform="translate(20.9857 32.166) rotate(12.523) scale(8.00464 3.65321)">
<stop stop-color="white"/>
<stop offset="0.697917" stop-color="white" stop-opacity="0"/>
<stop offset="1" stop-color="white" stop-opacity="0"/>
</radialGradient>
</defs>
</svg>
