<svg width="50" height="50" viewBox="0 0 50 50" fill="none" xmlns="http://www.w3.org/2000/svg">
<g clip-path="url(#clip0)">
<path d="M49.4308 35.7009C49.0309 34.6992 47.8948 34.2112 46.893 34.6111C45.8912 35.011 45.4033 36.1471 45.8032 37.1489C46.3116 38.4226 46.1449 39.8769 45.3572 41.0394C44.5691 42.2025 43.3073 42.8696 41.8953 42.8696H8.11167C6.57153 42.8696 5.20386 42.066 4.45297 40.7197C3.70092 39.3711 3.73627 37.782 4.54751 36.4684L21.4393 9.11941C22.2085 7.87409 23.5408 7.13064 25.0035 7.13064C26.4662 7.13064 27.7984 7.87409 28.5677 9.11941L41.0606 29.3464C41.6274 30.2641 42.8309 30.5488 43.7484 29.9817C44.666 29.415 44.9505 28.2115 44.3836 27.2939L31.8906 7.06687C30.4047 4.661 27.8301 3.22467 25.0034 3.22467C22.1767 3.22467 19.6021 4.6611 18.1162 7.06687L1.22435 34.4159C-0.341664 36.9517 -0.409829 40.0195 1.04183 42.6223C2.49233 45.2229 5.1352 46.7754 8.11167 46.7754H41.8953C44.6237 46.7754 47.064 45.4832 48.5907 43.2302C50.1059 40.9941 50.4199 38.1793 49.4308 35.7009Z" fill="#FF8B0D"/>
<path d="M25.004 39.0616C26.0826 39.0616 26.9569 38.1873 26.9569 37.1086C26.9569 36.03 26.0826 35.1557 25.004 35.1557H25.003C23.9244 35.1557 23.0505 36.03 23.0505 37.1086C23.0505 38.1873 23.9253 39.0616 25.004 39.0616Z" fill="#FF8B0D"/>
<path d="M26.9567 30.2731V15.9189C26.9567 14.8403 26.0823 13.9659 25.0037 13.9659C23.9251 13.9659 23.0508 14.8403 23.0508 15.9189V30.2731C23.0508 31.3517 23.9251 32.226 25.0037 32.226C26.0823 32.226 26.9567 31.3517 26.9567 30.2731Z" fill="#FF8B0D"/>
</g>
<defs>
<clipPath id="clip0">
<rect width="50" height="50" fill="white"/>
</clipPath>
</defs>
</svg>
