<svg width="30" height="30" viewBox="0 0 30 30" fill="none" xmlns="http://www.w3.org/2000/svg">
<path d="M14.9904 29.707C14.1824 29.707 13.434 29.3424 12.9359 28.7056L9.9394 24.9055L4.6868 24.9023C2.10273 24.9023 0 22.7996 0 20.2148V4.92187C0 2.33711 2.10273 0.234375 4.68749 0.234375H25.3125C27.8972 0.234375 29.9999 2.33711 29.9999 4.92187V14.3554C29.9999 15.0027 29.4753 15.5273 28.8281 15.5273C28.1808 15.5273 27.6562 15.0027 27.6562 14.3554V4.92187C27.6562 3.6296 26.6047 2.57812 25.3125 2.57812H4.68749C3.39523 2.57812 2.34375 3.6296 2.34375 4.92187V20.2148C2.34375 21.5071 3.39523 22.5586 4.68749 22.5586L10.5089 22.562C10.8675 22.5622 11.2063 22.7268 11.4283 23.0083L14.7793 27.2579C14.8478 27.3456 14.9313 27.3632 14.9906 27.3632H14.9917C15.0508 27.363 15.135 27.3449 15.2005 27.26C15.2025 27.2573 15.2046 27.2545 15.2067 27.252L18.5305 23.0078C18.7527 22.7243 19.0928 22.5586 19.4531 22.5586H25.3125C26.6049 22.5586 27.6562 21.5071 27.6562 20.2148C27.6562 19.5675 28.1808 19.0429 28.8281 19.0429C29.4753 19.0429 29.9999 19.5675 29.9999 20.2148C29.9999 22.7996 27.8972 24.9023 25.3125 24.9023H20.0239L17.0544 28.6937C16.5591 29.3346 15.8111 29.7038 15.0009 29.707C14.9975 29.707 14.9938 29.707 14.9904 29.707ZM16.1718 18.1054V11.7773C16.1718 11.13 15.6472 10.6054 15 10.6054C14.3527 10.6054 13.8281 11.13 13.8281 11.7773V18.1054C13.8281 18.7527 14.3527 19.2773 15 19.2773C15.6472 19.2773 16.1718 18.7527 16.1718 18.1054ZM15 6.56249C14.3527 6.56249 13.8281 7.08708 13.8281 7.73436C13.8281 8.38164 14.3527 8.90623 15 8.90623C15.6472 8.90623 16.1718 8.38164 16.1718 7.73436C16.1718 7.08708 15.6472 6.56249 15 6.56249Z" fill="#03B113"/>
</svg>
